G04 #@! TF.GenerationSoftware,KiCad,Pcbnew,(6.0.0-0)*
G04 #@! TF.CreationDate,2022-05-15T17:03:54+02:00*
G04 #@! TF.ProjectId,rp2040_stamp,72703230-3430-45f7-9374-616d702e6b69,rev?*
G04 #@! TF.SameCoordinates,Original*
G04 #@! TF.FileFunction,Soldermask,Bot*
G04 #@! TF.FilePolarity,Negative*
%FSLAX46Y46*%
G04 Gerber Fmt 4.6, Leading zero omitted, Abs format (unit mm)*
G04 Created by KiCad (PCBNEW (6.0.0-0)) date 2022-05-15 17:03:54*
%MOMM*%
%LPD*%
G01*
G04 APERTURE LIST*
%ADD10R,1.500000X3.000000*%
%ADD11C,1.350000*%
%ADD12O,1.350000X1.350000*%
%ADD13R,3.000000X1.500000*%
G04 APERTURE END LIST*
D10*
X142500000Y-93750000D03*
D11*
X142500000Y-94500000D03*
X142500000Y-93000000D03*
D10*
X144500000Y-93750000D03*
D12*
X144500000Y-94500000D03*
X144500000Y-93000000D03*
D10*
X146500000Y-93750000D03*
D12*
X146500000Y-94500000D03*
X146500000Y-93000000D03*
D10*
X148500000Y-93750000D03*
D12*
X148500000Y-93000000D03*
X148500000Y-94500000D03*
X150500000Y-93000000D03*
D10*
X150500000Y-93750000D03*
D12*
X150500000Y-94500000D03*
X152500000Y-94500000D03*
D10*
X152500000Y-93750000D03*
D12*
X152500000Y-93000000D03*
X154500000Y-94500000D03*
D10*
X154500000Y-93750000D03*
D12*
X154500000Y-93000000D03*
D10*
X156500000Y-93750000D03*
D12*
X156500000Y-94500000D03*
X156500000Y-93000000D03*
X158500000Y-94500000D03*
X158500000Y-93000000D03*
D10*
X158500000Y-93750000D03*
X160500000Y-93750000D03*
D12*
X160500000Y-93000000D03*
X160500000Y-94500000D03*
D11*
X142500000Y-116500000D03*
D10*
X142500000Y-117250000D03*
D11*
X142500000Y-118000000D03*
D10*
X144500000Y-117250000D03*
D12*
X144500000Y-116500000D03*
X144500000Y-118000000D03*
X146500000Y-116500000D03*
X146500000Y-118000000D03*
D10*
X146500000Y-117250000D03*
D12*
X148500000Y-116500000D03*
D10*
X148500000Y-117250000D03*
D12*
X148500000Y-118000000D03*
X150500000Y-116500000D03*
X150500000Y-118000000D03*
D10*
X150500000Y-117250000D03*
X152500000Y-117250000D03*
D12*
X152500000Y-118000000D03*
X152500000Y-116500000D03*
X154500000Y-118000000D03*
D10*
X154500000Y-117250000D03*
D12*
X154500000Y-116500000D03*
X156500000Y-116500000D03*
X156500000Y-118000000D03*
D10*
X156500000Y-117250000D03*
D12*
X158500000Y-118000000D03*
X158500000Y-116500000D03*
D10*
X158500000Y-117250000D03*
X160500000Y-117250000D03*
D12*
X160500000Y-116500000D03*
X160500000Y-118000000D03*
D11*
X140500000Y-96500000D03*
D13*
X139750000Y-96500000D03*
D11*
X139000000Y-96500000D03*
D12*
X139000000Y-98500000D03*
D13*
X139750000Y-98500000D03*
D12*
X140500000Y-98500000D03*
X139000000Y-100500000D03*
X140500000Y-100500000D03*
D13*
X139750000Y-100500000D03*
X139750000Y-102500000D03*
D12*
X140500000Y-102500000D03*
X139000000Y-102500000D03*
X139000000Y-104500000D03*
X140500000Y-104500000D03*
D13*
X139750000Y-104500000D03*
D12*
X140500000Y-106500000D03*
D13*
X139750000Y-106500000D03*
D12*
X139000000Y-106500000D03*
X139000000Y-108500000D03*
D13*
X139750000Y-108500000D03*
D12*
X140500000Y-108500000D03*
X140500000Y-110500000D03*
X139000000Y-110500000D03*
D13*
X139750000Y-110500000D03*
X139750000Y-112500000D03*
D12*
X140500000Y-112500000D03*
X139000000Y-112500000D03*
X140500000Y-114500000D03*
X139000000Y-114500000D03*
D13*
X139750000Y-114500000D03*
D11*
X162500000Y-96500000D03*
D13*
X163250000Y-96500000D03*
D11*
X164000000Y-96500000D03*
D12*
X162500000Y-98500000D03*
X164000000Y-98500000D03*
D13*
X163250000Y-98500000D03*
D12*
X164000000Y-100500000D03*
D13*
X163250000Y-100500000D03*
D12*
X162500000Y-100500000D03*
D13*
X163250000Y-102500000D03*
D12*
X162500000Y-102500000D03*
X164000000Y-102500000D03*
D13*
X163250000Y-104500000D03*
D12*
X162500000Y-104500000D03*
X164000000Y-104500000D03*
X162500000Y-106500000D03*
D13*
X163250000Y-106500000D03*
D12*
X164000000Y-106500000D03*
X162500000Y-108500000D03*
D13*
X163250000Y-108500000D03*
D12*
X164000000Y-108500000D03*
X164000000Y-110500000D03*
X162500000Y-110500000D03*
D13*
X163250000Y-110500000D03*
X163250000Y-112500000D03*
D12*
X164000000Y-112500000D03*
X162500000Y-112500000D03*
X164000000Y-114500000D03*
X162500000Y-114500000D03*
D13*
X163250000Y-114500000D03*
G36*
X145280000Y-103660000D02*
G01*
X145280000Y-104160000D01*
X145275033Y-104160000D01*
X145273568Y-104239941D01*
X145231293Y-104375256D01*
X145152738Y-104493266D01*
X145044219Y-104584486D01*
X144914460Y-104641581D01*
X144780000Y-104659164D01*
X144780000Y-104660000D01*
X144280000Y-104660000D01*
X144280000Y-104659164D01*
X144273891Y-104659963D01*
X144133814Y-104638152D01*
X144005489Y-104577904D01*
X143899231Y-104484060D01*
X143823583Y-104364165D01*
X143784626Y-104227858D01*
X143785041Y-104160000D01*
X143780000Y-104160000D01*
X143780000Y-103660000D01*
X145280000Y-103660000D01*
G37*
G36*
X143785041Y-102860000D02*
G01*
X143785492Y-102786095D01*
X143826111Y-102650274D01*
X143903218Y-102531312D01*
X144010615Y-102438774D01*
X144139667Y-102380097D01*
X144280000Y-102360000D01*
X144780000Y-102360000D01*
X144792216Y-102360149D01*
X144932017Y-102383669D01*
X145059596Y-102445481D01*
X145164700Y-102540616D01*
X145238877Y-102661426D01*
X145276166Y-102798199D01*
X145275033Y-102860000D01*
X145280000Y-102860000D01*
X145280000Y-103360000D01*
X143780000Y-103360000D01*
X143780000Y-102860000D01*
X143785041Y-102860000D01*
G37*
M02*
