G04 #@! TF.GenerationSoftware,KiCad,Pcbnew,(6.0.0-0)*
G04 #@! TF.CreationDate,2022-05-15T17:03:53+02:00*
G04 #@! TF.ProjectId,rp2040_stamp,72703230-3430-45f7-9374-616d702e6b69,rev?*
G04 #@! TF.SameCoordinates,Original*
G04 #@! TF.FileFunction,Soldermask,Top*
G04 #@! TF.FilePolarity,Negative*
%FSLAX46Y46*%
G04 Gerber Fmt 4.6, Leading zero omitted, Abs format (unit mm)*
G04 Created by KiCad (PCBNEW (6.0.0-0)) date 2022-05-15 17:03:53*
%MOMM*%
%LPD*%
G01*
G04 APERTURE LIST*
%ADD10R,1.500000X3.000000*%
%ADD11C,1.350000*%
%ADD12O,1.350000X1.350000*%
%ADD13R,0.650000X1.700000*%
%ADD14R,3.000000X1.500000*%
%ADD15R,0.807999X0.178600*%
%ADD16R,0.178600X0.807999*%
%ADD17R,3.200400X3.200400*%
%ADD18R,2.800000X2.000000*%
G04 APERTURE END LIST*
G36*
G01*
X155050000Y-96900000D02*
X155050000Y-96350000D01*
G75*
G02*
X155250000Y-96150000I200000J0D01*
G01*
X155650000Y-96150000D01*
G75*
G02*
X155850000Y-96350000I0J-200000D01*
G01*
X155850000Y-96900000D01*
G75*
G02*
X155650000Y-97100000I-200000J0D01*
G01*
X155250000Y-97100000D01*
G75*
G02*
X155050000Y-96900000I0J200000D01*
G01*
G37*
G36*
G01*
X156700000Y-96900000D02*
X156700000Y-96350000D01*
G75*
G02*
X156900000Y-96150000I200000J0D01*
G01*
X157300000Y-96150000D01*
G75*
G02*
X157500000Y-96350000I0J-200000D01*
G01*
X157500000Y-96900000D01*
G75*
G02*
X157300000Y-97100000I-200000J0D01*
G01*
X156900000Y-97100000D01*
G75*
G02*
X156700000Y-96900000I0J200000D01*
G01*
G37*
G36*
G01*
X158425000Y-105550000D02*
X157925000Y-105550000D01*
G75*
G02*
X157700000Y-105325000I0J225000D01*
G01*
X157700000Y-104875000D01*
G75*
G02*
X157925000Y-104650000I225000J0D01*
G01*
X158425000Y-104650000D01*
G75*
G02*
X158650000Y-104875000I0J-225000D01*
G01*
X158650000Y-105325000D01*
G75*
G02*
X158425000Y-105550000I-225000J0D01*
G01*
G37*
G36*
G01*
X158425000Y-104000000D02*
X157925000Y-104000000D01*
G75*
G02*
X157700000Y-103775000I0J225000D01*
G01*
X157700000Y-103325000D01*
G75*
G02*
X157925000Y-103100000I225000J0D01*
G01*
X158425000Y-103100000D01*
G75*
G02*
X158650000Y-103325000I0J-225000D01*
G01*
X158650000Y-103775000D01*
G75*
G02*
X158425000Y-104000000I-225000J0D01*
G01*
G37*
D10*
X142500000Y-93750000D03*
D11*
X142500000Y-94500000D03*
X142500000Y-93000000D03*
D10*
X144500000Y-93750000D03*
D12*
X144500000Y-94500000D03*
X144500000Y-93000000D03*
X146500000Y-94500000D03*
X146500000Y-93000000D03*
D10*
X146500000Y-93750000D03*
D12*
X148500000Y-93000000D03*
X148500000Y-94500000D03*
D10*
X148500000Y-93750000D03*
D12*
X150500000Y-93000000D03*
D10*
X150500000Y-93750000D03*
D12*
X150500000Y-94500000D03*
X152500000Y-94500000D03*
D10*
X152500000Y-93750000D03*
D12*
X152500000Y-93000000D03*
D10*
X154500000Y-93750000D03*
D12*
X154500000Y-94500000D03*
X154500000Y-93000000D03*
D10*
X156500000Y-93750000D03*
D12*
X156500000Y-94500000D03*
X156500000Y-93000000D03*
D10*
X158500000Y-93750000D03*
D12*
X158500000Y-94500000D03*
X158500000Y-93000000D03*
X160500000Y-93000000D03*
X160500000Y-94500000D03*
D10*
X160500000Y-93750000D03*
G36*
G01*
X155414429Y-112957017D02*
X155767983Y-113310571D01*
G75*
G02*
X155767983Y-113628769I-159099J-159099D01*
G01*
X155449785Y-113946967D01*
G75*
G02*
X155131587Y-113946967I-159099J159099D01*
G01*
X154778033Y-113593413D01*
G75*
G02*
X154778033Y-113275215I159099J159099D01*
G01*
X155096231Y-112957017D01*
G75*
G02*
X155414429Y-112957017I159099J-159099D01*
G01*
G37*
G36*
G01*
X154318413Y-114053033D02*
X154671967Y-114406587D01*
G75*
G02*
X154671967Y-114724785I-159099J-159099D01*
G01*
X154353769Y-115042983D01*
G75*
G02*
X154035571Y-115042983I-159099J159099D01*
G01*
X153682017Y-114689429D01*
G75*
G02*
X153682017Y-114371231I159099J159099D01*
G01*
X154000215Y-114053033D01*
G75*
G02*
X154318413Y-114053033I159099J-159099D01*
G01*
G37*
G36*
G01*
X143425000Y-96400000D02*
X143425000Y-95850000D01*
G75*
G02*
X143625000Y-95650000I200000J0D01*
G01*
X144025000Y-95650000D01*
G75*
G02*
X144225000Y-95850000I0J-200000D01*
G01*
X144225000Y-96400000D01*
G75*
G02*
X144025000Y-96600000I-200000J0D01*
G01*
X143625000Y-96600000D01*
G75*
G02*
X143425000Y-96400000I0J200000D01*
G01*
G37*
G36*
G01*
X145075000Y-96400000D02*
X145075000Y-95850000D01*
G75*
G02*
X145275000Y-95650000I200000J0D01*
G01*
X145675000Y-95650000D01*
G75*
G02*
X145875000Y-95850000I0J-200000D01*
G01*
X145875000Y-96400000D01*
G75*
G02*
X145675000Y-96600000I-200000J0D01*
G01*
X145275000Y-96600000D01*
G75*
G02*
X145075000Y-96400000I0J200000D01*
G01*
G37*
G36*
G01*
X157364429Y-112957017D02*
X157717983Y-113310571D01*
G75*
G02*
X157717983Y-113628769I-159099J-159099D01*
G01*
X157399785Y-113946967D01*
G75*
G02*
X157081587Y-113946967I-159099J159099D01*
G01*
X156728033Y-113593413D01*
G75*
G02*
X156728033Y-113275215I159099J159099D01*
G01*
X157046231Y-112957017D01*
G75*
G02*
X157364429Y-112957017I159099J-159099D01*
G01*
G37*
G36*
G01*
X156268413Y-114053033D02*
X156621967Y-114406587D01*
G75*
G02*
X156621967Y-114724785I-159099J-159099D01*
G01*
X156303769Y-115042983D01*
G75*
G02*
X155985571Y-115042983I-159099J159099D01*
G01*
X155632017Y-114689429D01*
G75*
G02*
X155632017Y-114371231I159099J159099D01*
G01*
X155950215Y-114053033D01*
G75*
G02*
X156268413Y-114053033I159099J-159099D01*
G01*
G37*
G36*
G01*
X142025000Y-95975000D02*
X142575000Y-95975000D01*
G75*
G02*
X142775000Y-96175000I0J-200000D01*
G01*
X142775000Y-96575000D01*
G75*
G02*
X142575000Y-96775000I-200000J0D01*
G01*
X142025000Y-96775000D01*
G75*
G02*
X141825000Y-96575000I0J200000D01*
G01*
X141825000Y-96175000D01*
G75*
G02*
X142025000Y-95975000I200000J0D01*
G01*
G37*
G36*
G01*
X142025000Y-97625000D02*
X142575000Y-97625000D01*
G75*
G02*
X142775000Y-97825000I0J-200000D01*
G01*
X142775000Y-98225000D01*
G75*
G02*
X142575000Y-98425000I-200000J0D01*
G01*
X142025000Y-98425000D01*
G75*
G02*
X141825000Y-98225000I0J200000D01*
G01*
X141825000Y-97825000D01*
G75*
G02*
X142025000Y-97625000I200000J0D01*
G01*
G37*
X142500000Y-117250000D03*
D11*
X142500000Y-116500000D03*
X142500000Y-118000000D03*
D10*
X144500000Y-117250000D03*
D12*
X144500000Y-116500000D03*
X144500000Y-118000000D03*
X146500000Y-116500000D03*
X146500000Y-118000000D03*
D10*
X146500000Y-117250000D03*
D12*
X148500000Y-116500000D03*
X148500000Y-118000000D03*
D10*
X148500000Y-117250000D03*
X150500000Y-117250000D03*
D12*
X150500000Y-116500000D03*
X150500000Y-118000000D03*
D10*
X152500000Y-117250000D03*
D12*
X152500000Y-118000000D03*
X152500000Y-116500000D03*
D10*
X154500000Y-117250000D03*
D12*
X154500000Y-118000000D03*
X154500000Y-116500000D03*
X156500000Y-116500000D03*
X156500000Y-118000000D03*
D10*
X156500000Y-117250000D03*
D12*
X158500000Y-118000000D03*
D10*
X158500000Y-117250000D03*
D12*
X158500000Y-116500000D03*
X160500000Y-116500000D03*
D10*
X160500000Y-117250000D03*
D12*
X160500000Y-118000000D03*
G36*
G01*
X158475000Y-100500000D02*
X157925000Y-100500000D01*
G75*
G02*
X157725000Y-100300000I0J200000D01*
G01*
X157725000Y-99900000D01*
G75*
G02*
X157925000Y-99700000I200000J0D01*
G01*
X158475000Y-99700000D01*
G75*
G02*
X158675000Y-99900000I0J-200000D01*
G01*
X158675000Y-100300000D01*
G75*
G02*
X158475000Y-100500000I-200000J0D01*
G01*
G37*
G36*
G01*
X158475000Y-98850000D02*
X157925000Y-98850000D01*
G75*
G02*
X157725000Y-98650000I0J200000D01*
G01*
X157725000Y-98250000D01*
G75*
G02*
X157925000Y-98050000I200000J0D01*
G01*
X158475000Y-98050000D01*
G75*
G02*
X158675000Y-98250000I0J-200000D01*
G01*
X158675000Y-98650000D01*
G75*
G02*
X158475000Y-98850000I-200000J0D01*
G01*
G37*
G36*
G01*
X157700000Y-102325000D02*
X157700000Y-101825000D01*
G75*
G02*
X157925000Y-101600000I225000J0D01*
G01*
X158375000Y-101600000D01*
G75*
G02*
X158600000Y-101825000I0J-225000D01*
G01*
X158600000Y-102325000D01*
G75*
G02*
X158375000Y-102550000I-225000J0D01*
G01*
X157925000Y-102550000D01*
G75*
G02*
X157700000Y-102325000I0J225000D01*
G01*
G37*
G36*
G01*
X159250000Y-102325000D02*
X159250000Y-101825000D01*
G75*
G02*
X159475000Y-101600000I225000J0D01*
G01*
X159925000Y-101600000D01*
G75*
G02*
X160150000Y-101825000I0J-225000D01*
G01*
X160150000Y-102325000D01*
G75*
G02*
X159925000Y-102550000I-225000J0D01*
G01*
X159475000Y-102550000D01*
G75*
G02*
X159250000Y-102325000I0J225000D01*
G01*
G37*
D13*
X143720000Y-105225000D03*
X144990000Y-105225000D03*
X146260000Y-105225000D03*
X147530000Y-105225000D03*
X147530000Y-97925000D03*
X146260000Y-97925000D03*
X144990000Y-97925000D03*
X143720000Y-97925000D03*
G36*
G01*
X153464429Y-112957017D02*
X153817983Y-113310571D01*
G75*
G02*
X153817983Y-113628769I-159099J-159099D01*
G01*
X153499785Y-113946967D01*
G75*
G02*
X153181587Y-113946967I-159099J159099D01*
G01*
X152828033Y-113593413D01*
G75*
G02*
X152828033Y-113275215I159099J159099D01*
G01*
X153146231Y-112957017D01*
G75*
G02*
X153464429Y-112957017I159099J-159099D01*
G01*
G37*
G36*
G01*
X152368413Y-114053033D02*
X152721967Y-114406587D01*
G75*
G02*
X152721967Y-114724785I-159099J-159099D01*
G01*
X152403769Y-115042983D01*
G75*
G02*
X152085571Y-115042983I-159099J159099D01*
G01*
X151732017Y-114689429D01*
G75*
G02*
X151732017Y-114371231I159099J159099D01*
G01*
X152050215Y-114053033D01*
G75*
G02*
X152368413Y-114053033I159099J-159099D01*
G01*
G37*
D14*
X139750000Y-96500000D03*
D11*
X140500000Y-96500000D03*
X139000000Y-96500000D03*
D12*
X139000000Y-98500000D03*
X140500000Y-98500000D03*
D14*
X139750000Y-98500000D03*
D12*
X139000000Y-100500000D03*
X140500000Y-100500000D03*
D14*
X139750000Y-100500000D03*
X139750000Y-102500000D03*
D12*
X140500000Y-102500000D03*
X139000000Y-102500000D03*
X139000000Y-104500000D03*
D14*
X139750000Y-104500000D03*
D12*
X140500000Y-104500000D03*
X140500000Y-106500000D03*
D14*
X139750000Y-106500000D03*
D12*
X139000000Y-106500000D03*
X139000000Y-108500000D03*
X140500000Y-108500000D03*
D14*
X139750000Y-108500000D03*
X139750000Y-110500000D03*
D12*
X140500000Y-110500000D03*
X139000000Y-110500000D03*
X140500000Y-112500000D03*
X139000000Y-112500000D03*
D14*
X139750000Y-112500000D03*
X139750000Y-114500000D03*
D12*
X140500000Y-114500000D03*
X139000000Y-114500000D03*
G36*
G01*
X159850000Y-106575000D02*
X159350000Y-106575000D01*
G75*
G02*
X159125000Y-106350000I0J225000D01*
G01*
X159125000Y-105900000D01*
G75*
G02*
X159350000Y-105675000I225000J0D01*
G01*
X159850000Y-105675000D01*
G75*
G02*
X160075000Y-105900000I0J-225000D01*
G01*
X160075000Y-106350000D01*
G75*
G02*
X159850000Y-106575000I-225000J0D01*
G01*
G37*
G36*
G01*
X159850000Y-105025000D02*
X159350000Y-105025000D01*
G75*
G02*
X159125000Y-104800000I0J225000D01*
G01*
X159125000Y-104350000D01*
G75*
G02*
X159350000Y-104125000I225000J0D01*
G01*
X159850000Y-104125000D01*
G75*
G02*
X160075000Y-104350000I0J-225000D01*
G01*
X160075000Y-104800000D01*
G75*
G02*
X159850000Y-105025000I-225000J0D01*
G01*
G37*
G36*
G01*
X147900000Y-107075000D02*
X147900000Y-107575000D01*
G75*
G02*
X147675000Y-107800000I-225000J0D01*
G01*
X147225000Y-107800000D01*
G75*
G02*
X147000000Y-107575000I0J225000D01*
G01*
X147000000Y-107075000D01*
G75*
G02*
X147225000Y-106850000I225000J0D01*
G01*
X147675000Y-106850000D01*
G75*
G02*
X147900000Y-107075000I0J-225000D01*
G01*
G37*
G36*
G01*
X146350000Y-107075000D02*
X146350000Y-107575000D01*
G75*
G02*
X146125000Y-107800000I-225000J0D01*
G01*
X145675000Y-107800000D01*
G75*
G02*
X145450000Y-107575000I0J225000D01*
G01*
X145450000Y-107075000D01*
G75*
G02*
X145675000Y-106850000I225000J0D01*
G01*
X146125000Y-106850000D01*
G75*
G02*
X146350000Y-107075000I0J-225000D01*
G01*
G37*
G36*
G01*
X159850000Y-100500000D02*
X159300000Y-100500000D01*
G75*
G02*
X159100000Y-100300000I0J200000D01*
G01*
X159100000Y-99900000D01*
G75*
G02*
X159300000Y-99700000I200000J0D01*
G01*
X159850000Y-99700000D01*
G75*
G02*
X160050000Y-99900000I0J-200000D01*
G01*
X160050000Y-100300000D01*
G75*
G02*
X159850000Y-100500000I-200000J0D01*
G01*
G37*
G36*
G01*
X159850000Y-98850000D02*
X159300000Y-98850000D01*
G75*
G02*
X159100000Y-98650000I0J200000D01*
G01*
X159100000Y-98250000D01*
G75*
G02*
X159300000Y-98050000I200000J0D01*
G01*
X159850000Y-98050000D01*
G75*
G02*
X160050000Y-98250000I0J-200000D01*
G01*
X160050000Y-98650000D01*
G75*
G02*
X159850000Y-98850000I-200000J0D01*
G01*
G37*
G36*
G01*
X158650000Y-110325000D02*
X158650000Y-109825000D01*
G75*
G02*
X158875000Y-109600000I225000J0D01*
G01*
X159325000Y-109600000D01*
G75*
G02*
X159550000Y-109825000I0J-225000D01*
G01*
X159550000Y-110325000D01*
G75*
G02*
X159325000Y-110550000I-225000J0D01*
G01*
X158875000Y-110550000D01*
G75*
G02*
X158650000Y-110325000I0J225000D01*
G01*
G37*
G36*
G01*
X160200000Y-110325000D02*
X160200000Y-109825000D01*
G75*
G02*
X160425000Y-109600000I225000J0D01*
G01*
X160875000Y-109600000D01*
G75*
G02*
X161100000Y-109825000I0J-225000D01*
G01*
X161100000Y-110325000D01*
G75*
G02*
X160875000Y-110550000I-225000J0D01*
G01*
X160425000Y-110550000D01*
G75*
G02*
X160200000Y-110325000I0J225000D01*
G01*
G37*
G36*
G01*
X156400000Y-102875000D02*
X156400000Y-103425000D01*
G75*
G02*
X156200000Y-103625000I-200000J0D01*
G01*
X155800000Y-103625000D01*
G75*
G02*
X155600000Y-103425000I0J200000D01*
G01*
X155600000Y-102875000D01*
G75*
G02*
X155800000Y-102675000I200000J0D01*
G01*
X156200000Y-102675000D01*
G75*
G02*
X156400000Y-102875000I0J-200000D01*
G01*
G37*
G36*
G01*
X154750000Y-102875000D02*
X154750000Y-103425000D01*
G75*
G02*
X154550000Y-103625000I-200000J0D01*
G01*
X154150000Y-103625000D01*
G75*
G02*
X153950000Y-103425000I0J200000D01*
G01*
X153950000Y-102875000D01*
G75*
G02*
X154150000Y-102675000I200000J0D01*
G01*
X154550000Y-102675000D01*
G75*
G02*
X154750000Y-102875000I0J-200000D01*
G01*
G37*
D11*
X162500000Y-96500000D03*
D14*
X163250000Y-96500000D03*
D11*
X164000000Y-96500000D03*
D12*
X162500000Y-98500000D03*
X164000000Y-98500000D03*
D14*
X163250000Y-98500000D03*
D12*
X164000000Y-100500000D03*
D14*
X163250000Y-100500000D03*
D12*
X162500000Y-100500000D03*
X162500000Y-102500000D03*
X164000000Y-102500000D03*
D14*
X163250000Y-102500000D03*
X163250000Y-104500000D03*
D12*
X162500000Y-104500000D03*
X164000000Y-104500000D03*
X162500000Y-106500000D03*
X164000000Y-106500000D03*
D14*
X163250000Y-106500000D03*
D12*
X162500000Y-108500000D03*
D14*
X163250000Y-108500000D03*
D12*
X164000000Y-108500000D03*
D14*
X163250000Y-110500000D03*
D12*
X164000000Y-110500000D03*
X162500000Y-110500000D03*
X164000000Y-112500000D03*
X162500000Y-112500000D03*
D14*
X163250000Y-112500000D03*
D12*
X164000000Y-114500000D03*
X162500000Y-114500000D03*
D14*
X163250000Y-114500000D03*
D15*
X150498800Y-106050000D03*
X150498800Y-106449999D03*
X150498800Y-106850001D03*
X150498800Y-107250000D03*
X150498800Y-107649999D03*
X150498800Y-108050001D03*
X150498800Y-108450000D03*
X150498800Y-108850000D03*
X150498800Y-109249999D03*
X150498800Y-109650001D03*
X150498800Y-110050000D03*
X150498800Y-110449999D03*
X150498800Y-110850001D03*
X150498800Y-111250000D03*
D16*
X151300000Y-112051200D03*
X151699999Y-112051200D03*
X152100001Y-112051200D03*
X152500000Y-112051200D03*
X152899999Y-112051200D03*
X153300001Y-112051200D03*
X153700000Y-112051200D03*
X154100000Y-112051200D03*
X154499999Y-112051200D03*
X154900001Y-112051200D03*
X155300000Y-112051200D03*
X155699999Y-112051200D03*
X156100001Y-112051200D03*
X156500000Y-112051200D03*
D15*
X157301200Y-111250000D03*
X157301200Y-110850001D03*
X157301200Y-110449999D03*
X157301200Y-110050000D03*
X157301200Y-109650001D03*
X157301200Y-109249999D03*
X157301200Y-108850000D03*
X157301200Y-108450000D03*
X157301200Y-108050001D03*
X157301200Y-107649999D03*
X157301200Y-107250000D03*
X157301200Y-106850001D03*
X157301200Y-106449999D03*
X157301200Y-106050000D03*
D16*
X156500000Y-105248800D03*
X156100001Y-105248800D03*
X155699999Y-105248800D03*
X155300000Y-105248800D03*
X154900001Y-105248800D03*
X154499999Y-105248800D03*
X154100000Y-105248800D03*
X153700000Y-105248800D03*
X153300001Y-105248800D03*
X152899999Y-105248800D03*
X152500000Y-105248800D03*
X152100001Y-105248800D03*
X151699999Y-105248800D03*
X151300000Y-105248800D03*
D17*
X153900000Y-108650000D03*
D18*
X150500000Y-100100000D03*
X155700000Y-100100000D03*
G36*
G01*
X148800000Y-111025000D02*
X148800000Y-111525000D01*
G75*
G02*
X148575000Y-111750000I-225000J0D01*
G01*
X148125000Y-111750000D01*
G75*
G02*
X147900000Y-111525000I0J225000D01*
G01*
X147900000Y-111025000D01*
G75*
G02*
X148125000Y-110800000I225000J0D01*
G01*
X148575000Y-110800000D01*
G75*
G02*
X148800000Y-111025000I0J-225000D01*
G01*
G37*
G36*
G01*
X147250000Y-111025000D02*
X147250000Y-111525000D01*
G75*
G02*
X147025000Y-111750000I-225000J0D01*
G01*
X146575000Y-111750000D01*
G75*
G02*
X146350000Y-111525000I0J225000D01*
G01*
X146350000Y-111025000D01*
G75*
G02*
X146575000Y-110800000I225000J0D01*
G01*
X147025000Y-110800000D01*
G75*
G02*
X147250000Y-111025000I0J-225000D01*
G01*
G37*
G36*
G01*
X149075000Y-97000000D02*
X149075000Y-96500000D01*
G75*
G02*
X149300000Y-96275000I225000J0D01*
G01*
X149750000Y-96275000D01*
G75*
G02*
X149975000Y-96500000I0J-225000D01*
G01*
X149975000Y-97000000D01*
G75*
G02*
X149750000Y-97225000I-225000J0D01*
G01*
X149300000Y-97225000D01*
G75*
G02*
X149075000Y-97000000I0J225000D01*
G01*
G37*
G36*
G01*
X150625000Y-97000000D02*
X150625000Y-96500000D01*
G75*
G02*
X150850000Y-96275000I225000J0D01*
G01*
X151300000Y-96275000D01*
G75*
G02*
X151525000Y-96500000I0J-225000D01*
G01*
X151525000Y-97000000D01*
G75*
G02*
X151300000Y-97225000I-225000J0D01*
G01*
X150850000Y-97225000D01*
G75*
G02*
X150625000Y-97000000I0J225000D01*
G01*
G37*
G36*
G01*
X154500000Y-96500000D02*
X154500000Y-97000000D01*
G75*
G02*
X154275000Y-97225000I-225000J0D01*
G01*
X153825000Y-97225000D01*
G75*
G02*
X153600000Y-97000000I0J225000D01*
G01*
X153600000Y-96500000D01*
G75*
G02*
X153825000Y-96275000I225000J0D01*
G01*
X154275000Y-96275000D01*
G75*
G02*
X154500000Y-96500000I0J-225000D01*
G01*
G37*
G36*
G01*
X152950000Y-96500000D02*
X152950000Y-97000000D01*
G75*
G02*
X152725000Y-97225000I-225000J0D01*
G01*
X152275000Y-97225000D01*
G75*
G02*
X152050000Y-97000000I0J225000D01*
G01*
X152050000Y-96500000D01*
G75*
G02*
X152275000Y-96275000I225000J0D01*
G01*
X152725000Y-96275000D01*
G75*
G02*
X152950000Y-96500000I0J-225000D01*
G01*
G37*
M02*
