G04 #@! TF.GenerationSoftware,KiCad,Pcbnew,(6.0.0-0)*
G04 #@! TF.CreationDate,2022-05-15T17:03:53+02:00*
G04 #@! TF.ProjectId,rp2040_stamp,72703230-3430-45f7-9374-616d702e6b69,rev?*
G04 #@! TF.SameCoordinates,Original*
G04 #@! TF.FileFunction,Legend,Top*
G04 #@! TF.FilePolarity,Positive*
%FSLAX46Y46*%
G04 Gerber Fmt 4.6, Leading zero omitted, Abs format (unit mm)*
G04 Created by KiCad (PCBNEW (6.0.0-0)) date 2022-05-15 17:03:53*
%MOMM*%
%LPD*%
G01*
G04 APERTURE LIST*
%ADD10C,0.150000*%
%ADD11C,0.400000*%
%ADD12C,0.110000*%
%ADD13C,0.281155*%
%ADD14C,0.100000*%
%ADD15C,0.120000*%
%ADD16C,0.010000*%
G04 APERTURE END LIST*
D10*
X140799999Y-117300000D02*
X141399999Y-116700000D01*
D11*
X140950000Y-94300000D02*
G75*
G03*
X140950000Y-94300000I-650000J0D01*
G01*
D12*
X163500000Y-116700000D02*
G75*
G03*
X163500000Y-116700000I-800000J0D01*
G01*
D10*
X141000000Y-116350000D02*
X141100000Y-116800000D01*
X141100000Y-116800000D02*
X140825000Y-117250000D01*
X140825000Y-117250000D02*
X140625000Y-117375000D01*
X140625000Y-117375000D02*
X140375000Y-117450000D01*
X140375000Y-117450000D02*
X139925000Y-117350000D01*
X139925000Y-117350000D02*
X139725000Y-117175000D01*
X139725000Y-117175000D02*
X140700000Y-117275000D01*
X140700000Y-117275000D02*
X140900000Y-117000000D01*
X140900000Y-117000000D02*
X140950000Y-116550000D01*
X140950000Y-116550000D02*
X140825000Y-116225000D01*
X140825000Y-116225000D02*
X141000000Y-116350000D01*
G36*
X141000000Y-116350000D02*
G01*
X141100000Y-116800000D01*
X140825000Y-117250000D01*
X140625000Y-117375000D01*
X140375000Y-117450000D01*
X139925000Y-117350000D01*
X139725000Y-117175000D01*
X140700000Y-117275000D01*
X140900000Y-117000000D01*
X140950000Y-116550000D01*
X140825000Y-116225000D01*
X141000000Y-116350000D01*
G37*
X141000000Y-116350000D02*
X141100000Y-116800000D01*
X140825000Y-117250000D01*
X140625000Y-117375000D01*
X140375000Y-117450000D01*
X139925000Y-117350000D01*
X139725000Y-117175000D01*
X140700000Y-117275000D01*
X140900000Y-117000000D01*
X140950000Y-116550000D01*
X140825000Y-116225000D01*
X141000000Y-116350000D01*
X163300000Y-116200001D02*
X162700000Y-115600001D01*
X140300000Y-95400000D02*
X140900000Y-94800000D01*
X162700000Y-115600001D02*
X162100000Y-116200001D01*
D13*
X149740577Y-102850000D02*
G75*
G03*
X149740577Y-102850000I-140577J0D01*
G01*
D10*
X163050000Y-117350000D02*
X162700000Y-117450000D01*
X162700000Y-117450000D02*
X162350000Y-117350000D01*
X162350000Y-117350000D02*
X162150000Y-117200000D01*
X162150000Y-117200000D02*
X163250000Y-117200000D01*
X163250000Y-117200000D02*
X163050000Y-117350000D01*
G36*
X163050000Y-117350000D02*
G01*
X162700000Y-117450000D01*
X162350000Y-117350000D01*
X162150000Y-117200000D01*
X163250000Y-117200000D01*
X163050000Y-117350000D01*
G37*
X163050000Y-117350000D02*
X162700000Y-117450000D01*
X162350000Y-117350000D01*
X162150000Y-117200000D01*
X163250000Y-117200000D01*
X163050000Y-117350000D01*
X162700000Y-115600001D02*
X163000000Y-115900001D01*
X163000000Y-115900001D02*
X162400000Y-115900001D01*
X162400000Y-115900001D02*
X162700000Y-115600001D01*
G36*
X163000000Y-115900001D02*
G01*
X162400000Y-115900001D01*
X162700000Y-115600001D01*
X163000000Y-115900001D01*
G37*
X163000000Y-115900001D02*
X162400000Y-115900001D01*
X162700000Y-115600001D01*
X163000000Y-115900001D01*
D12*
X141100000Y-116700000D02*
G75*
G03*
X141100000Y-116700000I-800000J0D01*
G01*
D10*
X140300000Y-95400000D02*
X140000000Y-95100000D01*
X140000000Y-95100000D02*
X140600000Y-95100000D01*
X140600000Y-95100000D02*
X140300000Y-95400000D01*
G36*
X140300000Y-95400000D02*
G01*
X140000000Y-95100000D01*
X140600000Y-95100000D01*
X140300000Y-95400000D01*
G37*
X140300000Y-95400000D02*
X140000000Y-95100000D01*
X140600000Y-95100000D01*
X140300000Y-95400000D01*
X140750000Y-116100000D02*
X139850000Y-116100000D01*
X139850000Y-116100000D02*
X140300000Y-115950000D01*
X140300000Y-115950000D02*
X140750000Y-116100000D01*
G36*
X140750000Y-116100000D02*
G01*
X139850000Y-116100000D01*
X140300000Y-115950000D01*
X140750000Y-116100000D01*
G37*
X140750000Y-116100000D02*
X139850000Y-116100000D01*
X140300000Y-115950000D01*
X140750000Y-116100000D01*
X141399999Y-116700000D02*
X140799999Y-116100000D01*
X163100000Y-116100000D02*
X162300000Y-116100000D01*
X162300000Y-116100000D02*
X162400000Y-115900001D01*
X162400000Y-115900001D02*
X163000000Y-115900001D01*
X163000000Y-115900001D02*
X163100000Y-116100000D01*
G36*
X163100000Y-116100000D02*
G01*
X162300000Y-116100000D01*
X162400000Y-115900001D01*
X163000000Y-115900001D01*
X163100000Y-116100000D01*
G37*
X163100000Y-116100000D02*
X162300000Y-116100000D01*
X162400000Y-115900001D01*
X163000000Y-115900001D01*
X163100000Y-116100000D01*
X139700000Y-94800000D02*
X140300000Y-95400000D01*
D14*
X139575000Y-116950000D02*
X139525000Y-116700000D01*
X139525000Y-116700000D02*
X139575000Y-116400000D01*
X139575000Y-116400000D02*
X139575000Y-116950000D01*
G36*
X139575000Y-116950000D02*
G01*
X139525000Y-116700000D01*
X139575000Y-116400000D01*
X139575000Y-116950000D01*
G37*
X139575000Y-116950000D02*
X139525000Y-116700000D01*
X139575000Y-116400000D01*
X139575000Y-116950000D01*
D10*
X141399999Y-116700000D02*
X141099999Y-117000000D01*
X141099999Y-117000000D02*
X141099999Y-116400000D01*
X141099999Y-116400000D02*
X141399999Y-116700000D01*
G36*
X141399999Y-116700000D02*
G01*
X141099999Y-117000000D01*
X141099999Y-116400000D01*
X141399999Y-116700000D01*
G37*
X141399999Y-116700000D02*
X141099999Y-117000000D01*
X141099999Y-116400000D01*
X141399999Y-116700000D01*
X143392705Y-103875000D02*
G75*
G03*
X143392705Y-103875000I-167705J0D01*
G01*
X158375000Y-96964285D02*
X158125000Y-96607142D01*
X157946428Y-96964285D02*
X157946428Y-96214285D01*
X158232142Y-96214285D01*
X158303571Y-96250000D01*
X158339285Y-96285714D01*
X158375000Y-96357142D01*
X158375000Y-96464285D01*
X158339285Y-96535714D01*
X158303571Y-96571428D01*
X158232142Y-96607142D01*
X157946428Y-96607142D01*
X159053571Y-96214285D02*
X158696428Y-96214285D01*
X158660714Y-96571428D01*
X158696428Y-96535714D01*
X158767857Y-96500000D01*
X158946428Y-96500000D01*
X159017857Y-96535714D01*
X159053571Y-96571428D01*
X159089285Y-96642857D01*
X159089285Y-96821428D01*
X159053571Y-96892857D01*
X159017857Y-96928571D01*
X158946428Y-96964285D01*
X158767857Y-96964285D01*
X158696428Y-96928571D01*
X158660714Y-96892857D01*
X159300000Y-103667857D02*
X159264285Y-103703571D01*
X159157142Y-103739285D01*
X159085714Y-103739285D01*
X158978571Y-103703571D01*
X158907142Y-103632142D01*
X158871428Y-103560714D01*
X158835714Y-103417857D01*
X158835714Y-103310714D01*
X158871428Y-103167857D01*
X158907142Y-103096428D01*
X158978571Y-103025000D01*
X159085714Y-102989285D01*
X159157142Y-102989285D01*
X159264285Y-103025000D01*
X159300000Y-103060714D01*
X159550000Y-102989285D02*
X160014285Y-102989285D01*
X159764285Y-103275000D01*
X159871428Y-103275000D01*
X159942857Y-103310714D01*
X159978571Y-103346428D01*
X160014285Y-103417857D01*
X160014285Y-103596428D01*
X159978571Y-103667857D01*
X159942857Y-103703571D01*
X159871428Y-103739285D01*
X159657142Y-103739285D01*
X159585714Y-103703571D01*
X159550000Y-103667857D01*
X155025000Y-115517857D02*
X154989285Y-115553571D01*
X154882142Y-115589285D01*
X154810714Y-115589285D01*
X154703571Y-115553571D01*
X154632142Y-115482142D01*
X154596428Y-115410714D01*
X154560714Y-115267857D01*
X154560714Y-115160714D01*
X154596428Y-115017857D01*
X154632142Y-114946428D01*
X154703571Y-114875000D01*
X154810714Y-114839285D01*
X154882142Y-114839285D01*
X154989285Y-114875000D01*
X155025000Y-114910714D01*
X155382142Y-115589285D02*
X155525000Y-115589285D01*
X155596428Y-115553571D01*
X155632142Y-115517857D01*
X155703571Y-115410714D01*
X155739285Y-115267857D01*
X155739285Y-114982142D01*
X155703571Y-114910714D01*
X155667857Y-114875000D01*
X155596428Y-114839285D01*
X155453571Y-114839285D01*
X155382142Y-114875000D01*
X155346428Y-114910714D01*
X155310714Y-114982142D01*
X155310714Y-115160714D01*
X155346428Y-115232142D01*
X155382142Y-115267857D01*
X155453571Y-115303571D01*
X155596428Y-115303571D01*
X155667857Y-115267857D01*
X155703571Y-115232142D01*
X155739285Y-115160714D01*
X146725000Y-96464285D02*
X146475000Y-96107142D01*
X146296428Y-96464285D02*
X146296428Y-95714285D01*
X146582142Y-95714285D01*
X146653571Y-95750000D01*
X146689285Y-95785714D01*
X146725000Y-95857142D01*
X146725000Y-95964285D01*
X146689285Y-96035714D01*
X146653571Y-96071428D01*
X146582142Y-96107142D01*
X146296428Y-96107142D01*
X147439285Y-96464285D02*
X147010714Y-96464285D01*
X147225000Y-96464285D02*
X147225000Y-95714285D01*
X147153571Y-95821428D01*
X147082142Y-95892857D01*
X147010714Y-95928571D01*
X156992857Y-115517857D02*
X156957142Y-115553571D01*
X156850000Y-115589285D01*
X156778571Y-115589285D01*
X156671428Y-115553571D01*
X156600000Y-115482142D01*
X156564285Y-115410714D01*
X156528571Y-115267857D01*
X156528571Y-115160714D01*
X156564285Y-115017857D01*
X156600000Y-114946428D01*
X156671428Y-114875000D01*
X156778571Y-114839285D01*
X156850000Y-114839285D01*
X156957142Y-114875000D01*
X156992857Y-114910714D01*
X157707142Y-115589285D02*
X157278571Y-115589285D01*
X157492857Y-115589285D02*
X157492857Y-114839285D01*
X157421428Y-114946428D01*
X157350000Y-115017857D01*
X157278571Y-115053571D01*
X158421428Y-115589285D02*
X157992857Y-115589285D01*
X158207142Y-115589285D02*
X158207142Y-114839285D01*
X158135714Y-114946428D01*
X158064285Y-115017857D01*
X157992857Y-115053571D01*
X142639285Y-99325000D02*
X142282142Y-99575000D01*
X142639285Y-99753571D02*
X141889285Y-99753571D01*
X141889285Y-99467857D01*
X141925000Y-99396428D01*
X141960714Y-99360714D01*
X142032142Y-99325000D01*
X142139285Y-99325000D01*
X142210714Y-99360714D01*
X142246428Y-99396428D01*
X142282142Y-99467857D01*
X142282142Y-99753571D01*
X141889285Y-98682142D02*
X141889285Y-98825000D01*
X141925000Y-98896428D01*
X141960714Y-98932142D01*
X142067857Y-99003571D01*
X142210714Y-99039285D01*
X142496428Y-99039285D01*
X142567857Y-99003571D01*
X142603571Y-98967857D01*
X142639285Y-98896428D01*
X142639285Y-98753571D01*
X142603571Y-98682142D01*
X142567857Y-98646428D01*
X142496428Y-98610714D01*
X142317857Y-98610714D01*
X142246428Y-98646428D01*
X142210714Y-98682142D01*
X142175000Y-98753571D01*
X142175000Y-98896428D01*
X142210714Y-98967857D01*
X142246428Y-99003571D01*
X142317857Y-99039285D01*
X157614285Y-98325000D02*
X157257142Y-98575000D01*
X157614285Y-98753571D02*
X156864285Y-98753571D01*
X156864285Y-98467857D01*
X156900000Y-98396428D01*
X156935714Y-98360714D01*
X157007142Y-98325000D01*
X157114285Y-98325000D01*
X157185714Y-98360714D01*
X157221428Y-98396428D01*
X157257142Y-98467857D01*
X157257142Y-98753571D01*
X156864285Y-98075000D02*
X156864285Y-97610714D01*
X157150000Y-97860714D01*
X157150000Y-97753571D01*
X157185714Y-97682142D01*
X157221428Y-97646428D01*
X157292857Y-97610714D01*
X157471428Y-97610714D01*
X157542857Y-97646428D01*
X157578571Y-97682142D01*
X157614285Y-97753571D01*
X157614285Y-97967857D01*
X157578571Y-98039285D01*
X157542857Y-98075000D01*
X161042857Y-102200000D02*
X161078571Y-102235714D01*
X161114285Y-102342857D01*
X161114285Y-102414285D01*
X161078571Y-102521428D01*
X161007142Y-102592857D01*
X160935714Y-102628571D01*
X160792857Y-102664285D01*
X160685714Y-102664285D01*
X160542857Y-102628571D01*
X160471428Y-102592857D01*
X160400000Y-102521428D01*
X160364285Y-102414285D01*
X160364285Y-102342857D01*
X160400000Y-102235714D01*
X160435714Y-102200000D01*
X160614285Y-101557142D02*
X161114285Y-101557142D01*
X160328571Y-101735714D02*
X160864285Y-101914285D01*
X160864285Y-101450000D01*
X145053571Y-101164285D02*
X145053571Y-101771428D01*
X145089285Y-101842857D01*
X145125000Y-101878571D01*
X145196428Y-101914285D01*
X145339285Y-101914285D01*
X145410714Y-101878571D01*
X145446428Y-101842857D01*
X145482142Y-101771428D01*
X145482142Y-101164285D01*
X146232142Y-101914285D02*
X145803571Y-101914285D01*
X146017857Y-101914285D02*
X146017857Y-101164285D01*
X145946428Y-101271428D01*
X145875000Y-101342857D01*
X145803571Y-101378571D01*
X150367857Y-115517857D02*
X150332142Y-115553571D01*
X150225000Y-115589285D01*
X150153571Y-115589285D01*
X150046428Y-115553571D01*
X149975000Y-115482142D01*
X149939285Y-115410714D01*
X149903571Y-115267857D01*
X149903571Y-115160714D01*
X149939285Y-115017857D01*
X149975000Y-114946428D01*
X150046428Y-114875000D01*
X150153571Y-114839285D01*
X150225000Y-114839285D01*
X150332142Y-114875000D01*
X150367857Y-114910714D01*
X151082142Y-115589285D02*
X150653571Y-115589285D01*
X150867857Y-115589285D02*
X150867857Y-114839285D01*
X150796428Y-114946428D01*
X150725000Y-115017857D01*
X150653571Y-115053571D01*
X151546428Y-114839285D02*
X151617857Y-114839285D01*
X151689285Y-114875000D01*
X151725000Y-114910714D01*
X151760714Y-114982142D01*
X151796428Y-115125000D01*
X151796428Y-115303571D01*
X151760714Y-115446428D01*
X151725000Y-115517857D01*
X151689285Y-115553571D01*
X151617857Y-115589285D01*
X151546428Y-115589285D01*
X151475000Y-115553571D01*
X151439285Y-115517857D01*
X151403571Y-115446428D01*
X151367857Y-115303571D01*
X151367857Y-115125000D01*
X151403571Y-114982142D01*
X151439285Y-114910714D01*
X151475000Y-114875000D01*
X151546428Y-114839285D01*
X160892857Y-106425000D02*
X160928571Y-106460714D01*
X160964285Y-106567857D01*
X160964285Y-106639285D01*
X160928571Y-106746428D01*
X160857142Y-106817857D01*
X160785714Y-106853571D01*
X160642857Y-106889285D01*
X160535714Y-106889285D01*
X160392857Y-106853571D01*
X160321428Y-106817857D01*
X160250000Y-106746428D01*
X160214285Y-106639285D01*
X160214285Y-106567857D01*
X160250000Y-106460714D01*
X160285714Y-106425000D01*
X160214285Y-105746428D02*
X160214285Y-106103571D01*
X160571428Y-106139285D01*
X160535714Y-106103571D01*
X160500000Y-106032142D01*
X160500000Y-105853571D01*
X160535714Y-105782142D01*
X160571428Y-105746428D01*
X160642857Y-105710714D01*
X160821428Y-105710714D01*
X160892857Y-105746428D01*
X160928571Y-105782142D01*
X160964285Y-105853571D01*
X160964285Y-106032142D01*
X160928571Y-106103571D01*
X160892857Y-106139285D01*
X147425000Y-108642857D02*
X147389285Y-108678571D01*
X147282142Y-108714285D01*
X147210714Y-108714285D01*
X147103571Y-108678571D01*
X147032142Y-108607142D01*
X146996428Y-108535714D01*
X146960714Y-108392857D01*
X146960714Y-108285714D01*
X146996428Y-108142857D01*
X147032142Y-108071428D01*
X147103571Y-108000000D01*
X147210714Y-107964285D01*
X147282142Y-107964285D01*
X147389285Y-108000000D01*
X147425000Y-108035714D01*
X147853571Y-108285714D02*
X147782142Y-108250000D01*
X147746428Y-108214285D01*
X147710714Y-108142857D01*
X147710714Y-108107142D01*
X147746428Y-108035714D01*
X147782142Y-108000000D01*
X147853571Y-107964285D01*
X147996428Y-107964285D01*
X148067857Y-108000000D01*
X148103571Y-108035714D01*
X148139285Y-108107142D01*
X148139285Y-108142857D01*
X148103571Y-108214285D01*
X148067857Y-108250000D01*
X147996428Y-108285714D01*
X147853571Y-108285714D01*
X147782142Y-108321428D01*
X147746428Y-108357142D01*
X147710714Y-108428571D01*
X147710714Y-108571428D01*
X147746428Y-108642857D01*
X147782142Y-108678571D01*
X147853571Y-108714285D01*
X147996428Y-108714285D01*
X148067857Y-108678571D01*
X148103571Y-108642857D01*
X148139285Y-108571428D01*
X148139285Y-108428571D01*
X148103571Y-108357142D01*
X148067857Y-108321428D01*
X147996428Y-108285714D01*
X161114285Y-100300000D02*
X160757142Y-100550000D01*
X161114285Y-100728571D02*
X160364285Y-100728571D01*
X160364285Y-100442857D01*
X160400000Y-100371428D01*
X160435714Y-100335714D01*
X160507142Y-100300000D01*
X160614285Y-100300000D01*
X160685714Y-100335714D01*
X160721428Y-100371428D01*
X160757142Y-100442857D01*
X160757142Y-100728571D01*
X160435714Y-100014285D02*
X160400000Y-99978571D01*
X160364285Y-99907142D01*
X160364285Y-99728571D01*
X160400000Y-99657142D01*
X160435714Y-99621428D01*
X160507142Y-99585714D01*
X160578571Y-99585714D01*
X160685714Y-99621428D01*
X161114285Y-100050000D01*
X161114285Y-99585714D01*
X158850000Y-109367857D02*
X158814285Y-109403571D01*
X158707142Y-109439285D01*
X158635714Y-109439285D01*
X158528571Y-109403571D01*
X158457142Y-109332142D01*
X158421428Y-109260714D01*
X158385714Y-109117857D01*
X158385714Y-109010714D01*
X158421428Y-108867857D01*
X158457142Y-108796428D01*
X158528571Y-108725000D01*
X158635714Y-108689285D01*
X158707142Y-108689285D01*
X158814285Y-108725000D01*
X158850000Y-108760714D01*
X159492857Y-108689285D02*
X159350000Y-108689285D01*
X159278571Y-108725000D01*
X159242857Y-108760714D01*
X159171428Y-108867857D01*
X159135714Y-109010714D01*
X159135714Y-109296428D01*
X159171428Y-109367857D01*
X159207142Y-109403571D01*
X159278571Y-109439285D01*
X159421428Y-109439285D01*
X159492857Y-109403571D01*
X159528571Y-109367857D01*
X159564285Y-109296428D01*
X159564285Y-109117857D01*
X159528571Y-109046428D01*
X159492857Y-109010714D01*
X159421428Y-108975000D01*
X159278571Y-108975000D01*
X159207142Y-109010714D01*
X159171428Y-109046428D01*
X159135714Y-109117857D01*
X156225000Y-104514285D02*
X155975000Y-104157142D01*
X155796428Y-104514285D02*
X155796428Y-103764285D01*
X156082142Y-103764285D01*
X156153571Y-103800000D01*
X156189285Y-103835714D01*
X156225000Y-103907142D01*
X156225000Y-104014285D01*
X156189285Y-104085714D01*
X156153571Y-104121428D01*
X156082142Y-104157142D01*
X155796428Y-104157142D01*
X156867857Y-104014285D02*
X156867857Y-104514285D01*
X156689285Y-103728571D02*
X156510714Y-104264285D01*
X156975000Y-104264285D01*
X152278571Y-110539285D02*
X152278571Y-111146428D01*
X152314285Y-111217857D01*
X152350000Y-111253571D01*
X152421428Y-111289285D01*
X152564285Y-111289285D01*
X152635714Y-111253571D01*
X152671428Y-111217857D01*
X152707142Y-111146428D01*
X152707142Y-110539285D01*
X153028571Y-110610714D02*
X153064285Y-110575000D01*
X153135714Y-110539285D01*
X153314285Y-110539285D01*
X153385714Y-110575000D01*
X153421428Y-110610714D01*
X153457142Y-110682142D01*
X153457142Y-110753571D01*
X153421428Y-110860714D01*
X152992857Y-111289285D01*
X153457142Y-111289285D01*
X152253571Y-106739285D02*
X152003571Y-106382142D01*
X151825000Y-106739285D02*
X151825000Y-105989285D01*
X152110714Y-105989285D01*
X152182142Y-106025000D01*
X152217857Y-106060714D01*
X152253571Y-106132142D01*
X152253571Y-106239285D01*
X152217857Y-106310714D01*
X152182142Y-106346428D01*
X152110714Y-106382142D01*
X151825000Y-106382142D01*
X152575000Y-106739285D02*
X152575000Y-105989285D01*
X152860714Y-105989285D01*
X152932142Y-106025000D01*
X152967857Y-106060714D01*
X153003571Y-106132142D01*
X153003571Y-106239285D01*
X152967857Y-106310714D01*
X152932142Y-106346428D01*
X152860714Y-106382142D01*
X152575000Y-106382142D01*
X153289285Y-106060714D02*
X153325000Y-106025000D01*
X153396428Y-105989285D01*
X153575000Y-105989285D01*
X153646428Y-106025000D01*
X153682142Y-106060714D01*
X153717857Y-106132142D01*
X153717857Y-106203571D01*
X153682142Y-106310714D01*
X153253571Y-106739285D01*
X153717857Y-106739285D01*
X154182142Y-105989285D02*
X154253571Y-105989285D01*
X154325000Y-106025000D01*
X154360714Y-106060714D01*
X154396428Y-106132142D01*
X154432142Y-106275000D01*
X154432142Y-106453571D01*
X154396428Y-106596428D01*
X154360714Y-106667857D01*
X154325000Y-106703571D01*
X154253571Y-106739285D01*
X154182142Y-106739285D01*
X154110714Y-106703571D01*
X154075000Y-106667857D01*
X154039285Y-106596428D01*
X154003571Y-106453571D01*
X154003571Y-106275000D01*
X154039285Y-106132142D01*
X154075000Y-106060714D01*
X154110714Y-106025000D01*
X154182142Y-105989285D01*
X155075000Y-106239285D02*
X155075000Y-106739285D01*
X154896428Y-105953571D02*
X154717857Y-106489285D01*
X155182142Y-106489285D01*
X155610714Y-105989285D02*
X155682142Y-105989285D01*
X155753571Y-106025000D01*
X155789285Y-106060714D01*
X155825000Y-106132142D01*
X155860714Y-106275000D01*
X155860714Y-106453571D01*
X155825000Y-106596428D01*
X155789285Y-106667857D01*
X155753571Y-106703571D01*
X155682142Y-106739285D01*
X155610714Y-106739285D01*
X155539285Y-106703571D01*
X155503571Y-106667857D01*
X155467857Y-106596428D01*
X155432142Y-106453571D01*
X155432142Y-106275000D01*
X155467857Y-106132142D01*
X155503571Y-106060714D01*
X155539285Y-106025000D01*
X155610714Y-105989285D01*
X150500000Y-104252380D02*
X150500000Y-104490476D01*
X150261904Y-104395238D02*
X150500000Y-104490476D01*
X150738095Y-104395238D01*
X150357142Y-104680952D02*
X150500000Y-104490476D01*
X150642857Y-104680952D01*
X152742857Y-100082142D02*
X152742857Y-100439285D01*
X152492857Y-99689285D02*
X152742857Y-100082142D01*
X152992857Y-99689285D01*
X153635714Y-100439285D02*
X153207142Y-100439285D01*
X153421428Y-100439285D02*
X153421428Y-99689285D01*
X153350000Y-99796428D01*
X153278571Y-99867857D01*
X153207142Y-99903571D01*
X146375000Y-112592857D02*
X146339285Y-112628571D01*
X146232142Y-112664285D01*
X146160714Y-112664285D01*
X146053571Y-112628571D01*
X145982142Y-112557142D01*
X145946428Y-112485714D01*
X145910714Y-112342857D01*
X145910714Y-112235714D01*
X145946428Y-112092857D01*
X145982142Y-112021428D01*
X146053571Y-111950000D01*
X146160714Y-111914285D01*
X146232142Y-111914285D01*
X146339285Y-111950000D01*
X146375000Y-111985714D01*
X146625000Y-111914285D02*
X147125000Y-111914285D01*
X146803571Y-112664285D01*
X149275000Y-96067857D02*
X149239285Y-96103571D01*
X149132142Y-96139285D01*
X149060714Y-96139285D01*
X148953571Y-96103571D01*
X148882142Y-96032142D01*
X148846428Y-95960714D01*
X148810714Y-95817857D01*
X148810714Y-95710714D01*
X148846428Y-95567857D01*
X148882142Y-95496428D01*
X148953571Y-95425000D01*
X149060714Y-95389285D01*
X149132142Y-95389285D01*
X149239285Y-95425000D01*
X149275000Y-95460714D01*
X149989285Y-96139285D02*
X149560714Y-96139285D01*
X149775000Y-96139285D02*
X149775000Y-95389285D01*
X149703571Y-95496428D01*
X149632142Y-95567857D01*
X149560714Y-95603571D01*
X152250000Y-96067857D02*
X152214285Y-96103571D01*
X152107142Y-96139285D01*
X152035714Y-96139285D01*
X151928571Y-96103571D01*
X151857142Y-96032142D01*
X151821428Y-95960714D01*
X151785714Y-95817857D01*
X151785714Y-95710714D01*
X151821428Y-95567857D01*
X151857142Y-95496428D01*
X151928571Y-95425000D01*
X152035714Y-95389285D01*
X152107142Y-95389285D01*
X152214285Y-95425000D01*
X152250000Y-95460714D01*
X152535714Y-95460714D02*
X152571428Y-95425000D01*
X152642857Y-95389285D01*
X152821428Y-95389285D01*
X152892857Y-95425000D01*
X152928571Y-95460714D01*
X152964285Y-95532142D01*
X152964285Y-95603571D01*
X152928571Y-95710714D01*
X152500000Y-96139285D01*
X152964285Y-96139285D01*
D15*
X156037742Y-97147500D02*
X156512258Y-97147500D01*
X156037742Y-96102500D02*
X156512258Y-96102500D01*
X158685000Y-104465580D02*
X158685000Y-104184420D01*
X157665000Y-104465580D02*
X157665000Y-104184420D01*
X154463781Y-113539970D02*
X154264970Y-113738781D01*
X155185030Y-114261219D02*
X154986219Y-114460030D01*
X144412742Y-95602500D02*
X144887258Y-95602500D01*
X144412742Y-96647500D02*
X144887258Y-96647500D01*
X157135030Y-114261219D02*
X156936219Y-114460030D01*
X156413781Y-113539970D02*
X156214970Y-113738781D01*
X141777500Y-96962742D02*
X141777500Y-97437258D01*
X142822500Y-96962742D02*
X142822500Y-97437258D01*
X157677500Y-99512258D02*
X157677500Y-99037742D01*
X158722500Y-99512258D02*
X158722500Y-99037742D01*
X158784420Y-101565000D02*
X159065580Y-101565000D01*
X158784420Y-102585000D02*
X159065580Y-102585000D01*
D10*
X142870000Y-104325000D02*
X142870000Y-98825000D01*
X148380000Y-104325000D02*
X148080000Y-104325000D01*
X142870000Y-104325000D02*
X143075000Y-104325000D01*
X148380000Y-98825000D02*
X148080000Y-98825000D01*
X143075000Y-104325000D02*
X143075000Y-106075000D01*
X148380000Y-104325000D02*
X148380000Y-98825000D01*
X142870000Y-98825000D02*
X143170000Y-98825000D01*
D16*
X139600000Y-117000000D02*
X139700000Y-117150000D01*
X139700000Y-117150000D02*
X140700000Y-117290000D01*
X140700000Y-117290000D02*
X140900000Y-117050000D01*
X140900000Y-117050000D02*
X140900000Y-116350000D01*
X140900000Y-116350000D02*
X140750000Y-116110000D01*
X140750000Y-116110000D02*
X139800000Y-116110000D01*
X139800000Y-116110000D02*
X139600000Y-116300000D01*
X139600000Y-116300000D02*
X139850000Y-116310000D01*
X139850000Y-116310000D02*
X139890000Y-116290000D01*
X139890000Y-116290000D02*
X139950000Y-116280000D01*
X139950000Y-116280000D02*
X140000000Y-116300000D01*
X140000000Y-116300000D02*
X140020000Y-116340000D01*
X140020000Y-116340000D02*
X140250000Y-116460000D01*
X140250000Y-116460000D02*
X140270000Y-116400000D01*
X140270000Y-116400000D02*
X140300000Y-116360000D01*
X140300000Y-116360000D02*
X140330000Y-116310000D01*
X140330000Y-116310000D02*
X140380000Y-116290000D01*
X140380000Y-116290000D02*
X140430000Y-116260000D01*
X140430000Y-116260000D02*
X140490000Y-116250000D01*
X140490000Y-116250000D02*
X140560000Y-116250000D01*
X140560000Y-116250000D02*
X140610000Y-116260000D01*
X140610000Y-116260000D02*
X140670000Y-116280000D01*
X140670000Y-116280000D02*
X140720000Y-116320000D01*
X140720000Y-116320000D02*
X140760000Y-116360000D01*
X140760000Y-116360000D02*
X140790000Y-116410000D01*
X140790000Y-116410000D02*
X140810000Y-116460000D01*
X140810000Y-116460000D02*
X140830000Y-116520000D01*
X140830000Y-116520000D02*
X140840000Y-116580000D01*
X140840000Y-116580000D02*
X140840000Y-116640000D01*
X140840000Y-116640000D02*
X140850000Y-116700000D01*
X140850000Y-116700000D02*
X140840000Y-116770000D01*
X140840000Y-116770000D02*
X140830000Y-116830000D01*
X140830000Y-116830000D02*
X140820000Y-116890000D01*
X140820000Y-116890000D02*
X140800000Y-116940000D01*
X140800000Y-116940000D02*
X140770000Y-116980000D01*
X140770000Y-116980000D02*
X140740000Y-117030000D01*
X140740000Y-117030000D02*
X140700000Y-117070000D01*
X140700000Y-117070000D02*
X140650000Y-117090000D01*
X140650000Y-117090000D02*
X140590000Y-117110000D01*
X140590000Y-117110000D02*
X140530000Y-117110000D01*
X140530000Y-117110000D02*
X140470000Y-117110000D01*
X140470000Y-117110000D02*
X140410000Y-117090000D01*
X140410000Y-117090000D02*
X140360000Y-117070000D01*
X140360000Y-117070000D02*
X140310000Y-117030000D01*
X140310000Y-117030000D02*
X140280000Y-116990000D01*
X140280000Y-116990000D02*
X140250000Y-116930000D01*
X140250000Y-116930000D02*
X140230000Y-116880000D01*
X140230000Y-116880000D02*
X140220000Y-116820000D01*
X140220000Y-116820000D02*
X140210000Y-116760000D01*
X140210000Y-116760000D02*
X140210000Y-116700000D01*
X140210000Y-116700000D02*
X140210000Y-116630000D01*
X140210000Y-116630000D02*
X140220000Y-116570000D01*
X140220000Y-116570000D02*
X140230000Y-116520000D01*
X140230000Y-116520000D02*
X140250000Y-116460000D01*
X140250000Y-116460000D02*
X140020000Y-116340000D01*
X140020000Y-116340000D02*
X140020000Y-117060000D01*
X140020000Y-117060000D02*
X140000000Y-117100000D01*
X140000000Y-117100000D02*
X139940000Y-117110000D01*
X139940000Y-117110000D02*
X139860000Y-117110000D01*
X139860000Y-117110000D02*
X139830000Y-117070000D01*
X139830000Y-117070000D02*
X139820000Y-117020000D01*
X139820000Y-117020000D02*
X139820000Y-116660000D01*
X139820000Y-116660000D02*
X139810000Y-116620000D01*
X139810000Y-116620000D02*
X139760000Y-116650000D01*
X139760000Y-116650000D02*
X139710000Y-116660000D01*
X139710000Y-116660000D02*
X139660000Y-116620000D01*
X139660000Y-116620000D02*
X139630000Y-116560000D01*
X139630000Y-116560000D02*
X139630000Y-116520000D01*
X139630000Y-116520000D02*
X139680000Y-116470000D01*
X139680000Y-116470000D02*
X139850000Y-116310000D01*
X139850000Y-116310000D02*
X139600000Y-116300000D01*
X139600000Y-116300000D02*
X139600000Y-117000000D01*
G36*
X140750000Y-116110000D02*
G01*
X140900000Y-116350000D01*
X140900000Y-117050000D01*
X140700000Y-117290000D01*
X139700000Y-117150000D01*
X139600000Y-117000000D01*
X139600000Y-116560000D01*
X139630000Y-116560000D01*
X139660000Y-116620000D01*
X139710000Y-116660000D01*
X139760000Y-116650000D01*
X139810000Y-116620000D01*
X139820000Y-116660000D01*
X139820000Y-117020000D01*
X139830000Y-117070000D01*
X139860000Y-117110000D01*
X139940000Y-117110000D01*
X140000000Y-117100000D01*
X140020000Y-117060000D01*
X140020000Y-116760000D01*
X140210000Y-116760000D01*
X140230000Y-116880000D01*
X140250000Y-116930000D01*
X140280000Y-116990000D01*
X140310000Y-117030000D01*
X140360000Y-117070000D01*
X140410000Y-117090000D01*
X140470000Y-117110000D01*
X140590000Y-117110000D01*
X140650000Y-117090000D01*
X140700000Y-117070000D01*
X140740000Y-117030000D01*
X140770000Y-116980000D01*
X140800000Y-116940000D01*
X140820000Y-116890000D01*
X140840000Y-116770000D01*
X140850000Y-116700000D01*
X140840000Y-116640000D01*
X140840000Y-116580000D01*
X140830000Y-116520000D01*
X140810000Y-116460000D01*
X140790000Y-116410000D01*
X140760000Y-116360000D01*
X140720000Y-116320000D01*
X140670000Y-116280000D01*
X140610000Y-116260000D01*
X140560000Y-116250000D01*
X140490000Y-116250000D01*
X140430000Y-116260000D01*
X140380000Y-116290000D01*
X140330000Y-116310000D01*
X140300000Y-116360000D01*
X140270000Y-116400000D01*
X140230000Y-116520000D01*
X140220000Y-116570000D01*
X140210000Y-116630000D01*
X140210000Y-116760000D01*
X140020000Y-116760000D01*
X140020000Y-116340000D01*
X140000000Y-116300000D01*
X139950000Y-116280000D01*
X139890000Y-116290000D01*
X139850000Y-116310000D01*
X139680000Y-116470000D01*
X139630000Y-116520000D01*
X139630000Y-116560000D01*
X139600000Y-116560000D01*
X139600000Y-116300000D01*
X139800000Y-116110000D01*
X140750000Y-116110000D01*
G37*
X140750000Y-116110000D02*
X140900000Y-116350000D01*
X140900000Y-117050000D01*
X140700000Y-117290000D01*
X139700000Y-117150000D01*
X139600000Y-117000000D01*
X139600000Y-116560000D01*
X139630000Y-116560000D01*
X139660000Y-116620000D01*
X139710000Y-116660000D01*
X139760000Y-116650000D01*
X139810000Y-116620000D01*
X139820000Y-116660000D01*
X139820000Y-117020000D01*
X139830000Y-117070000D01*
X139860000Y-117110000D01*
X139940000Y-117110000D01*
X140000000Y-117100000D01*
X140020000Y-117060000D01*
X140020000Y-116760000D01*
X140210000Y-116760000D01*
X140230000Y-116880000D01*
X140250000Y-116930000D01*
X140280000Y-116990000D01*
X140310000Y-117030000D01*
X140360000Y-117070000D01*
X140410000Y-117090000D01*
X140470000Y-117110000D01*
X140590000Y-117110000D01*
X140650000Y-117090000D01*
X140700000Y-117070000D01*
X140740000Y-117030000D01*
X140770000Y-116980000D01*
X140800000Y-116940000D01*
X140820000Y-116890000D01*
X140840000Y-116770000D01*
X140850000Y-116700000D01*
X140840000Y-116640000D01*
X140840000Y-116580000D01*
X140830000Y-116520000D01*
X140810000Y-116460000D01*
X140790000Y-116410000D01*
X140760000Y-116360000D01*
X140720000Y-116320000D01*
X140670000Y-116280000D01*
X140610000Y-116260000D01*
X140560000Y-116250000D01*
X140490000Y-116250000D01*
X140430000Y-116260000D01*
X140380000Y-116290000D01*
X140330000Y-116310000D01*
X140300000Y-116360000D01*
X140270000Y-116400000D01*
X140230000Y-116520000D01*
X140220000Y-116570000D01*
X140210000Y-116630000D01*
X140210000Y-116760000D01*
X140020000Y-116760000D01*
X140020000Y-116340000D01*
X140000000Y-116300000D01*
X139950000Y-116280000D01*
X139890000Y-116290000D01*
X139850000Y-116310000D01*
X139680000Y-116470000D01*
X139630000Y-116520000D01*
X139630000Y-116560000D01*
X139600000Y-116560000D01*
X139600000Y-116300000D01*
X139800000Y-116110000D01*
X140750000Y-116110000D01*
X140530000Y-116910000D02*
X140570000Y-116900000D01*
X140570000Y-116900000D02*
X140610000Y-116870000D01*
X140610000Y-116870000D02*
X140630000Y-116820000D01*
X140630000Y-116820000D02*
X140640000Y-116750000D01*
X140640000Y-116750000D02*
X140640000Y-116670000D01*
X140640000Y-116670000D02*
X140640000Y-116580000D01*
X140640000Y-116580000D02*
X140620000Y-116520000D01*
X140620000Y-116520000D02*
X140590000Y-116480000D01*
X140590000Y-116480000D02*
X140560000Y-116460000D01*
X140560000Y-116460000D02*
X140510000Y-116450000D01*
X140510000Y-116450000D02*
X140470000Y-116470000D01*
X140470000Y-116470000D02*
X140440000Y-116500000D01*
X140440000Y-116500000D02*
X140420000Y-116560000D01*
X140420000Y-116560000D02*
X140410000Y-116630000D01*
X140410000Y-116630000D02*
X140410000Y-116720000D01*
X140410000Y-116720000D02*
X140420000Y-116800000D01*
X140420000Y-116800000D02*
X140440000Y-116860000D01*
X140440000Y-116860000D02*
X140470000Y-116890000D01*
X140470000Y-116890000D02*
X140510000Y-116910000D01*
X140510000Y-116910000D02*
X140530000Y-116910000D01*
X140530000Y-116910000D02*
X140530000Y-116910000D01*
G36*
X140560000Y-116460000D02*
G01*
X140590000Y-116480000D01*
X140620000Y-116520000D01*
X140640000Y-116580000D01*
X140640000Y-116750000D01*
X140630000Y-116820000D01*
X140610000Y-116870000D01*
X140570000Y-116900000D01*
X140530000Y-116910000D01*
X140510000Y-116910000D01*
X140470000Y-116890000D01*
X140440000Y-116860000D01*
X140420000Y-116800000D01*
X140410000Y-116720000D01*
X140410000Y-116630000D01*
X140420000Y-116560000D01*
X140440000Y-116500000D01*
X140470000Y-116470000D01*
X140510000Y-116450000D01*
X140560000Y-116460000D01*
G37*
X140560000Y-116460000D02*
X140590000Y-116480000D01*
X140620000Y-116520000D01*
X140640000Y-116580000D01*
X140640000Y-116750000D01*
X140630000Y-116820000D01*
X140610000Y-116870000D01*
X140570000Y-116900000D01*
X140530000Y-116910000D01*
X140510000Y-116910000D01*
X140470000Y-116890000D01*
X140440000Y-116860000D01*
X140420000Y-116800000D01*
X140410000Y-116720000D01*
X140410000Y-116630000D01*
X140420000Y-116560000D01*
X140440000Y-116500000D01*
X140470000Y-116470000D01*
X140510000Y-116450000D01*
X140560000Y-116460000D01*
D15*
X152513781Y-113539970D02*
X152314970Y-113738781D01*
X153235030Y-114261219D02*
X153036219Y-114460030D01*
D16*
X139970000Y-93790000D02*
X139770000Y-93790000D01*
X139770000Y-93790000D02*
X139750000Y-93820000D01*
X139750000Y-93820000D02*
X139750000Y-94780000D01*
X139750000Y-94780000D02*
X139770000Y-94810000D01*
X139770000Y-94810000D02*
X140940000Y-94810000D01*
X140940000Y-94810000D02*
X140950000Y-94770000D01*
X140950000Y-94770000D02*
X140950000Y-93810000D01*
X140950000Y-93810000D02*
X140910000Y-93790000D01*
X140910000Y-93790000D02*
X140000000Y-93790000D01*
X140000000Y-93790000D02*
X140130000Y-93970000D01*
X140130000Y-93970000D02*
X140170000Y-93950000D01*
X140170000Y-93950000D02*
X140220000Y-93930000D01*
X140220000Y-93930000D02*
X140270000Y-93920000D01*
X140270000Y-93920000D02*
X140320000Y-93910000D01*
X140320000Y-93910000D02*
X140370000Y-93920000D01*
X140370000Y-93920000D02*
X140420000Y-93940000D01*
X140420000Y-93940000D02*
X140460000Y-93970000D01*
X140460000Y-93970000D02*
X140490000Y-94010000D01*
X140490000Y-94010000D02*
X140520000Y-94050000D01*
X140520000Y-94050000D02*
X140540000Y-94100000D01*
X140540000Y-94100000D02*
X140550000Y-94150000D01*
X140550000Y-94150000D02*
X140560000Y-94190000D01*
X140560000Y-94190000D02*
X140570000Y-94250000D01*
X140570000Y-94250000D02*
X140570000Y-94300000D01*
X140570000Y-94300000D02*
X140570000Y-94360000D01*
X140570000Y-94360000D02*
X140560000Y-94410000D01*
X140560000Y-94410000D02*
X140550000Y-94460000D01*
X140550000Y-94460000D02*
X140530000Y-94500000D01*
X140530000Y-94500000D02*
X140510000Y-94540000D01*
X140510000Y-94540000D02*
X140480000Y-94580000D01*
X140480000Y-94580000D02*
X140440000Y-94610000D01*
X140440000Y-94610000D02*
X140400000Y-94640000D01*
X140400000Y-94640000D02*
X140350000Y-94650000D01*
X140350000Y-94650000D02*
X140300000Y-94660000D01*
X140300000Y-94660000D02*
X140250000Y-94650000D01*
X140250000Y-94650000D02*
X140200000Y-94640000D01*
X140200000Y-94640000D02*
X140150000Y-94610000D01*
X140150000Y-94610000D02*
X140110000Y-94580000D01*
X140110000Y-94580000D02*
X140090000Y-94550000D01*
X140090000Y-94550000D02*
X140060000Y-94500000D01*
X140060000Y-94500000D02*
X140050000Y-94450000D01*
X140050000Y-94450000D02*
X140040000Y-94410000D01*
X140040000Y-94410000D02*
X140030000Y-94360000D01*
X140030000Y-94360000D02*
X140030000Y-94300000D01*
X140030000Y-94300000D02*
X140030000Y-94250000D01*
X140030000Y-94250000D02*
X140030000Y-94190000D01*
X140030000Y-94190000D02*
X140040000Y-94150000D01*
X140040000Y-94150000D02*
X140060000Y-94100000D01*
X140060000Y-94100000D02*
X140080000Y-94050000D01*
X140080000Y-94050000D02*
X140100000Y-94010000D01*
X140100000Y-94010000D02*
X140130000Y-93970000D01*
X140130000Y-93970000D02*
X140000000Y-93790000D01*
X140000000Y-93790000D02*
X139970000Y-93790000D01*
X139970000Y-93790000D02*
X139970000Y-93790000D01*
G36*
X140950000Y-93810000D02*
G01*
X140950000Y-94770000D01*
X140940000Y-94810000D01*
X139770000Y-94810000D01*
X139750000Y-94780000D01*
X139750000Y-94360000D01*
X140030000Y-94360000D01*
X140040000Y-94410000D01*
X140050000Y-94450000D01*
X140060000Y-94500000D01*
X140090000Y-94550000D01*
X140110000Y-94580000D01*
X140150000Y-94610000D01*
X140200000Y-94640000D01*
X140300000Y-94660000D01*
X140400000Y-94640000D01*
X140480000Y-94580000D01*
X140510000Y-94540000D01*
X140550000Y-94460000D01*
X140570000Y-94360000D01*
X140570000Y-94250000D01*
X140560000Y-94190000D01*
X140550000Y-94150000D01*
X140540000Y-94100000D01*
X140520000Y-94050000D01*
X140460000Y-93970000D01*
X140420000Y-93940000D01*
X140370000Y-93920000D01*
X140320000Y-93910000D01*
X140220000Y-93930000D01*
X140170000Y-93950000D01*
X140130000Y-93970000D01*
X140100000Y-94010000D01*
X140080000Y-94050000D01*
X140040000Y-94150000D01*
X140030000Y-94190000D01*
X140030000Y-94360000D01*
X139750000Y-94360000D01*
X139750000Y-93820000D01*
X139770000Y-93790000D01*
X140910000Y-93790000D01*
X140950000Y-93810000D01*
G37*
X140950000Y-93810000D02*
X140950000Y-94770000D01*
X140940000Y-94810000D01*
X139770000Y-94810000D01*
X139750000Y-94780000D01*
X139750000Y-94360000D01*
X140030000Y-94360000D01*
X140040000Y-94410000D01*
X140050000Y-94450000D01*
X140060000Y-94500000D01*
X140090000Y-94550000D01*
X140110000Y-94580000D01*
X140150000Y-94610000D01*
X140200000Y-94640000D01*
X140300000Y-94660000D01*
X140400000Y-94640000D01*
X140480000Y-94580000D01*
X140510000Y-94540000D01*
X140550000Y-94460000D01*
X140570000Y-94360000D01*
X140570000Y-94250000D01*
X140560000Y-94190000D01*
X140550000Y-94150000D01*
X140540000Y-94100000D01*
X140520000Y-94050000D01*
X140460000Y-93970000D01*
X140420000Y-93940000D01*
X140370000Y-93920000D01*
X140320000Y-93910000D01*
X140220000Y-93930000D01*
X140170000Y-93950000D01*
X140130000Y-93970000D01*
X140100000Y-94010000D01*
X140080000Y-94050000D01*
X140040000Y-94150000D01*
X140030000Y-94190000D01*
X140030000Y-94360000D01*
X139750000Y-94360000D01*
X139750000Y-93820000D01*
X139770000Y-93790000D01*
X140910000Y-93790000D01*
X140950000Y-93810000D01*
X140300000Y-94480000D02*
X140340000Y-94470000D01*
X140340000Y-94470000D02*
X140360000Y-94450000D01*
X140360000Y-94450000D02*
X140380000Y-94410000D01*
X140380000Y-94410000D02*
X140400000Y-94350000D01*
X140400000Y-94350000D02*
X140400000Y-94270000D01*
X140400000Y-94270000D02*
X140390000Y-94200000D01*
X140390000Y-94200000D02*
X140380000Y-94150000D01*
X140380000Y-94150000D02*
X140360000Y-94110000D01*
X140360000Y-94110000D02*
X140330000Y-94090000D01*
X140330000Y-94090000D02*
X140290000Y-94090000D01*
X140290000Y-94090000D02*
X140250000Y-94100000D01*
X140250000Y-94100000D02*
X140230000Y-94130000D01*
X140230000Y-94130000D02*
X140210000Y-94180000D01*
X140210000Y-94180000D02*
X140200000Y-94240000D01*
X140200000Y-94240000D02*
X140200000Y-94320000D01*
X140200000Y-94320000D02*
X140210000Y-94380000D01*
X140210000Y-94380000D02*
X140220000Y-94430000D01*
X140220000Y-94430000D02*
X140250000Y-94470000D01*
X140250000Y-94470000D02*
X140280000Y-94480000D01*
X140280000Y-94480000D02*
X140300000Y-94480000D01*
X140300000Y-94480000D02*
X140300000Y-94480000D01*
G36*
X140360000Y-94110000D02*
G01*
X140380000Y-94150000D01*
X140390000Y-94200000D01*
X140400000Y-94270000D01*
X140400000Y-94350000D01*
X140380000Y-94410000D01*
X140360000Y-94450000D01*
X140340000Y-94470000D01*
X140300000Y-94480000D01*
X140280000Y-94480000D01*
X140250000Y-94470000D01*
X140220000Y-94430000D01*
X140210000Y-94380000D01*
X140200000Y-94320000D01*
X140200000Y-94240000D01*
X140210000Y-94180000D01*
X140230000Y-94130000D01*
X140250000Y-94100000D01*
X140290000Y-94090000D01*
X140330000Y-94090000D01*
X140360000Y-94110000D01*
G37*
X140360000Y-94110000D02*
X140380000Y-94150000D01*
X140390000Y-94200000D01*
X140400000Y-94270000D01*
X140400000Y-94350000D01*
X140380000Y-94410000D01*
X140360000Y-94450000D01*
X140340000Y-94470000D01*
X140300000Y-94480000D01*
X140280000Y-94480000D01*
X140250000Y-94470000D01*
X140220000Y-94430000D01*
X140210000Y-94380000D01*
X140200000Y-94320000D01*
X140200000Y-94240000D01*
X140210000Y-94180000D01*
X140230000Y-94130000D01*
X140250000Y-94100000D01*
X140290000Y-94090000D01*
X140330000Y-94090000D01*
X140360000Y-94110000D01*
D15*
X159090000Y-105490580D02*
X159090000Y-105209420D01*
X160110000Y-105490580D02*
X160110000Y-105209420D01*
X146815580Y-106815000D02*
X146534420Y-106815000D01*
X146815580Y-107835000D02*
X146534420Y-107835000D01*
X159052500Y-99512258D02*
X159052500Y-99037742D01*
X160097500Y-99512258D02*
X160097500Y-99037742D01*
X159734420Y-109565000D02*
X160015580Y-109565000D01*
X159734420Y-110585000D02*
X160015580Y-110585000D01*
X155412258Y-102627500D02*
X154937742Y-102627500D01*
X155412258Y-103672500D02*
X154937742Y-103672500D01*
X150267800Y-111672040D02*
X150267800Y-112282200D01*
X157532200Y-105627960D02*
X157532200Y-105017800D01*
X150267800Y-112282200D02*
X150877960Y-112282200D01*
X150877960Y-105017800D02*
X150267800Y-105017800D01*
X157532200Y-105017800D02*
X156922040Y-105017800D01*
X156922040Y-112282200D02*
X157532200Y-112282200D01*
X157532200Y-112282200D02*
X157532200Y-111672040D01*
X150267800Y-105017800D02*
X150267800Y-105627960D01*
D14*
X158213199Y-110659501D02*
X158213199Y-111040501D01*
X158213199Y-111040501D02*
X157959199Y-111040501D01*
X157959199Y-111040501D02*
X157959199Y-110659501D01*
X157959199Y-110659501D02*
X158213199Y-110659501D01*
G36*
X158213199Y-111040501D02*
G01*
X157959199Y-111040501D01*
X157959199Y-110659501D01*
X158213199Y-110659501D01*
X158213199Y-111040501D01*
G37*
X158213199Y-111040501D02*
X157959199Y-111040501D01*
X157959199Y-110659501D01*
X158213199Y-110659501D01*
X158213199Y-111040501D01*
X151109501Y-112709199D02*
X151109501Y-112963199D01*
X151109501Y-112963199D02*
X151490501Y-112963199D01*
X151490501Y-112963199D02*
X151490501Y-112709199D01*
X151490501Y-112709199D02*
X151109501Y-112709199D01*
G36*
X151490501Y-112963199D02*
G01*
X151109501Y-112963199D01*
X151109501Y-112709199D01*
X151490501Y-112709199D01*
X151490501Y-112963199D01*
G37*
X151490501Y-112963199D02*
X151109501Y-112963199D01*
X151109501Y-112709199D01*
X151490501Y-112709199D01*
X151490501Y-112963199D01*
X158213199Y-106659501D02*
X158213199Y-107040501D01*
X158213199Y-107040501D02*
X157959199Y-107040501D01*
X157959199Y-107040501D02*
X157959199Y-106659501D01*
X157959199Y-106659501D02*
X158213199Y-106659501D01*
G36*
X158213199Y-107040501D02*
G01*
X157959199Y-107040501D01*
X157959199Y-106659501D01*
X158213199Y-106659501D01*
X158213199Y-107040501D01*
G37*
X158213199Y-107040501D02*
X157959199Y-107040501D01*
X157959199Y-106659501D01*
X158213199Y-106659501D01*
X158213199Y-107040501D01*
X153509500Y-104590801D02*
X153509500Y-104336801D01*
X153509500Y-104336801D02*
X153890500Y-104336801D01*
X153890500Y-104336801D02*
X153890500Y-104590801D01*
X153890500Y-104590801D02*
X153509500Y-104590801D01*
G36*
X153890500Y-104590801D02*
G01*
X153509500Y-104590801D01*
X153509500Y-104336801D01*
X153890500Y-104336801D01*
X153890500Y-104590801D01*
G37*
X153890500Y-104590801D02*
X153509500Y-104590801D01*
X153509500Y-104336801D01*
X153890500Y-104336801D01*
X153890500Y-104590801D01*
X149586801Y-109459501D02*
X149586801Y-109840501D01*
X149586801Y-109840501D02*
X149840801Y-109840501D01*
X149840801Y-109840501D02*
X149840801Y-109459501D01*
X149840801Y-109459501D02*
X149586801Y-109459501D01*
G36*
X149840801Y-109840501D02*
G01*
X149586801Y-109840501D01*
X149586801Y-109459501D01*
X149840801Y-109459501D01*
X149840801Y-109840501D01*
G37*
X149840801Y-109840501D02*
X149586801Y-109840501D01*
X149586801Y-109459501D01*
X149840801Y-109459501D01*
X149840801Y-109840501D01*
D15*
X156800000Y-97900000D02*
X148900000Y-97900000D01*
X148900000Y-97900000D02*
X148900000Y-102300000D01*
X148900000Y-102300000D02*
X156800000Y-102300000D01*
X147715580Y-110765000D02*
X147434420Y-110765000D01*
X147715580Y-111785000D02*
X147434420Y-111785000D01*
X150159420Y-96240000D02*
X150440580Y-96240000D01*
X150159420Y-97260000D02*
X150440580Y-97260000D01*
X153415580Y-97260000D02*
X153134420Y-97260000D01*
X153415580Y-96240000D02*
X153134420Y-96240000D01*
D16*
X162150000Y-116110000D02*
X162000000Y-116300000D01*
X162000000Y-116300000D02*
X161900000Y-116900000D01*
X161900000Y-116900000D02*
X162050000Y-117200000D01*
X162050000Y-117200000D02*
X163250000Y-117200000D01*
X163250000Y-117200000D02*
X163500000Y-116950000D01*
X163500000Y-116950000D02*
X163500000Y-116400000D01*
X163500000Y-116400000D02*
X163200000Y-116110000D01*
X163200000Y-116110000D02*
X162150000Y-116110000D01*
X162150000Y-116110000D02*
X162130000Y-116330000D01*
X162130000Y-116330000D02*
X162180000Y-116300000D01*
X162180000Y-116300000D02*
X162230000Y-116280000D01*
X162230000Y-116280000D02*
X162300000Y-116270000D01*
X162300000Y-116270000D02*
X162360000Y-116270000D01*
X162360000Y-116270000D02*
X162420000Y-116280000D01*
X162420000Y-116280000D02*
X162470000Y-116310000D01*
X162470000Y-116310000D02*
X162520000Y-116340000D01*
X162520000Y-116340000D02*
X162560000Y-116380000D01*
X162560000Y-116380000D02*
X162590000Y-116430000D01*
X162590000Y-116430000D02*
X162610000Y-116490000D01*
X162610000Y-116490000D02*
X162620000Y-116550000D01*
X162620000Y-116550000D02*
X162620000Y-116610000D01*
X162620000Y-116610000D02*
X162840000Y-116630000D01*
X162840000Y-116630000D02*
X162840000Y-116570000D01*
X162840000Y-116570000D02*
X162850000Y-116520000D01*
X162850000Y-116520000D02*
X162870000Y-116460000D01*
X162870000Y-116460000D02*
X162900000Y-116400000D01*
X162900000Y-116400000D02*
X162920000Y-116360000D01*
X162920000Y-116360000D02*
X162950000Y-116310000D01*
X162950000Y-116310000D02*
X163010000Y-116290000D01*
X163010000Y-116290000D02*
X163060000Y-116260000D01*
X163060000Y-116260000D02*
X163120000Y-116250000D01*
X163120000Y-116250000D02*
X163180000Y-116250000D01*
X163180000Y-116250000D02*
X163240000Y-116260000D01*
X163240000Y-116260000D02*
X163290000Y-116280000D01*
X163290000Y-116280000D02*
X163340000Y-116320000D01*
X163340000Y-116320000D02*
X163380000Y-116360000D01*
X163380000Y-116360000D02*
X163410000Y-116410000D01*
X163410000Y-116410000D02*
X163430000Y-116460000D01*
X163430000Y-116460000D02*
X163450000Y-116520000D01*
X163450000Y-116520000D02*
X163460000Y-116580000D01*
X163460000Y-116580000D02*
X163470000Y-116640000D01*
X163470000Y-116640000D02*
X163470000Y-116700000D01*
X163470000Y-116700000D02*
X163470000Y-116770000D01*
X163470000Y-116770000D02*
X163460000Y-116830000D01*
X163460000Y-116830000D02*
X163440000Y-116890000D01*
X163440000Y-116890000D02*
X163420000Y-116940000D01*
X163420000Y-116940000D02*
X163400000Y-116980000D01*
X163400000Y-116980000D02*
X163360000Y-117030000D01*
X163360000Y-117030000D02*
X163320000Y-117070000D01*
X163320000Y-117070000D02*
X163270000Y-117090000D01*
X163270000Y-117090000D02*
X163210000Y-117110000D01*
X163210000Y-117110000D02*
X163150000Y-117110000D01*
X163150000Y-117110000D02*
X163090000Y-117110000D01*
X163090000Y-117110000D02*
X163030000Y-117090000D01*
X163030000Y-117090000D02*
X162980000Y-117060000D01*
X162980000Y-117060000D02*
X162930000Y-117030000D01*
X162930000Y-117030000D02*
X162900000Y-116980000D01*
X162900000Y-116980000D02*
X162880000Y-116930000D01*
X162880000Y-116930000D02*
X162860000Y-116870000D01*
X162860000Y-116870000D02*
X162850000Y-116820000D01*
X162850000Y-116820000D02*
X162840000Y-116760000D01*
X162840000Y-116760000D02*
X162840000Y-116700000D01*
X162840000Y-116700000D02*
X162840000Y-116630000D01*
X162840000Y-116630000D02*
X162620000Y-116610000D01*
X162620000Y-116610000D02*
X162610000Y-116660000D01*
X162610000Y-116660000D02*
X162590000Y-116720000D01*
X162590000Y-116720000D02*
X162550000Y-116770000D01*
X162550000Y-116770000D02*
X162510000Y-116810000D01*
X162510000Y-116810000D02*
X162460000Y-116850000D01*
X162460000Y-116850000D02*
X162410000Y-116880000D01*
X162410000Y-116880000D02*
X162360000Y-116900000D01*
X162360000Y-116900000D02*
X162390000Y-116910000D01*
X162390000Y-116910000D02*
X162510000Y-116910000D01*
X162510000Y-116910000D02*
X162600000Y-116920000D01*
X162600000Y-116920000D02*
X162650000Y-116950000D01*
X162650000Y-116950000D02*
X162660000Y-117000000D01*
X162660000Y-117000000D02*
X162650000Y-117070000D01*
X162650000Y-117070000D02*
X162620000Y-117110000D01*
X162620000Y-117110000D02*
X162560000Y-117110000D01*
X162560000Y-117110000D02*
X162150000Y-117110000D01*
X162150000Y-117110000D02*
X162090000Y-117110000D01*
X162090000Y-117110000D02*
X162040000Y-117080000D01*
X162040000Y-117080000D02*
X162010000Y-117030000D01*
X162010000Y-117030000D02*
X162020000Y-116970000D01*
X162020000Y-116970000D02*
X162040000Y-116920000D01*
X162040000Y-116920000D02*
X162080000Y-116870000D01*
X162080000Y-116870000D02*
X162130000Y-116830000D01*
X162130000Y-116830000D02*
X162280000Y-116740000D01*
X162280000Y-116740000D02*
X162330000Y-116710000D01*
X162330000Y-116710000D02*
X162370000Y-116670000D01*
X162370000Y-116670000D02*
X162410000Y-116620000D01*
X162410000Y-116620000D02*
X162420000Y-116560000D01*
X162420000Y-116560000D02*
X162400000Y-116510000D01*
X162400000Y-116510000D02*
X162350000Y-116480000D01*
X162350000Y-116480000D02*
X162290000Y-116470000D01*
X162290000Y-116470000D02*
X162240000Y-116500000D01*
X162240000Y-116500000D02*
X162220000Y-116550000D01*
X162220000Y-116550000D02*
X162210000Y-116610000D01*
X162210000Y-116610000D02*
X162190000Y-116660000D01*
X162190000Y-116660000D02*
X162140000Y-116680000D01*
X162140000Y-116680000D02*
X162060000Y-116670000D01*
X162060000Y-116670000D02*
X162020000Y-116640000D01*
X162020000Y-116640000D02*
X162010000Y-116590000D01*
X162010000Y-116590000D02*
X162020000Y-116530000D01*
X162020000Y-116530000D02*
X162030000Y-116470000D01*
X162030000Y-116470000D02*
X162050000Y-116420000D01*
X162050000Y-116420000D02*
X162090000Y-116370000D01*
X162090000Y-116370000D02*
X162130000Y-116330000D01*
X162130000Y-116330000D02*
X162200000Y-116110000D01*
X162200000Y-116110000D02*
X162150000Y-116110000D01*
X162150000Y-116110000D02*
X162150000Y-116110000D01*
G36*
X163500000Y-116400000D02*
G01*
X163500000Y-116950000D01*
X163250000Y-117200000D01*
X162050000Y-117200000D01*
X161965000Y-117030000D01*
X162010000Y-117030000D01*
X162040000Y-117080000D01*
X162090000Y-117110000D01*
X162620000Y-117110000D01*
X162650000Y-117070000D01*
X162660000Y-117000000D01*
X162650000Y-116950000D01*
X162600000Y-116920000D01*
X162510000Y-116910000D01*
X162390000Y-116910000D01*
X162360000Y-116900000D01*
X162410000Y-116880000D01*
X162460000Y-116850000D01*
X162510000Y-116810000D01*
X162550000Y-116770000D01*
X162558000Y-116760000D01*
X162840000Y-116760000D01*
X162850000Y-116820000D01*
X162860000Y-116870000D01*
X162880000Y-116930000D01*
X162900000Y-116980000D01*
X162930000Y-117030000D01*
X163030000Y-117090000D01*
X163090000Y-117110000D01*
X163210000Y-117110000D01*
X163270000Y-117090000D01*
X163320000Y-117070000D01*
X163360000Y-117030000D01*
X163400000Y-116980000D01*
X163420000Y-116940000D01*
X163440000Y-116890000D01*
X163460000Y-116830000D01*
X163470000Y-116770000D01*
X163470000Y-116640000D01*
X163450000Y-116520000D01*
X163430000Y-116460000D01*
X163410000Y-116410000D01*
X163380000Y-116360000D01*
X163340000Y-116320000D01*
X163290000Y-116280000D01*
X163240000Y-116260000D01*
X163180000Y-116250000D01*
X163120000Y-116250000D01*
X163060000Y-116260000D01*
X163010000Y-116290000D01*
X162950000Y-116310000D01*
X162920000Y-116360000D01*
X162870000Y-116460000D01*
X162850000Y-116520000D01*
X162840000Y-116570000D01*
X162840000Y-116760000D01*
X162558000Y-116760000D01*
X162590000Y-116720000D01*
X162610000Y-116660000D01*
X162620000Y-116610000D01*
X162620000Y-116550000D01*
X162610000Y-116490000D01*
X162590000Y-116430000D01*
X162560000Y-116380000D01*
X162520000Y-116340000D01*
X162420000Y-116280000D01*
X162360000Y-116270000D01*
X162300000Y-116270000D01*
X162230000Y-116280000D01*
X162180000Y-116300000D01*
X162130000Y-116330000D01*
X162090000Y-116370000D01*
X162050000Y-116420000D01*
X162030000Y-116470000D01*
X162010000Y-116590000D01*
X162020000Y-116640000D01*
X162060000Y-116670000D01*
X162140000Y-116680000D01*
X162190000Y-116660000D01*
X162210000Y-116610000D01*
X162220000Y-116550000D01*
X162240000Y-116500000D01*
X162290000Y-116470000D01*
X162350000Y-116480000D01*
X162400000Y-116510000D01*
X162420000Y-116560000D01*
X162410000Y-116620000D01*
X162370000Y-116670000D01*
X162330000Y-116710000D01*
X162130000Y-116830000D01*
X162080000Y-116870000D01*
X162040000Y-116920000D01*
X162020000Y-116970000D01*
X162010000Y-117030000D01*
X161965000Y-117030000D01*
X161900000Y-116900000D01*
X162000000Y-116300000D01*
X162150000Y-116110000D01*
X163200000Y-116110000D01*
X163500000Y-116400000D01*
G37*
X163500000Y-116400000D02*
X163500000Y-116950000D01*
X163250000Y-117200000D01*
X162050000Y-117200000D01*
X161965000Y-117030000D01*
X162010000Y-117030000D01*
X162040000Y-117080000D01*
X162090000Y-117110000D01*
X162620000Y-117110000D01*
X162650000Y-117070000D01*
X162660000Y-117000000D01*
X162650000Y-116950000D01*
X162600000Y-116920000D01*
X162510000Y-116910000D01*
X162390000Y-116910000D01*
X162360000Y-116900000D01*
X162410000Y-116880000D01*
X162460000Y-116850000D01*
X162510000Y-116810000D01*
X162550000Y-116770000D01*
X162558000Y-116760000D01*
X162840000Y-116760000D01*
X162850000Y-116820000D01*
X162860000Y-116870000D01*
X162880000Y-116930000D01*
X162900000Y-116980000D01*
X162930000Y-117030000D01*
X163030000Y-117090000D01*
X163090000Y-117110000D01*
X163210000Y-117110000D01*
X163270000Y-117090000D01*
X163320000Y-117070000D01*
X163360000Y-117030000D01*
X163400000Y-116980000D01*
X163420000Y-116940000D01*
X163440000Y-116890000D01*
X163460000Y-116830000D01*
X163470000Y-116770000D01*
X163470000Y-116640000D01*
X163450000Y-116520000D01*
X163430000Y-116460000D01*
X163410000Y-116410000D01*
X163380000Y-116360000D01*
X163340000Y-116320000D01*
X163290000Y-116280000D01*
X163240000Y-116260000D01*
X163180000Y-116250000D01*
X163120000Y-116250000D01*
X163060000Y-116260000D01*
X163010000Y-116290000D01*
X162950000Y-116310000D01*
X162920000Y-116360000D01*
X162870000Y-116460000D01*
X162850000Y-116520000D01*
X162840000Y-116570000D01*
X162840000Y-116760000D01*
X162558000Y-116760000D01*
X162590000Y-116720000D01*
X162610000Y-116660000D01*
X162620000Y-116610000D01*
X162620000Y-116550000D01*
X162610000Y-116490000D01*
X162590000Y-116430000D01*
X162560000Y-116380000D01*
X162520000Y-116340000D01*
X162420000Y-116280000D01*
X162360000Y-116270000D01*
X162300000Y-116270000D01*
X162230000Y-116280000D01*
X162180000Y-116300000D01*
X162130000Y-116330000D01*
X162090000Y-116370000D01*
X162050000Y-116420000D01*
X162030000Y-116470000D01*
X162010000Y-116590000D01*
X162020000Y-116640000D01*
X162060000Y-116670000D01*
X162140000Y-116680000D01*
X162190000Y-116660000D01*
X162210000Y-116610000D01*
X162220000Y-116550000D01*
X162240000Y-116500000D01*
X162290000Y-116470000D01*
X162350000Y-116480000D01*
X162400000Y-116510000D01*
X162420000Y-116560000D01*
X162410000Y-116620000D01*
X162370000Y-116670000D01*
X162330000Y-116710000D01*
X162130000Y-116830000D01*
X162080000Y-116870000D01*
X162040000Y-116920000D01*
X162020000Y-116970000D01*
X162010000Y-117030000D01*
X161965000Y-117030000D01*
X161900000Y-116900000D01*
X162000000Y-116300000D01*
X162150000Y-116110000D01*
X163200000Y-116110000D01*
X163500000Y-116400000D01*
X163160000Y-116910000D02*
X163200000Y-116900000D01*
X163200000Y-116900000D02*
X163230000Y-116870000D01*
X163230000Y-116870000D02*
X163250000Y-116820000D01*
X163250000Y-116820000D02*
X163270000Y-116750000D01*
X163270000Y-116750000D02*
X163270000Y-116660000D01*
X163270000Y-116660000D02*
X163260000Y-116580000D01*
X163260000Y-116580000D02*
X163240000Y-116520000D01*
X163240000Y-116520000D02*
X163220000Y-116480000D01*
X163220000Y-116480000D02*
X163180000Y-116450000D01*
X163180000Y-116450000D02*
X163140000Y-116450000D01*
X163140000Y-116450000D02*
X163100000Y-116470000D01*
X163100000Y-116470000D02*
X163070000Y-116510000D01*
X163070000Y-116510000D02*
X163050000Y-116560000D01*
X163050000Y-116560000D02*
X163040000Y-116640000D01*
X163040000Y-116640000D02*
X163040000Y-116730000D01*
X163040000Y-116730000D02*
X163050000Y-116810000D01*
X163050000Y-116810000D02*
X163070000Y-116860000D01*
X163070000Y-116860000D02*
X163100000Y-116900000D01*
X163100000Y-116900000D02*
X163140000Y-116910000D01*
X163140000Y-116910000D02*
X163160000Y-116910000D01*
X163160000Y-116910000D02*
X163160000Y-116910000D01*
G36*
X163220000Y-116480000D02*
G01*
X163240000Y-116520000D01*
X163260000Y-116580000D01*
X163270000Y-116660000D01*
X163270000Y-116750000D01*
X163250000Y-116820000D01*
X163230000Y-116870000D01*
X163200000Y-116900000D01*
X163160000Y-116910000D01*
X163140000Y-116910000D01*
X163100000Y-116900000D01*
X163070000Y-116860000D01*
X163050000Y-116810000D01*
X163040000Y-116730000D01*
X163040000Y-116640000D01*
X163050000Y-116560000D01*
X163070000Y-116510000D01*
X163100000Y-116470000D01*
X163140000Y-116450000D01*
X163180000Y-116450000D01*
X163220000Y-116480000D01*
G37*
X163220000Y-116480000D02*
X163240000Y-116520000D01*
X163260000Y-116580000D01*
X163270000Y-116660000D01*
X163270000Y-116750000D01*
X163250000Y-116820000D01*
X163230000Y-116870000D01*
X163200000Y-116900000D01*
X163160000Y-116910000D01*
X163140000Y-116910000D01*
X163100000Y-116900000D01*
X163070000Y-116860000D01*
X163050000Y-116810000D01*
X163040000Y-116730000D01*
X163040000Y-116640000D01*
X163050000Y-116560000D01*
X163070000Y-116510000D01*
X163100000Y-116470000D01*
X163140000Y-116450000D01*
X163180000Y-116450000D01*
X163220000Y-116480000D01*
M02*
