G04 #@! TF.GenerationSoftware,KiCad,Pcbnew,(6.0.0-0)*
G04 #@! TF.CreationDate,2022-05-15T17:03:53+02:00*
G04 #@! TF.ProjectId,rp2040_stamp,72703230-3430-45f7-9374-616d702e6b69,rev?*
G04 #@! TF.SameCoordinates,Original*
G04 #@! TF.FileFunction,Copper,L1,Top*
G04 #@! TF.FilePolarity,Positive*
%FSLAX46Y46*%
G04 Gerber Fmt 4.6, Leading zero omitted, Abs format (unit mm)*
G04 Created by KiCad (PCBNEW (6.0.0-0)) date 2022-05-15 17:03:53*
%MOMM*%
%LPD*%
G01*
G04 APERTURE LIST*
G04 #@! TA.AperFunction,SMDPad,CuDef*
%ADD10R,1.500000X3.000000*%
G04 #@! TD*
G04 #@! TA.AperFunction,ComponentPad*
%ADD11C,1.350000*%
G04 #@! TD*
G04 #@! TA.AperFunction,ComponentPad*
%ADD12O,1.350000X1.350000*%
G04 #@! TD*
G04 #@! TA.AperFunction,SMDPad,CuDef*
%ADD13R,0.650000X1.700000*%
G04 #@! TD*
G04 #@! TA.AperFunction,SMDPad,CuDef*
%ADD14R,3.000000X1.500000*%
G04 #@! TD*
G04 #@! TA.AperFunction,SMDPad,CuDef*
%ADD15R,0.807999X0.178600*%
G04 #@! TD*
G04 #@! TA.AperFunction,SMDPad,CuDef*
%ADD16R,0.178600X0.807999*%
G04 #@! TD*
G04 #@! TA.AperFunction,SMDPad,CuDef*
%ADD17R,3.200400X3.200400*%
G04 #@! TD*
G04 #@! TA.AperFunction,SMDPad,CuDef*
%ADD18R,2.800000X2.000000*%
G04 #@! TD*
G04 #@! TA.AperFunction,ViaPad*
%ADD19C,0.600000*%
G04 #@! TD*
G04 #@! TA.AperFunction,Conductor*
%ADD20C,0.200000*%
G04 #@! TD*
G04 #@! TA.AperFunction,Conductor*
%ADD21C,0.400000*%
G04 #@! TD*
G04 #@! TA.AperFunction,Conductor*
%ADD22C,0.150000*%
G04 #@! TD*
G04 #@! TA.AperFunction,Conductor*
%ADD23C,0.178600*%
G04 #@! TD*
G04 #@! TA.AperFunction,Conductor*
%ADD24C,0.250000*%
G04 #@! TD*
G04 APERTURE END LIST*
G04 #@! TA.AperFunction,SMDPad,CuDef*
G36*
G01*
X155050000Y-96900000D02*
X155050000Y-96350000D01*
G75*
G02*
X155250000Y-96150000I200000J0D01*
G01*
X155650000Y-96150000D01*
G75*
G02*
X155850000Y-96350000I0J-200000D01*
G01*
X155850000Y-96900000D01*
G75*
G02*
X155650000Y-97100000I-200000J0D01*
G01*
X155250000Y-97100000D01*
G75*
G02*
X155050000Y-96900000I0J200000D01*
G01*
G37*
G04 #@! TD.AperFunction*
G04 #@! TA.AperFunction,SMDPad,CuDef*
G36*
G01*
X156700000Y-96900000D02*
X156700000Y-96350000D01*
G75*
G02*
X156900000Y-96150000I200000J0D01*
G01*
X157300000Y-96150000D01*
G75*
G02*
X157500000Y-96350000I0J-200000D01*
G01*
X157500000Y-96900000D01*
G75*
G02*
X157300000Y-97100000I-200000J0D01*
G01*
X156900000Y-97100000D01*
G75*
G02*
X156700000Y-96900000I0J200000D01*
G01*
G37*
G04 #@! TD.AperFunction*
G04 #@! TA.AperFunction,SMDPad,CuDef*
G36*
G01*
X158425000Y-105550000D02*
X157925000Y-105550000D01*
G75*
G02*
X157700000Y-105325000I0J225000D01*
G01*
X157700000Y-104875000D01*
G75*
G02*
X157925000Y-104650000I225000J0D01*
G01*
X158425000Y-104650000D01*
G75*
G02*
X158650000Y-104875000I0J-225000D01*
G01*
X158650000Y-105325000D01*
G75*
G02*
X158425000Y-105550000I-225000J0D01*
G01*
G37*
G04 #@! TD.AperFunction*
G04 #@! TA.AperFunction,SMDPad,CuDef*
G36*
G01*
X158425000Y-104000000D02*
X157925000Y-104000000D01*
G75*
G02*
X157700000Y-103775000I0J225000D01*
G01*
X157700000Y-103325000D01*
G75*
G02*
X157925000Y-103100000I225000J0D01*
G01*
X158425000Y-103100000D01*
G75*
G02*
X158650000Y-103325000I0J-225000D01*
G01*
X158650000Y-103775000D01*
G75*
G02*
X158425000Y-104000000I-225000J0D01*
G01*
G37*
G04 #@! TD.AperFunction*
D10*
X142500000Y-93750000D03*
D11*
X142500000Y-94500000D03*
X142500000Y-93000000D03*
D10*
X144500000Y-93750000D03*
D12*
X144500000Y-94500000D03*
X144500000Y-93000000D03*
X146500000Y-94500000D03*
X146500000Y-93000000D03*
D10*
X146500000Y-93750000D03*
D12*
X148500000Y-93000000D03*
X148500000Y-94500000D03*
D10*
X148500000Y-93750000D03*
D12*
X150500000Y-93000000D03*
D10*
X150500000Y-93750000D03*
D12*
X150500000Y-94500000D03*
X152500000Y-94500000D03*
D10*
X152500000Y-93750000D03*
D12*
X152500000Y-93000000D03*
D10*
X154500000Y-93750000D03*
D12*
X154500000Y-94500000D03*
X154500000Y-93000000D03*
D10*
X156500000Y-93750000D03*
D12*
X156500000Y-94500000D03*
X156500000Y-93000000D03*
D10*
X158500000Y-93750000D03*
D12*
X158500000Y-94500000D03*
X158500000Y-93000000D03*
X160500000Y-93000000D03*
X160500000Y-94500000D03*
D10*
X160500000Y-93750000D03*
G04 #@! TA.AperFunction,SMDPad,CuDef*
G36*
G01*
X155414429Y-112957017D02*
X155767983Y-113310571D01*
G75*
G02*
X155767983Y-113628769I-159099J-159099D01*
G01*
X155449785Y-113946967D01*
G75*
G02*
X155131587Y-113946967I-159099J159099D01*
G01*
X154778033Y-113593413D01*
G75*
G02*
X154778033Y-113275215I159099J159099D01*
G01*
X155096231Y-112957017D01*
G75*
G02*
X155414429Y-112957017I159099J-159099D01*
G01*
G37*
G04 #@! TD.AperFunction*
G04 #@! TA.AperFunction,SMDPad,CuDef*
G36*
G01*
X154318413Y-114053033D02*
X154671967Y-114406587D01*
G75*
G02*
X154671967Y-114724785I-159099J-159099D01*
G01*
X154353769Y-115042983D01*
G75*
G02*
X154035571Y-115042983I-159099J159099D01*
G01*
X153682017Y-114689429D01*
G75*
G02*
X153682017Y-114371231I159099J159099D01*
G01*
X154000215Y-114053033D01*
G75*
G02*
X154318413Y-114053033I159099J-159099D01*
G01*
G37*
G04 #@! TD.AperFunction*
G04 #@! TA.AperFunction,SMDPad,CuDef*
G36*
G01*
X143425000Y-96400000D02*
X143425000Y-95850000D01*
G75*
G02*
X143625000Y-95650000I200000J0D01*
G01*
X144025000Y-95650000D01*
G75*
G02*
X144225000Y-95850000I0J-200000D01*
G01*
X144225000Y-96400000D01*
G75*
G02*
X144025000Y-96600000I-200000J0D01*
G01*
X143625000Y-96600000D01*
G75*
G02*
X143425000Y-96400000I0J200000D01*
G01*
G37*
G04 #@! TD.AperFunction*
G04 #@! TA.AperFunction,SMDPad,CuDef*
G36*
G01*
X145075000Y-96400000D02*
X145075000Y-95850000D01*
G75*
G02*
X145275000Y-95650000I200000J0D01*
G01*
X145675000Y-95650000D01*
G75*
G02*
X145875000Y-95850000I0J-200000D01*
G01*
X145875000Y-96400000D01*
G75*
G02*
X145675000Y-96600000I-200000J0D01*
G01*
X145275000Y-96600000D01*
G75*
G02*
X145075000Y-96400000I0J200000D01*
G01*
G37*
G04 #@! TD.AperFunction*
G04 #@! TA.AperFunction,SMDPad,CuDef*
G36*
G01*
X157364429Y-112957017D02*
X157717983Y-113310571D01*
G75*
G02*
X157717983Y-113628769I-159099J-159099D01*
G01*
X157399785Y-113946967D01*
G75*
G02*
X157081587Y-113946967I-159099J159099D01*
G01*
X156728033Y-113593413D01*
G75*
G02*
X156728033Y-113275215I159099J159099D01*
G01*
X157046231Y-112957017D01*
G75*
G02*
X157364429Y-112957017I159099J-159099D01*
G01*
G37*
G04 #@! TD.AperFunction*
G04 #@! TA.AperFunction,SMDPad,CuDef*
G36*
G01*
X156268413Y-114053033D02*
X156621967Y-114406587D01*
G75*
G02*
X156621967Y-114724785I-159099J-159099D01*
G01*
X156303769Y-115042983D01*
G75*
G02*
X155985571Y-115042983I-159099J159099D01*
G01*
X155632017Y-114689429D01*
G75*
G02*
X155632017Y-114371231I159099J159099D01*
G01*
X155950215Y-114053033D01*
G75*
G02*
X156268413Y-114053033I159099J-159099D01*
G01*
G37*
G04 #@! TD.AperFunction*
G04 #@! TA.AperFunction,SMDPad,CuDef*
G36*
G01*
X142025000Y-95975000D02*
X142575000Y-95975000D01*
G75*
G02*
X142775000Y-96175000I0J-200000D01*
G01*
X142775000Y-96575000D01*
G75*
G02*
X142575000Y-96775000I-200000J0D01*
G01*
X142025000Y-96775000D01*
G75*
G02*
X141825000Y-96575000I0J200000D01*
G01*
X141825000Y-96175000D01*
G75*
G02*
X142025000Y-95975000I200000J0D01*
G01*
G37*
G04 #@! TD.AperFunction*
G04 #@! TA.AperFunction,SMDPad,CuDef*
G36*
G01*
X142025000Y-97625000D02*
X142575000Y-97625000D01*
G75*
G02*
X142775000Y-97825000I0J-200000D01*
G01*
X142775000Y-98225000D01*
G75*
G02*
X142575000Y-98425000I-200000J0D01*
G01*
X142025000Y-98425000D01*
G75*
G02*
X141825000Y-98225000I0J200000D01*
G01*
X141825000Y-97825000D01*
G75*
G02*
X142025000Y-97625000I200000J0D01*
G01*
G37*
G04 #@! TD.AperFunction*
X142500000Y-117250000D03*
D11*
X142500000Y-116500000D03*
X142500000Y-118000000D03*
D10*
X144500000Y-117250000D03*
D12*
X144500000Y-116500000D03*
X144500000Y-118000000D03*
X146500000Y-116500000D03*
X146500000Y-118000000D03*
D10*
X146500000Y-117250000D03*
D12*
X148500000Y-116500000D03*
X148500000Y-118000000D03*
D10*
X148500000Y-117250000D03*
X150500000Y-117250000D03*
D12*
X150500000Y-116500000D03*
X150500000Y-118000000D03*
D10*
X152500000Y-117250000D03*
D12*
X152500000Y-118000000D03*
X152500000Y-116500000D03*
D10*
X154500000Y-117250000D03*
D12*
X154500000Y-118000000D03*
X154500000Y-116500000D03*
X156500000Y-116500000D03*
X156500000Y-118000000D03*
D10*
X156500000Y-117250000D03*
D12*
X158500000Y-118000000D03*
D10*
X158500000Y-117250000D03*
D12*
X158500000Y-116500000D03*
X160500000Y-116500000D03*
D10*
X160500000Y-117250000D03*
D12*
X160500000Y-118000000D03*
G04 #@! TA.AperFunction,SMDPad,CuDef*
G36*
G01*
X158475000Y-100500000D02*
X157925000Y-100500000D01*
G75*
G02*
X157725000Y-100300000I0J200000D01*
G01*
X157725000Y-99900000D01*
G75*
G02*
X157925000Y-99700000I200000J0D01*
G01*
X158475000Y-99700000D01*
G75*
G02*
X158675000Y-99900000I0J-200000D01*
G01*
X158675000Y-100300000D01*
G75*
G02*
X158475000Y-100500000I-200000J0D01*
G01*
G37*
G04 #@! TD.AperFunction*
G04 #@! TA.AperFunction,SMDPad,CuDef*
G36*
G01*
X158475000Y-98850000D02*
X157925000Y-98850000D01*
G75*
G02*
X157725000Y-98650000I0J200000D01*
G01*
X157725000Y-98250000D01*
G75*
G02*
X157925000Y-98050000I200000J0D01*
G01*
X158475000Y-98050000D01*
G75*
G02*
X158675000Y-98250000I0J-200000D01*
G01*
X158675000Y-98650000D01*
G75*
G02*
X158475000Y-98850000I-200000J0D01*
G01*
G37*
G04 #@! TD.AperFunction*
G04 #@! TA.AperFunction,SMDPad,CuDef*
G36*
G01*
X157700000Y-102325000D02*
X157700000Y-101825000D01*
G75*
G02*
X157925000Y-101600000I225000J0D01*
G01*
X158375000Y-101600000D01*
G75*
G02*
X158600000Y-101825000I0J-225000D01*
G01*
X158600000Y-102325000D01*
G75*
G02*
X158375000Y-102550000I-225000J0D01*
G01*
X157925000Y-102550000D01*
G75*
G02*
X157700000Y-102325000I0J225000D01*
G01*
G37*
G04 #@! TD.AperFunction*
G04 #@! TA.AperFunction,SMDPad,CuDef*
G36*
G01*
X159250000Y-102325000D02*
X159250000Y-101825000D01*
G75*
G02*
X159475000Y-101600000I225000J0D01*
G01*
X159925000Y-101600000D01*
G75*
G02*
X160150000Y-101825000I0J-225000D01*
G01*
X160150000Y-102325000D01*
G75*
G02*
X159925000Y-102550000I-225000J0D01*
G01*
X159475000Y-102550000D01*
G75*
G02*
X159250000Y-102325000I0J225000D01*
G01*
G37*
G04 #@! TD.AperFunction*
D13*
X143720000Y-105225000D03*
X144990000Y-105225000D03*
X146260000Y-105225000D03*
X147530000Y-105225000D03*
X147530000Y-97925000D03*
X146260000Y-97925000D03*
X144990000Y-97925000D03*
X143720000Y-97925000D03*
G04 #@! TA.AperFunction,SMDPad,CuDef*
G36*
G01*
X153464429Y-112957017D02*
X153817983Y-113310571D01*
G75*
G02*
X153817983Y-113628769I-159099J-159099D01*
G01*
X153499785Y-113946967D01*
G75*
G02*
X153181587Y-113946967I-159099J159099D01*
G01*
X152828033Y-113593413D01*
G75*
G02*
X152828033Y-113275215I159099J159099D01*
G01*
X153146231Y-112957017D01*
G75*
G02*
X153464429Y-112957017I159099J-159099D01*
G01*
G37*
G04 #@! TD.AperFunction*
G04 #@! TA.AperFunction,SMDPad,CuDef*
G36*
G01*
X152368413Y-114053033D02*
X152721967Y-114406587D01*
G75*
G02*
X152721967Y-114724785I-159099J-159099D01*
G01*
X152403769Y-115042983D01*
G75*
G02*
X152085571Y-115042983I-159099J159099D01*
G01*
X151732017Y-114689429D01*
G75*
G02*
X151732017Y-114371231I159099J159099D01*
G01*
X152050215Y-114053033D01*
G75*
G02*
X152368413Y-114053033I159099J-159099D01*
G01*
G37*
G04 #@! TD.AperFunction*
D14*
X139750000Y-96500000D03*
D11*
X140500000Y-96500000D03*
X139000000Y-96500000D03*
D12*
X139000000Y-98500000D03*
X140500000Y-98500000D03*
D14*
X139750000Y-98500000D03*
D12*
X139000000Y-100500000D03*
X140500000Y-100500000D03*
D14*
X139750000Y-100500000D03*
X139750000Y-102500000D03*
D12*
X140500000Y-102500000D03*
X139000000Y-102500000D03*
X139000000Y-104500000D03*
D14*
X139750000Y-104500000D03*
D12*
X140500000Y-104500000D03*
X140500000Y-106500000D03*
D14*
X139750000Y-106500000D03*
D12*
X139000000Y-106500000D03*
X139000000Y-108500000D03*
X140500000Y-108500000D03*
D14*
X139750000Y-108500000D03*
X139750000Y-110500000D03*
D12*
X140500000Y-110500000D03*
X139000000Y-110500000D03*
X140500000Y-112500000D03*
X139000000Y-112500000D03*
D14*
X139750000Y-112500000D03*
X139750000Y-114500000D03*
D12*
X140500000Y-114500000D03*
X139000000Y-114500000D03*
G04 #@! TA.AperFunction,SMDPad,CuDef*
G36*
G01*
X159850000Y-106575000D02*
X159350000Y-106575000D01*
G75*
G02*
X159125000Y-106350000I0J225000D01*
G01*
X159125000Y-105900000D01*
G75*
G02*
X159350000Y-105675000I225000J0D01*
G01*
X159850000Y-105675000D01*
G75*
G02*
X160075000Y-105900000I0J-225000D01*
G01*
X160075000Y-106350000D01*
G75*
G02*
X159850000Y-106575000I-225000J0D01*
G01*
G37*
G04 #@! TD.AperFunction*
G04 #@! TA.AperFunction,SMDPad,CuDef*
G36*
G01*
X159850000Y-105025000D02*
X159350000Y-105025000D01*
G75*
G02*
X159125000Y-104800000I0J225000D01*
G01*
X159125000Y-104350000D01*
G75*
G02*
X159350000Y-104125000I225000J0D01*
G01*
X159850000Y-104125000D01*
G75*
G02*
X160075000Y-104350000I0J-225000D01*
G01*
X160075000Y-104800000D01*
G75*
G02*
X159850000Y-105025000I-225000J0D01*
G01*
G37*
G04 #@! TD.AperFunction*
G04 #@! TA.AperFunction,SMDPad,CuDef*
G36*
G01*
X147900000Y-107075000D02*
X147900000Y-107575000D01*
G75*
G02*
X147675000Y-107800000I-225000J0D01*
G01*
X147225000Y-107800000D01*
G75*
G02*
X147000000Y-107575000I0J225000D01*
G01*
X147000000Y-107075000D01*
G75*
G02*
X147225000Y-106850000I225000J0D01*
G01*
X147675000Y-106850000D01*
G75*
G02*
X147900000Y-107075000I0J-225000D01*
G01*
G37*
G04 #@! TD.AperFunction*
G04 #@! TA.AperFunction,SMDPad,CuDef*
G36*
G01*
X146350000Y-107075000D02*
X146350000Y-107575000D01*
G75*
G02*
X146125000Y-107800000I-225000J0D01*
G01*
X145675000Y-107800000D01*
G75*
G02*
X145450000Y-107575000I0J225000D01*
G01*
X145450000Y-107075000D01*
G75*
G02*
X145675000Y-106850000I225000J0D01*
G01*
X146125000Y-106850000D01*
G75*
G02*
X146350000Y-107075000I0J-225000D01*
G01*
G37*
G04 #@! TD.AperFunction*
G04 #@! TA.AperFunction,SMDPad,CuDef*
G36*
G01*
X159850000Y-100500000D02*
X159300000Y-100500000D01*
G75*
G02*
X159100000Y-100300000I0J200000D01*
G01*
X159100000Y-99900000D01*
G75*
G02*
X159300000Y-99700000I200000J0D01*
G01*
X159850000Y-99700000D01*
G75*
G02*
X160050000Y-99900000I0J-200000D01*
G01*
X160050000Y-100300000D01*
G75*
G02*
X159850000Y-100500000I-200000J0D01*
G01*
G37*
G04 #@! TD.AperFunction*
G04 #@! TA.AperFunction,SMDPad,CuDef*
G36*
G01*
X159850000Y-98850000D02*
X159300000Y-98850000D01*
G75*
G02*
X159100000Y-98650000I0J200000D01*
G01*
X159100000Y-98250000D01*
G75*
G02*
X159300000Y-98050000I200000J0D01*
G01*
X159850000Y-98050000D01*
G75*
G02*
X160050000Y-98250000I0J-200000D01*
G01*
X160050000Y-98650000D01*
G75*
G02*
X159850000Y-98850000I-200000J0D01*
G01*
G37*
G04 #@! TD.AperFunction*
G04 #@! TA.AperFunction,SMDPad,CuDef*
G36*
G01*
X158650000Y-110325000D02*
X158650000Y-109825000D01*
G75*
G02*
X158875000Y-109600000I225000J0D01*
G01*
X159325000Y-109600000D01*
G75*
G02*
X159550000Y-109825000I0J-225000D01*
G01*
X159550000Y-110325000D01*
G75*
G02*
X159325000Y-110550000I-225000J0D01*
G01*
X158875000Y-110550000D01*
G75*
G02*
X158650000Y-110325000I0J225000D01*
G01*
G37*
G04 #@! TD.AperFunction*
G04 #@! TA.AperFunction,SMDPad,CuDef*
G36*
G01*
X160200000Y-110325000D02*
X160200000Y-109825000D01*
G75*
G02*
X160425000Y-109600000I225000J0D01*
G01*
X160875000Y-109600000D01*
G75*
G02*
X161100000Y-109825000I0J-225000D01*
G01*
X161100000Y-110325000D01*
G75*
G02*
X160875000Y-110550000I-225000J0D01*
G01*
X160425000Y-110550000D01*
G75*
G02*
X160200000Y-110325000I0J225000D01*
G01*
G37*
G04 #@! TD.AperFunction*
G04 #@! TA.AperFunction,SMDPad,CuDef*
G36*
G01*
X156400000Y-102875000D02*
X156400000Y-103425000D01*
G75*
G02*
X156200000Y-103625000I-200000J0D01*
G01*
X155800000Y-103625000D01*
G75*
G02*
X155600000Y-103425000I0J200000D01*
G01*
X155600000Y-102875000D01*
G75*
G02*
X155800000Y-102675000I200000J0D01*
G01*
X156200000Y-102675000D01*
G75*
G02*
X156400000Y-102875000I0J-200000D01*
G01*
G37*
G04 #@! TD.AperFunction*
G04 #@! TA.AperFunction,SMDPad,CuDef*
G36*
G01*
X154750000Y-102875000D02*
X154750000Y-103425000D01*
G75*
G02*
X154550000Y-103625000I-200000J0D01*
G01*
X154150000Y-103625000D01*
G75*
G02*
X153950000Y-103425000I0J200000D01*
G01*
X153950000Y-102875000D01*
G75*
G02*
X154150000Y-102675000I200000J0D01*
G01*
X154550000Y-102675000D01*
G75*
G02*
X154750000Y-102875000I0J-200000D01*
G01*
G37*
G04 #@! TD.AperFunction*
D11*
X162500000Y-96500000D03*
D14*
X163250000Y-96500000D03*
D11*
X164000000Y-96500000D03*
D12*
X162500000Y-98500000D03*
X164000000Y-98500000D03*
D14*
X163250000Y-98500000D03*
D12*
X164000000Y-100500000D03*
D14*
X163250000Y-100500000D03*
D12*
X162500000Y-100500000D03*
X162500000Y-102500000D03*
X164000000Y-102500000D03*
D14*
X163250000Y-102500000D03*
X163250000Y-104500000D03*
D12*
X162500000Y-104500000D03*
X164000000Y-104500000D03*
X162500000Y-106500000D03*
X164000000Y-106500000D03*
D14*
X163250000Y-106500000D03*
D12*
X162500000Y-108500000D03*
D14*
X163250000Y-108500000D03*
D12*
X164000000Y-108500000D03*
D14*
X163250000Y-110500000D03*
D12*
X164000000Y-110500000D03*
X162500000Y-110500000D03*
X164000000Y-112500000D03*
X162500000Y-112500000D03*
D14*
X163250000Y-112500000D03*
D12*
X164000000Y-114500000D03*
X162500000Y-114500000D03*
D14*
X163250000Y-114500000D03*
D15*
X150498800Y-106050000D03*
X150498800Y-106449999D03*
X150498800Y-106850001D03*
X150498800Y-107250000D03*
X150498800Y-107649999D03*
X150498800Y-108050001D03*
X150498800Y-108450000D03*
X150498800Y-108850000D03*
X150498800Y-109249999D03*
X150498800Y-109650001D03*
X150498800Y-110050000D03*
X150498800Y-110449999D03*
X150498800Y-110850001D03*
X150498800Y-111250000D03*
D16*
X151300000Y-112051200D03*
X151699999Y-112051200D03*
X152100001Y-112051200D03*
X152500000Y-112051200D03*
X152899999Y-112051200D03*
X153300001Y-112051200D03*
X153700000Y-112051200D03*
X154100000Y-112051200D03*
X154499999Y-112051200D03*
X154900001Y-112051200D03*
X155300000Y-112051200D03*
X155699999Y-112051200D03*
X156100001Y-112051200D03*
X156500000Y-112051200D03*
D15*
X157301200Y-111250000D03*
X157301200Y-110850001D03*
X157301200Y-110449999D03*
X157301200Y-110050000D03*
X157301200Y-109650001D03*
X157301200Y-109249999D03*
X157301200Y-108850000D03*
X157301200Y-108450000D03*
X157301200Y-108050001D03*
X157301200Y-107649999D03*
X157301200Y-107250000D03*
X157301200Y-106850001D03*
X157301200Y-106449999D03*
X157301200Y-106050000D03*
D16*
X156500000Y-105248800D03*
X156100001Y-105248800D03*
X155699999Y-105248800D03*
X155300000Y-105248800D03*
X154900001Y-105248800D03*
X154499999Y-105248800D03*
X154100000Y-105248800D03*
X153700000Y-105248800D03*
X153300001Y-105248800D03*
X152899999Y-105248800D03*
X152500000Y-105248800D03*
X152100001Y-105248800D03*
X151699999Y-105248800D03*
X151300000Y-105248800D03*
D17*
X153900000Y-108650000D03*
D18*
X150500000Y-100100000D03*
X155700000Y-100100000D03*
G04 #@! TA.AperFunction,SMDPad,CuDef*
G36*
G01*
X148800000Y-111025000D02*
X148800000Y-111525000D01*
G75*
G02*
X148575000Y-111750000I-225000J0D01*
G01*
X148125000Y-111750000D01*
G75*
G02*
X147900000Y-111525000I0J225000D01*
G01*
X147900000Y-111025000D01*
G75*
G02*
X148125000Y-110800000I225000J0D01*
G01*
X148575000Y-110800000D01*
G75*
G02*
X148800000Y-111025000I0J-225000D01*
G01*
G37*
G04 #@! TD.AperFunction*
G04 #@! TA.AperFunction,SMDPad,CuDef*
G36*
G01*
X147250000Y-111025000D02*
X147250000Y-111525000D01*
G75*
G02*
X147025000Y-111750000I-225000J0D01*
G01*
X146575000Y-111750000D01*
G75*
G02*
X146350000Y-111525000I0J225000D01*
G01*
X146350000Y-111025000D01*
G75*
G02*
X146575000Y-110800000I225000J0D01*
G01*
X147025000Y-110800000D01*
G75*
G02*
X147250000Y-111025000I0J-225000D01*
G01*
G37*
G04 #@! TD.AperFunction*
G04 #@! TA.AperFunction,SMDPad,CuDef*
G36*
G01*
X149075000Y-97000000D02*
X149075000Y-96500000D01*
G75*
G02*
X149300000Y-96275000I225000J0D01*
G01*
X149750000Y-96275000D01*
G75*
G02*
X149975000Y-96500000I0J-225000D01*
G01*
X149975000Y-97000000D01*
G75*
G02*
X149750000Y-97225000I-225000J0D01*
G01*
X149300000Y-97225000D01*
G75*
G02*
X149075000Y-97000000I0J225000D01*
G01*
G37*
G04 #@! TD.AperFunction*
G04 #@! TA.AperFunction,SMDPad,CuDef*
G36*
G01*
X150625000Y-97000000D02*
X150625000Y-96500000D01*
G75*
G02*
X150850000Y-96275000I225000J0D01*
G01*
X151300000Y-96275000D01*
G75*
G02*
X151525000Y-96500000I0J-225000D01*
G01*
X151525000Y-97000000D01*
G75*
G02*
X151300000Y-97225000I-225000J0D01*
G01*
X150850000Y-97225000D01*
G75*
G02*
X150625000Y-97000000I0J225000D01*
G01*
G37*
G04 #@! TD.AperFunction*
G04 #@! TA.AperFunction,SMDPad,CuDef*
G36*
G01*
X154500000Y-96500000D02*
X154500000Y-97000000D01*
G75*
G02*
X154275000Y-97225000I-225000J0D01*
G01*
X153825000Y-97225000D01*
G75*
G02*
X153600000Y-97000000I0J225000D01*
G01*
X153600000Y-96500000D01*
G75*
G02*
X153825000Y-96275000I225000J0D01*
G01*
X154275000Y-96275000D01*
G75*
G02*
X154500000Y-96500000I0J-225000D01*
G01*
G37*
G04 #@! TD.AperFunction*
G04 #@! TA.AperFunction,SMDPad,CuDef*
G36*
G01*
X152950000Y-96500000D02*
X152950000Y-97000000D01*
G75*
G02*
X152725000Y-97225000I-225000J0D01*
G01*
X152275000Y-97225000D01*
G75*
G02*
X152050000Y-97000000I0J225000D01*
G01*
X152050000Y-96500000D01*
G75*
G02*
X152275000Y-96275000I225000J0D01*
G01*
X152725000Y-96275000D01*
G75*
G02*
X152950000Y-96500000I0J-225000D01*
G01*
G37*
G04 #@! TD.AperFunction*
D19*
X160875000Y-111050000D03*
X145475000Y-111275000D03*
X159275000Y-103375000D03*
X151670000Y-97550000D03*
X152900000Y-109650000D03*
X154900000Y-109650000D03*
X152900000Y-107650000D03*
X144916292Y-106841634D03*
X150835271Y-114360270D03*
X160500000Y-97650000D03*
X154900000Y-107650000D03*
X148775000Y-104099020D03*
X142897563Y-101099294D03*
X143951622Y-106823378D03*
X155110000Y-97550000D03*
X156523531Y-98640498D03*
X156445171Y-110520170D03*
X158700000Y-97325000D03*
X157825000Y-97325000D03*
X155797982Y-110898190D03*
X155053517Y-110984939D03*
X151375000Y-111175000D03*
X152900000Y-102400000D03*
X154300000Y-110900000D03*
X154275000Y-104125000D03*
X155175000Y-106175000D03*
X153425840Y-102934084D03*
X151359949Y-110418193D03*
D20*
X152226992Y-114548008D02*
X154176992Y-114548008D01*
D21*
X150935000Y-96815000D02*
X150935000Y-96530000D01*
D22*
X160875000Y-111050000D02*
X160875000Y-110300000D01*
D20*
X152899999Y-112699634D02*
X152899999Y-112051200D01*
D22*
X159600000Y-103700000D02*
X159600000Y-104575000D01*
D20*
X148755980Y-104099020D02*
X147530000Y-105325000D01*
X148775000Y-104099020D02*
X148755980Y-104099020D01*
D21*
X151670000Y-97550000D02*
X150935000Y-96815000D01*
D22*
X159275000Y-103375000D02*
X159600000Y-103700000D01*
X159700000Y-102950000D02*
X159275000Y-103375000D01*
D20*
X150835271Y-114360270D02*
X151446021Y-113749520D01*
X150835271Y-114360270D02*
X152039254Y-114360270D01*
X144916292Y-106841634D02*
X145499658Y-107425000D01*
D22*
X159700000Y-102075000D02*
X159700000Y-102950000D01*
D20*
X151446021Y-113749520D02*
X151850113Y-113749520D01*
D22*
X159275000Y-103375000D02*
X158350000Y-103375000D01*
D20*
X145499658Y-107425000D02*
X145900001Y-107425000D01*
D21*
X151670000Y-97550000D02*
X152415000Y-96805000D01*
D22*
X146750611Y-111275000D02*
X145475000Y-111275000D01*
D20*
X154176992Y-114548008D02*
X156126992Y-114548008D01*
X151850113Y-113749520D02*
X152899999Y-112699634D01*
D21*
X160500000Y-97650000D02*
X160500000Y-94500000D01*
D20*
X152000000Y-106900000D02*
X152150000Y-106750000D01*
D21*
X146125000Y-95700000D02*
X154425000Y-95700000D01*
D22*
X157225000Y-103847533D02*
X157225000Y-102800000D01*
D23*
X149784021Y-109650001D02*
X148525000Y-110909022D01*
D21*
X145077138Y-96125000D02*
X145475000Y-96125000D01*
D20*
X152000000Y-106900578D02*
X152000000Y-109600000D01*
X156600000Y-109650000D02*
X157301200Y-109650001D01*
X149375000Y-106050000D02*
X148100000Y-107325000D01*
X153200000Y-110550000D02*
X154100000Y-111450000D01*
X157301200Y-109650001D02*
X158675001Y-109650001D01*
X143951622Y-106823378D02*
X143951622Y-106826622D01*
D22*
X157301200Y-106050000D02*
X159525000Y-106050000D01*
X156500000Y-105248800D02*
X156500000Y-104900000D01*
D20*
X155800000Y-106900578D02*
X155649422Y-106750000D01*
D23*
X150498800Y-109650001D02*
X149784021Y-109650001D01*
D20*
X150498800Y-106050000D02*
X149375000Y-106050000D01*
D22*
X156100001Y-104624999D02*
X156245960Y-104479040D01*
D20*
X150498800Y-106050000D02*
X151450000Y-106050000D01*
X158675001Y-109650001D02*
X159100000Y-110075000D01*
D22*
X151949999Y-109650001D02*
X152000000Y-109600000D01*
D20*
X155649422Y-106750000D02*
X154500000Y-106750000D01*
X143951622Y-106826622D02*
X145174520Y-108049520D01*
D21*
X143720000Y-97482138D02*
X145077138Y-96125000D01*
D20*
X145174520Y-108049520D02*
X146725480Y-108049520D01*
X154100000Y-111450000D02*
X154100000Y-112051200D01*
D22*
X156245960Y-104479040D02*
X156593493Y-104479040D01*
X156650000Y-104750000D02*
X157825000Y-104750000D01*
D21*
X154500000Y-95625000D02*
X155400000Y-96525000D01*
D20*
X152150000Y-110550000D02*
X153200000Y-110550000D01*
D22*
X152000000Y-110400000D02*
X152000000Y-110399422D01*
D20*
X155800000Y-106900578D02*
X155800000Y-108850000D01*
D21*
X154500000Y-94500000D02*
X154500000Y-95625000D01*
X142897563Y-101099294D02*
X143695000Y-100301857D01*
D20*
X146725480Y-108049520D02*
X147450000Y-107325000D01*
D21*
X145575000Y-96250000D02*
X146125000Y-95700000D01*
D23*
X148525000Y-110909022D02*
X148525000Y-111225000D01*
D20*
X151450000Y-106050000D02*
X152150000Y-106750000D01*
D22*
X156500000Y-104900000D02*
X156650000Y-104750000D01*
D20*
X155800000Y-108850000D02*
X156600000Y-109650000D01*
D21*
X143720000Y-97925000D02*
X143720000Y-97482138D01*
D20*
X156100001Y-106299421D02*
X155787211Y-106612211D01*
D22*
X157225000Y-102800000D02*
X157950000Y-102075000D01*
D20*
X155800000Y-106900578D02*
X155800000Y-106625000D01*
X152000000Y-109600000D02*
X152000000Y-110399422D01*
D22*
X156100001Y-105248800D02*
X156100001Y-104624999D01*
D20*
X148100000Y-107325000D02*
X147450000Y-107325000D01*
D22*
X157825000Y-104750000D02*
X158175000Y-105100000D01*
D23*
X150498800Y-109650001D02*
X151949999Y-109650001D01*
D20*
X155787211Y-106612211D02*
X155649422Y-106750000D01*
X156100001Y-105248800D02*
X156100001Y-106299421D01*
X154500000Y-106750000D02*
X152150000Y-106750000D01*
D21*
X154425000Y-95700000D02*
X154500000Y-95625000D01*
X143695000Y-100301857D02*
X143695000Y-98025000D01*
D20*
X152150000Y-110550000D02*
X152000000Y-110400000D01*
D22*
X156593493Y-104479040D02*
X157225000Y-103847533D01*
X155800000Y-106625000D02*
X155787211Y-106612211D01*
X143720000Y-105579022D02*
X144440489Y-106299511D01*
X148574520Y-105464858D02*
X149865818Y-104173560D01*
X151123560Y-104173560D02*
X151300000Y-104350000D01*
X142450000Y-97725000D02*
X143925000Y-96250000D01*
X149865818Y-104173560D02*
X151123560Y-104173560D01*
X142224040Y-100953284D02*
X142224040Y-98250960D01*
X145115925Y-106299511D02*
X145415446Y-106599031D01*
X143720000Y-105225000D02*
X143720000Y-105579022D01*
X148203577Y-106599031D02*
X148574520Y-106228087D01*
X143695000Y-103095000D02*
X142373071Y-101773071D01*
X145415446Y-106599031D02*
X148203577Y-106599031D01*
X151300000Y-104350000D02*
X151300000Y-105248800D01*
X142373071Y-101102315D02*
X142224040Y-100953284D01*
X148574520Y-106228087D02*
X148574520Y-105464858D01*
X143695000Y-105325000D02*
X143695000Y-103095000D01*
X144440489Y-106299511D02*
X145115925Y-106299511D01*
X142373071Y-101773071D02*
X142373071Y-101102315D01*
X142500000Y-96425000D02*
X142500000Y-94500000D01*
X156150000Y-111422690D02*
X155786190Y-111422690D01*
X155786190Y-111422690D02*
X155699999Y-111508881D01*
X156445171Y-110520170D02*
X156445171Y-111127519D01*
X156523531Y-98640498D02*
X155433033Y-97550000D01*
X157050000Y-98114029D02*
X157050000Y-96525000D01*
X156445171Y-111127519D02*
X156150000Y-111422690D01*
X155699999Y-111508881D02*
X155699999Y-112051200D01*
X156523531Y-98640498D02*
X157050000Y-98114029D01*
X155433033Y-97550000D02*
X155110000Y-97550000D01*
D24*
X158700000Y-97325000D02*
X159825000Y-98450000D01*
D22*
X156924520Y-103724427D02*
X156924520Y-102174066D01*
X158373586Y-100725000D02*
X159125000Y-100725000D01*
X155826958Y-104179520D02*
X156469427Y-104179520D01*
X159125000Y-100725000D02*
X159750000Y-100100000D01*
X156924520Y-102174066D02*
X158373586Y-100725000D01*
X156469427Y-104179520D02*
X156924520Y-103724427D01*
X155300000Y-104706478D02*
X155826958Y-104179520D01*
X155300000Y-105248800D02*
X155300000Y-104706478D01*
D24*
X158325000Y-98450000D02*
X158325000Y-97825000D01*
X158325000Y-97825000D02*
X157825000Y-97325000D01*
D22*
X156625000Y-102600000D02*
X156299520Y-102274520D01*
X156900000Y-101775000D02*
X158200000Y-100475000D01*
X156625000Y-103600361D02*
X156625000Y-102600000D01*
X156299520Y-102050480D02*
X156575000Y-101775000D01*
X154900001Y-105248800D02*
X154900001Y-104682891D01*
X155702892Y-103880000D02*
X156345361Y-103880000D01*
X156299520Y-102274520D02*
X156299520Y-102050480D01*
X156575000Y-101775000D02*
X156900000Y-101775000D01*
X154900001Y-104682891D02*
X155702892Y-103880000D01*
X158200000Y-100475000D02*
X158200000Y-100100000D01*
X156345361Y-103880000D02*
X156625000Y-103600361D01*
X144990000Y-105750000D02*
X145539511Y-106299511D01*
X148275000Y-106104022D02*
X148275000Y-105340792D01*
X151700000Y-104050000D02*
X151699999Y-105248800D01*
X148079511Y-106299511D02*
X148275000Y-106104022D01*
X148275000Y-105340792D02*
X149741752Y-103874040D01*
X145539511Y-106299511D02*
X148079511Y-106299511D01*
X149741752Y-103874040D02*
X151524040Y-103874040D01*
X151524040Y-103874040D02*
X151700000Y-104050000D01*
X144990000Y-105225000D02*
X144990000Y-105750000D01*
X152100000Y-103950000D02*
X151724520Y-103574520D01*
X152100001Y-105248800D02*
X152100000Y-103950000D01*
X151724520Y-103574520D02*
X147350480Y-103574520D01*
X147350480Y-103574520D02*
X146260000Y-104665000D01*
X148276449Y-101598619D02*
X148276449Y-98771449D01*
X148276449Y-98771449D02*
X147530000Y-98025000D01*
X152500000Y-103850000D02*
X151925000Y-103275000D01*
X151925000Y-103275000D02*
X149952828Y-103275000D01*
X149952828Y-103275000D02*
X148276449Y-101598619D01*
X152500000Y-105248800D02*
X152500000Y-103850000D01*
X148575969Y-97346947D02*
X148575969Y-101474554D01*
X152150000Y-102975480D02*
X152899999Y-103725479D01*
X148575969Y-101474554D02*
X150076894Y-102975480D01*
X146975000Y-96775000D02*
X148004022Y-96775000D01*
X148004022Y-96775000D02*
X148575969Y-97346947D01*
X152899999Y-103725479D02*
X152899999Y-105248800D01*
X146260000Y-97490000D02*
X146975000Y-96775000D01*
X150076894Y-102975480D02*
X152150000Y-102975480D01*
X150200960Y-102675960D02*
X152425960Y-102675960D01*
X146224511Y-96850489D02*
X146625000Y-96450000D01*
X145639511Y-96850489D02*
X146224511Y-96850489D01*
X148875489Y-101350489D02*
X150200960Y-102675960D01*
X148875489Y-97200489D02*
X148875489Y-101350489D01*
X146625000Y-96450000D02*
X148125000Y-96450000D01*
X148125000Y-96450000D02*
X148875489Y-97200489D01*
X144990000Y-97500000D02*
X145639511Y-96850489D01*
X152425960Y-102675960D02*
X153300000Y-103550000D01*
X153300000Y-103550000D02*
X153300001Y-105248800D01*
X158974519Y-107250481D02*
X159629730Y-107250481D01*
X158174037Y-106449999D02*
X158974519Y-107250481D01*
X159629730Y-107250481D02*
X160327409Y-106552802D01*
X160327409Y-106552802D02*
X160327409Y-104811863D01*
X160626929Y-98373071D02*
X162500000Y-96500000D01*
X160327409Y-104811863D02*
X160626929Y-104512343D01*
X160626929Y-104512343D02*
X160626929Y-98373071D01*
X157301200Y-106449999D02*
X158174037Y-106449999D01*
X158150454Y-106850001D02*
X158850454Y-107550001D01*
X159753796Y-107550001D02*
X160626929Y-106676868D01*
X158850454Y-107550001D02*
X159753796Y-107550001D01*
X157301200Y-106850001D02*
X158150454Y-106850001D01*
X160926449Y-104802793D02*
X160926449Y-100073551D01*
X160626929Y-106676868D02*
X160626929Y-105102313D01*
X160626929Y-105102313D02*
X160926449Y-104802793D01*
X160926449Y-100073551D02*
X162500000Y-98500000D01*
X160926449Y-105226379D02*
X161225969Y-104926859D01*
X161225969Y-101774031D02*
X162500000Y-100500000D01*
X158726868Y-107850000D02*
X159877383Y-107850000D01*
X159877383Y-107850000D02*
X160926449Y-106800934D01*
X161225969Y-104926859D02*
X161225969Y-101774031D01*
X157301200Y-107250000D02*
X158126867Y-107250000D01*
X160926449Y-106800934D02*
X160926449Y-105226379D01*
X158126867Y-107250000D02*
X158726868Y-107850000D01*
X158103280Y-107649999D02*
X157301200Y-107649999D01*
X161225969Y-106925000D02*
X160001449Y-108149520D01*
X161525489Y-105050925D02*
X161225969Y-105350445D01*
X162500000Y-102500000D02*
X161525489Y-103474511D01*
X158602801Y-108149520D02*
X158103280Y-107649999D01*
X161525489Y-103474511D02*
X161525489Y-105050925D01*
X160001449Y-108149520D02*
X158602801Y-108149520D01*
X161225969Y-105350445D02*
X161225969Y-106925000D01*
X158079696Y-108050001D02*
X157301200Y-108050001D01*
X158478735Y-108449040D02*
X158079696Y-108050001D01*
X160127374Y-108449040D02*
X158478735Y-108449040D01*
X161525489Y-107050925D02*
X160127374Y-108449040D01*
X161525489Y-105474511D02*
X161525489Y-107050925D01*
X162500000Y-104500000D02*
X161525489Y-105474511D01*
X158056110Y-108450000D02*
X157301200Y-108450000D01*
X158354670Y-108748560D02*
X158056110Y-108450000D01*
X162500000Y-106500000D02*
X160251439Y-108748560D01*
X160251439Y-108748560D02*
X158354670Y-108748560D01*
X160923584Y-108500000D02*
X162500000Y-108500000D01*
X160375505Y-109048080D02*
X160923584Y-108500000D01*
X158230604Y-109048080D02*
X160375505Y-109048080D01*
X158032525Y-108850000D02*
X158230604Y-109048080D01*
X157301200Y-108850000D02*
X158032525Y-108850000D01*
X160497170Y-109350000D02*
X160748585Y-109098584D01*
X161098584Y-109098584D02*
X162500000Y-110500000D01*
X157301200Y-109249999D02*
X158008939Y-109249999D01*
X160748585Y-109098584D02*
X161098584Y-109098584D01*
X158008939Y-109249999D02*
X158108940Y-109350000D01*
X158108940Y-109350000D02*
X160497170Y-109350000D01*
X158615212Y-110774520D02*
X159857748Y-110774520D01*
X159857748Y-110774520D02*
X161583228Y-112500000D01*
X157301200Y-110050000D02*
X157890693Y-110050000D01*
X161583228Y-112500000D02*
X162500000Y-112500000D01*
X157890693Y-110050000D02*
X158615212Y-110774520D01*
X157867106Y-110449999D02*
X158491147Y-111074040D01*
X161525489Y-112865847D02*
X161525489Y-113525489D01*
X157301200Y-110449999D02*
X157867106Y-110449999D01*
X158491147Y-111074040D02*
X159733682Y-111074040D01*
X159733682Y-111074040D02*
X161525489Y-112865847D01*
X161525489Y-113525489D02*
X162500000Y-114500000D01*
X161525489Y-115474511D02*
X160500000Y-116500000D01*
X157301200Y-110850001D02*
X157843522Y-110850001D01*
X159609616Y-111373560D02*
X161225969Y-112989913D01*
X157843522Y-110850001D02*
X158367082Y-111373560D01*
X161525489Y-113975000D02*
X161525489Y-115474511D01*
X161225969Y-112989913D02*
X161225969Y-113675480D01*
X161225969Y-113675480D02*
X161525489Y-113975000D01*
X158367082Y-111373560D02*
X159609616Y-111373560D01*
X157301200Y-111250000D02*
X157819936Y-111250000D01*
X158607444Y-112037508D02*
X158607444Y-116392556D01*
X157819936Y-111250000D02*
X158607444Y-112037508D01*
X156911662Y-112350480D02*
X157498998Y-112350480D01*
X157498998Y-112350480D02*
X158307924Y-113159407D01*
X156500000Y-112051200D02*
X156500000Y-112500000D01*
X158307924Y-113159407D02*
X158307924Y-113779933D01*
X156543571Y-112543571D02*
X156718571Y-112543571D01*
X158307924Y-113779933D02*
X156500000Y-115587858D01*
X156500000Y-112500000D02*
X156543571Y-112543571D01*
X156718571Y-112543571D02*
X156911662Y-112350480D01*
X156500000Y-115587858D02*
X156500000Y-116500000D01*
X156314272Y-115350000D02*
X155650000Y-115350000D01*
X156100001Y-112051200D02*
X156100001Y-112593522D01*
X158008404Y-113283472D02*
X158008404Y-113655868D01*
X156792864Y-112892864D02*
X156399343Y-112892864D01*
X157035728Y-112650000D02*
X156792864Y-112892864D01*
X157374932Y-112650000D02*
X158008404Y-113283472D01*
X157035728Y-112650000D02*
X157374932Y-112650000D01*
X155650000Y-115350000D02*
X154500000Y-116500000D01*
X158008404Y-113655868D02*
X156314272Y-115350000D01*
X156399343Y-112892864D02*
X156100001Y-112593522D01*
X155300000Y-111485294D02*
X155300000Y-112051200D01*
X155797982Y-110898190D02*
X155797982Y-110987312D01*
X155797982Y-110987312D02*
X155300000Y-111485294D01*
X154900001Y-111138455D02*
X154900001Y-112051200D01*
X155053517Y-110984939D02*
X154900001Y-111138455D01*
X152500000Y-112051200D02*
X152500000Y-112640693D01*
X150024520Y-114600000D02*
X150524520Y-115100000D01*
X151275000Y-115100000D02*
X152500000Y-116325000D01*
X150524520Y-115100000D02*
X151275000Y-115100000D01*
X152500000Y-112640693D02*
X151715693Y-113425000D01*
X151028785Y-113425000D02*
X150024520Y-114429265D01*
X151715693Y-113425000D02*
X151028785Y-113425000D01*
X150024520Y-114429265D02*
X150024520Y-114600000D01*
X149725000Y-114305199D02*
X150905679Y-113124520D01*
X151592587Y-113124520D02*
X152100001Y-112617106D01*
X150500000Y-115550000D02*
X149725000Y-114775000D01*
X150905679Y-113124520D02*
X151592587Y-113124520D01*
X149725000Y-114775000D02*
X149725000Y-114305199D01*
X152100001Y-112617106D02*
X152100001Y-112051200D01*
X150500000Y-116500000D02*
X150500000Y-115550000D01*
X151468521Y-112825000D02*
X151699999Y-112593522D01*
X151699999Y-112593522D02*
X151699999Y-112051200D01*
X150781613Y-112825000D02*
X151468521Y-112825000D01*
X148500000Y-115106613D02*
X150781613Y-112825000D01*
X148500000Y-116500000D02*
X148500000Y-115106613D01*
X146500000Y-116500000D02*
X147475000Y-115525000D01*
X151025000Y-112525480D02*
X151300000Y-112250480D01*
X147475000Y-115525000D02*
X147658028Y-115525000D01*
X150657548Y-112525480D02*
X151025000Y-112525480D01*
X147658028Y-115525000D02*
X150657548Y-112525480D01*
X150123333Y-112636109D02*
X147542221Y-115217221D01*
X147050925Y-115525489D02*
X145474511Y-115525489D01*
X147542221Y-115217221D02*
X147359193Y-115217221D01*
X150498800Y-111250000D02*
X150123333Y-111250000D01*
X147359193Y-115217221D02*
X147050925Y-115525489D01*
X150123333Y-111250000D02*
X150123333Y-112636109D01*
X145474511Y-115525489D02*
X144500000Y-116500000D01*
X150498800Y-110850001D02*
X149875000Y-110850000D01*
X143474511Y-115525489D02*
X142500000Y-116500000D01*
X149823813Y-110901187D02*
X149823813Y-112512044D01*
X145350445Y-115225969D02*
X145050925Y-115525489D01*
X149875000Y-110850000D02*
X149823813Y-110901187D01*
X149823813Y-112512044D02*
X147418156Y-114917701D01*
X147235128Y-114917701D02*
X146926860Y-115225969D01*
X147418156Y-114917701D02*
X147235128Y-114917701D01*
X145050925Y-115525489D02*
X143474511Y-115525489D01*
X146926860Y-115225969D02*
X145350445Y-115225969D01*
X148724065Y-112799520D02*
X142200480Y-112799520D01*
X149524293Y-110777122D02*
X149524293Y-111999293D01*
X149524293Y-111999293D02*
X148724065Y-112799520D01*
X142200480Y-112799520D02*
X140500000Y-114500000D01*
X149851416Y-110449999D02*
X149524293Y-110777122D01*
X150498800Y-110449999D02*
X149851416Y-110449999D01*
X148600000Y-112500000D02*
X140500000Y-112500000D01*
X149224773Y-110653057D02*
X149224773Y-111875227D01*
X150498800Y-110050000D02*
X149827830Y-110050000D01*
X149224773Y-111875227D02*
X148600000Y-112500000D01*
X149827830Y-110050000D02*
X149224773Y-110653057D01*
X150498800Y-109249999D02*
X149740215Y-109249999D01*
X149740215Y-109249999D02*
X148490214Y-110500000D01*
X148490214Y-110500000D02*
X140500000Y-110500000D01*
X140500000Y-108500000D02*
X142076414Y-108500000D01*
X148392589Y-110174040D02*
X149716628Y-108850000D01*
X143750455Y-110174040D02*
X148392589Y-110174040D01*
X142076414Y-108500000D02*
X143750455Y-110174040D01*
X149716628Y-108850000D02*
X150498800Y-108850000D01*
X148268523Y-109874520D02*
X143874520Y-109874520D01*
X150498800Y-108450000D02*
X149693042Y-108450000D01*
X149693042Y-108450000D02*
X148268523Y-109874520D01*
X143874520Y-109874520D02*
X140500000Y-106500000D01*
X144001414Y-109575000D02*
X148144458Y-109575000D01*
X149669455Y-108050001D02*
X150498800Y-108050001D01*
X141776859Y-107350445D02*
X144001414Y-109575000D01*
X148144458Y-109575000D02*
X149669455Y-108050001D01*
X141474511Y-105474511D02*
X141474511Y-107050926D01*
X140500000Y-104500000D02*
X141474511Y-105474511D01*
X141474511Y-107050926D02*
X141774031Y-107350445D01*
X141774031Y-107350445D02*
X141776859Y-107350445D01*
X141774031Y-105350446D02*
X141774031Y-106924031D01*
X141474511Y-105050926D02*
X141774031Y-105350446D01*
X141474511Y-103474511D02*
X141474511Y-105050926D01*
X141774031Y-106924031D02*
X144125000Y-109275000D01*
X148020872Y-109275000D02*
X149645872Y-107649999D01*
X149645872Y-107649999D02*
X150498800Y-107649999D01*
X144125000Y-109275000D02*
X148020872Y-109275000D01*
X140500000Y-102500000D02*
X141474511Y-103474511D01*
X149622286Y-107250000D02*
X150498800Y-107250000D01*
X140500000Y-100500000D02*
X141474511Y-101474511D01*
X141774031Y-104926860D02*
X142073551Y-105226380D01*
X141474511Y-101474511D02*
X141474511Y-103050925D01*
X147898247Y-108974040D02*
X149622286Y-107250000D01*
X142073551Y-106799965D02*
X144247627Y-108974040D01*
X141474511Y-103050925D02*
X141774031Y-103350445D01*
X142073551Y-105226380D02*
X142073551Y-106799965D01*
X144247627Y-108974040D02*
X147898247Y-108974040D01*
X141774031Y-103350445D02*
X141774031Y-104926860D01*
X142073551Y-103223551D02*
X142073551Y-104802794D01*
X149598699Y-106850001D02*
X150498800Y-106850001D01*
X141474511Y-99474511D02*
X141474511Y-101050925D01*
X141774031Y-102924031D02*
X142073551Y-103223551D01*
X147774181Y-108674520D02*
X149598699Y-106850001D01*
X141474511Y-101050925D02*
X141774031Y-101350445D01*
X142373071Y-105102314D02*
X142373071Y-106675899D01*
X142073551Y-104802794D02*
X142373071Y-105102314D01*
X144371692Y-108674520D02*
X147774181Y-108674520D01*
X141774031Y-101350445D02*
X141774031Y-102924031D01*
X142373071Y-106675899D02*
X144371692Y-108674520D01*
X140500000Y-98500000D02*
X141474511Y-99474511D01*
X147650115Y-108375000D02*
X149575116Y-106449999D01*
X142373071Y-103099485D02*
X142373071Y-104678728D01*
X141774031Y-100926859D02*
X142073551Y-101226380D01*
X144495757Y-108375000D02*
X147650115Y-108375000D01*
X142073551Y-101226380D02*
X142073551Y-102799965D01*
X142073551Y-102799965D02*
X142373071Y-103099485D01*
X140500000Y-96500000D02*
X141474511Y-97474511D01*
X141774031Y-99350446D02*
X141774031Y-100926859D01*
X142972110Y-106851353D02*
X144495757Y-108375000D01*
X142373071Y-104678728D02*
X142672591Y-104978248D01*
X141474511Y-99050925D02*
X141774031Y-99350446D01*
X141474511Y-97474511D02*
X141474511Y-99050925D01*
X142672591Y-104978248D02*
X142672591Y-106551833D01*
X142672591Y-106551833D02*
X142972110Y-106851353D01*
X149575116Y-106449999D02*
X150498800Y-106449999D01*
X149390000Y-96535000D02*
X149390000Y-98860000D01*
X152876440Y-102376440D02*
X150920000Y-102376440D01*
X153300001Y-111508881D02*
X153300001Y-112051200D01*
X150920000Y-102376440D02*
X150620000Y-102076440D01*
X153213810Y-111422690D02*
X153300001Y-111508881D01*
X152900000Y-102400000D02*
X152876440Y-102376440D01*
X150620000Y-102076440D02*
X150620000Y-100090000D01*
X151622690Y-111422690D02*
X153213810Y-111422690D01*
X151375000Y-111175000D02*
X151622690Y-111422690D01*
X149390000Y-98860000D02*
X150620000Y-100090000D01*
X156000000Y-103150000D02*
X156000000Y-100270000D01*
X155820000Y-100090000D02*
X153965000Y-98235000D01*
X153965000Y-98235000D02*
X153965000Y-96530000D01*
X154275000Y-104125000D02*
X153700000Y-104700000D01*
X153700000Y-104700000D02*
X153700000Y-105248800D01*
X154499999Y-111099999D02*
X154300000Y-110900000D01*
X155699999Y-105791122D02*
X155699999Y-105248800D01*
D20*
X155273008Y-113451992D02*
X157223008Y-113451992D01*
D22*
X155316121Y-106175000D02*
X155699999Y-105791122D01*
X154499999Y-112605199D02*
X155273008Y-113378208D01*
X154499999Y-112051200D02*
X154499999Y-111099999D01*
X155175000Y-106175000D02*
X155316121Y-106175000D01*
X154499999Y-112051200D02*
X154499999Y-112605199D01*
D20*
X153323008Y-113451992D02*
X155273008Y-113451992D01*
D22*
X153337876Y-111123170D02*
X153700000Y-111485294D01*
X152064926Y-111123170D02*
X153337876Y-111123170D01*
X154134084Y-102934084D02*
X153425840Y-102934084D01*
X151359949Y-110418193D02*
X152064926Y-111123170D01*
X153700000Y-111485294D02*
X153700000Y-112051200D01*
G04 #@! TA.AperFunction,Conductor*
G36*
X154552322Y-104770002D02*
G01*
X154598815Y-104823658D01*
X154610201Y-104876000D01*
X154610201Y-105672547D01*
X154611408Y-105678615D01*
X154621834Y-105731030D01*
X154619831Y-105731429D01*
X154625000Y-105757409D01*
X154625000Y-106674000D01*
X154604998Y-106742121D01*
X154551342Y-106788614D01*
X154499000Y-106800000D01*
X154026000Y-106800000D01*
X153957879Y-106779998D01*
X153911386Y-106726342D01*
X153900000Y-106674000D01*
X153900000Y-105879971D01*
X153920002Y-105811850D01*
X153929160Y-105800486D01*
X153933852Y-105797351D01*
X153978167Y-105731030D01*
X153989800Y-105672547D01*
X153989800Y-104876000D01*
X154009802Y-104807879D01*
X154063458Y-104761386D01*
X154115800Y-104750000D01*
X154484201Y-104750000D01*
X154552322Y-104770002D01*
G37*
G04 #@! TD.AperFunction*
G04 #@! TA.AperFunction,Conductor*
G36*
X156692121Y-104770002D02*
G01*
X156738614Y-104823658D01*
X156750000Y-104876000D01*
X156750000Y-105800000D01*
X157674000Y-105800000D01*
X157742121Y-105820002D01*
X157788614Y-105873658D01*
X157800000Y-105926000D01*
X157800000Y-106034199D01*
X157779998Y-106102320D01*
X157726342Y-106148813D01*
X157674000Y-106160199D01*
X156877453Y-106160199D01*
X156871385Y-106161406D01*
X156831140Y-106169411D01*
X156831139Y-106169411D01*
X156818970Y-106171832D01*
X156752649Y-106216147D01*
X156752141Y-106216908D01*
X156696811Y-106247121D01*
X156670028Y-106250000D01*
X156126000Y-106250000D01*
X156057879Y-106229998D01*
X156011386Y-106176342D01*
X156000000Y-106124000D01*
X156000000Y-104876000D01*
X156020002Y-104807879D01*
X156073658Y-104761386D01*
X156126000Y-104750000D01*
X156624000Y-104750000D01*
X156692121Y-104770002D01*
G37*
G04 #@! TD.AperFunction*
M02*
