G04 #@! TF.GenerationSoftware,KiCad,Pcbnew,(6.0.0-0)*
G04 #@! TF.CreationDate,2022-05-15T17:03:53+02:00*
G04 #@! TF.ProjectId,rp2040_stamp,72703230-3430-45f7-9374-616d702e6b69,rev?*
G04 #@! TF.SameCoordinates,Original*
G04 #@! TF.FileFunction,Legend,Bot*
G04 #@! TF.FilePolarity,Positive*
%FSLAX46Y46*%
G04 Gerber Fmt 4.6, Leading zero omitted, Abs format (unit mm)*
G04 Created by KiCad (PCBNEW (6.0.0-0)) date 2022-05-15 17:03:53*
%MOMM*%
%LPD*%
G01*
G04 APERTURE LIST*
%ADD10C,0.150000*%
%ADD11C,0.400000*%
%ADD12C,0.100000*%
%ADD13C,0.110000*%
%ADD14C,0.120000*%
%ADD15C,0.010000*%
G04 APERTURE END LIST*
D10*
X153100000Y-114800000D02*
X152500000Y-115400000D01*
D11*
X140950001Y-94300000D02*
G75*
G03*
X140950001Y-94300000I-650000J0D01*
G01*
D12*
X152850000Y-113600001D02*
X152400000Y-113550001D01*
X152400000Y-113550001D02*
X151914045Y-113752529D01*
X151914045Y-113752529D02*
X151789044Y-113952529D01*
X151789044Y-113952529D02*
X151750000Y-114225001D01*
X151750000Y-114225001D02*
X151850001Y-114675001D01*
X151850001Y-114675001D02*
X152025000Y-114875001D01*
X152025000Y-114875001D02*
X151850000Y-114550000D01*
X151850000Y-114550000D02*
X151850000Y-113850000D01*
X151850000Y-113850000D02*
X152200000Y-113750000D01*
X152200000Y-113750000D02*
X152700000Y-113750000D01*
X152700000Y-113750000D02*
X153050000Y-113800000D01*
X153050000Y-113800000D02*
X152850000Y-113600001D01*
G36*
X152850000Y-113600001D02*
G01*
X153050000Y-113800000D01*
X152700000Y-113750000D01*
X152200000Y-113750000D01*
X151853805Y-113848913D01*
X151850000Y-113855000D01*
X151850000Y-114550000D01*
X152025000Y-114875001D01*
X151850001Y-114675001D01*
X151750000Y-114225001D01*
X151789044Y-113952529D01*
X151850000Y-113855000D01*
X151850000Y-113850000D01*
X151853805Y-113848913D01*
X151914045Y-113752529D01*
X152400000Y-113550001D01*
X152850000Y-113600001D01*
G37*
X152850000Y-113600001D02*
X153050000Y-113800000D01*
X152700000Y-113750000D01*
X152200000Y-113750000D01*
X151853805Y-113848913D01*
X151850000Y-113855000D01*
X151850000Y-114550000D01*
X152025000Y-114875001D01*
X151850001Y-114675001D01*
X151750000Y-114225001D01*
X151789044Y-113952529D01*
X151850000Y-113855000D01*
X151850000Y-113850000D01*
X151853805Y-113848913D01*
X151914045Y-113752529D01*
X152400000Y-113550001D01*
X152850000Y-113600001D01*
D10*
X160649999Y-103850000D02*
X160300000Y-103750000D01*
X160300000Y-103750000D02*
X159950001Y-103850000D01*
X159950001Y-103850000D02*
X159750000Y-104000000D01*
X159750000Y-104000000D02*
X160850000Y-104000000D01*
X160850000Y-104000000D02*
X160649999Y-103850000D01*
G36*
X160649999Y-103850000D02*
G01*
X160850000Y-104000000D01*
X159750000Y-104000000D01*
X159950001Y-103850000D01*
X160300000Y-103750000D01*
X160649999Y-103850000D01*
G37*
X160649999Y-103850000D02*
X160850000Y-104000000D01*
X159750000Y-104000000D01*
X159950001Y-103850000D01*
X160300000Y-103750000D01*
X160649999Y-103850000D01*
X162700000Y-95404999D02*
X162100000Y-94804999D01*
D13*
X163499999Y-116695000D02*
G75*
G03*
X163499999Y-116695000I-799999J0D01*
G01*
D10*
X140300001Y-95400001D02*
X139700000Y-94800000D01*
X141399999Y-116700000D02*
X140799999Y-117300000D01*
X162700000Y-115595001D02*
X163300000Y-116195001D01*
D13*
X163499999Y-94305000D02*
G75*
G03*
X163499999Y-94305000I-799999J0D01*
G01*
D12*
X141025000Y-116950000D02*
X141075000Y-116700000D01*
X141075000Y-116700000D02*
X141024999Y-116400000D01*
X141024999Y-116400000D02*
X141025000Y-116950000D01*
G36*
X141075000Y-116700000D02*
G01*
X141025000Y-116950000D01*
X141024999Y-116400000D01*
X141075000Y-116700000D01*
G37*
X141075000Y-116700000D02*
X141025000Y-116950000D01*
X141024999Y-116400000D01*
X141075000Y-116700000D01*
D10*
X163100000Y-94905000D02*
X162300000Y-94905000D01*
X162300000Y-94905000D02*
X162400000Y-95104999D01*
X162400000Y-95104999D02*
X163000000Y-95104999D01*
X163000000Y-95104999D02*
X163100000Y-94905000D01*
G36*
X163000000Y-95104999D02*
G01*
X162400000Y-95104999D01*
X162300000Y-94905000D01*
X163100000Y-94905000D01*
X163000000Y-95104999D01*
G37*
X163000000Y-95104999D02*
X162400000Y-95104999D01*
X162300000Y-94905000D01*
X163100000Y-94905000D01*
X163000000Y-95104999D01*
D13*
X153299999Y-114300001D02*
G75*
G03*
X153299999Y-114300001I-799999J0D01*
G01*
D10*
X162350000Y-117345000D02*
X162700000Y-117445000D01*
X162700000Y-117445000D02*
X163050000Y-117345000D01*
X163050000Y-117345000D02*
X163250000Y-117195000D01*
X163250000Y-117195000D02*
X162150000Y-117195000D01*
X162150000Y-117195000D02*
X162350000Y-117345000D01*
G36*
X163050000Y-117345000D02*
G01*
X162700000Y-117445000D01*
X162350000Y-117345000D01*
X162150000Y-117195000D01*
X163250000Y-117195000D01*
X163050000Y-117345000D01*
G37*
X163050000Y-117345000D02*
X162700000Y-117445000D01*
X162350000Y-117345000D01*
X162150000Y-117195000D01*
X163250000Y-117195000D01*
X163050000Y-117345000D01*
X163050000Y-93655000D02*
X162700000Y-93555000D01*
X162700000Y-93555000D02*
X162350000Y-93655000D01*
X162350000Y-93655000D02*
X162150000Y-93805000D01*
X162150000Y-93805000D02*
X163250000Y-93805000D01*
X163250000Y-93805000D02*
X163050000Y-93655000D01*
G36*
X163050000Y-93655000D02*
G01*
X163250000Y-93805000D01*
X162150000Y-93805000D01*
X162350000Y-93655000D01*
X162700000Y-93555000D01*
X163050000Y-93655000D01*
G37*
X163050000Y-93655000D02*
X163250000Y-93805000D01*
X162150000Y-93805000D01*
X162350000Y-93655000D01*
X162700000Y-93555000D01*
X163050000Y-93655000D01*
X162100000Y-116195001D02*
X162700000Y-115595001D01*
X139600000Y-116350000D02*
X139550000Y-116800000D01*
X139550000Y-116800000D02*
X139775000Y-117250000D01*
X139775000Y-117250000D02*
X139975000Y-117375000D01*
X139975000Y-117375000D02*
X140225000Y-117450000D01*
X140225000Y-117450000D02*
X140675000Y-117349999D01*
X140675000Y-117349999D02*
X140875000Y-117175000D01*
X140875000Y-117175000D02*
X139900000Y-117275000D01*
X139900000Y-117275000D02*
X139700000Y-117000000D01*
X139700000Y-117000000D02*
X139650001Y-116550000D01*
X139650001Y-116550000D02*
X139775000Y-116225000D01*
X139775000Y-116225000D02*
X139600000Y-116350000D01*
G36*
X139650001Y-116550000D02*
G01*
X139700000Y-117000000D01*
X139900000Y-117275000D01*
X140875000Y-117175000D01*
X140675000Y-117349999D01*
X140225000Y-117450000D01*
X139975000Y-117375000D01*
X139775000Y-117250000D01*
X139550000Y-116800000D01*
X139600000Y-116350000D01*
X139775000Y-116225000D01*
X139650001Y-116550000D01*
G37*
X139650001Y-116550000D02*
X139700000Y-117000000D01*
X139900000Y-117275000D01*
X140875000Y-117175000D01*
X140675000Y-117349999D01*
X140225000Y-117450000D01*
X139975000Y-117375000D01*
X139775000Y-117250000D01*
X139550000Y-116800000D01*
X139600000Y-116350000D01*
X139775000Y-116225000D01*
X139650001Y-116550000D01*
X152500000Y-115400000D02*
X152800000Y-115100000D01*
X152800000Y-115100000D02*
X152200000Y-115100000D01*
X152200000Y-115100000D02*
X152500000Y-115400000D01*
G36*
X152500000Y-115400000D02*
G01*
X152200000Y-115100000D01*
X152800000Y-115100000D01*
X152500000Y-115400000D01*
G37*
X152500000Y-115400000D02*
X152200000Y-115100000D01*
X152800000Y-115100000D01*
X152500000Y-115400000D01*
X140799999Y-116100000D02*
X141399999Y-116700000D01*
X163250000Y-94850000D02*
X162700000Y-95404999D01*
X162700000Y-95404999D02*
X163000000Y-95104999D01*
X163000000Y-95104999D02*
X162400000Y-95104999D01*
X162400000Y-95104999D02*
X162700000Y-95404999D01*
G36*
X162700000Y-95404999D02*
G01*
X162400000Y-95104999D01*
X163000000Y-95104999D01*
X162700000Y-95404999D01*
G37*
X162700000Y-95404999D02*
X162400000Y-95104999D01*
X163000000Y-95104999D01*
X162700000Y-95404999D01*
X152500000Y-115400000D02*
X151900000Y-114800000D01*
X162300000Y-116095000D02*
X163100000Y-116095000D01*
X163100000Y-116095000D02*
X163000000Y-115895001D01*
X163000000Y-115895001D02*
X162400000Y-115895001D01*
X162400000Y-115895001D02*
X162300000Y-116095000D01*
G36*
X163100000Y-116095000D02*
G01*
X162300000Y-116095000D01*
X162400000Y-115895001D01*
X163000000Y-115895001D01*
X163100000Y-116095000D01*
G37*
X163100000Y-116095000D02*
X162300000Y-116095000D01*
X162400000Y-115895001D01*
X163000000Y-115895001D01*
X163100000Y-116095000D01*
X159950002Y-105150000D02*
X160300001Y-105250000D01*
X160300001Y-105250000D02*
X160650000Y-105150000D01*
X160650000Y-105150000D02*
X160850001Y-105000000D01*
X160850001Y-105000000D02*
X159750001Y-105000000D01*
X159750001Y-105000000D02*
X159950002Y-105150000D01*
G36*
X160650000Y-105150000D02*
G01*
X160300001Y-105250000D01*
X159950002Y-105150000D01*
X159750001Y-105000000D01*
X160850001Y-105000000D01*
X160650000Y-105150000D01*
G37*
X160650000Y-105150000D02*
X160300001Y-105250000D01*
X159950002Y-105150000D01*
X159750001Y-105000000D01*
X160850001Y-105000000D01*
X160650000Y-105150000D01*
X160845001Y-103950000D02*
X161400000Y-104500000D01*
X162700000Y-115595001D02*
X162400000Y-115895001D01*
X162400000Y-115895001D02*
X163000000Y-115895001D01*
X163000000Y-115895001D02*
X162700000Y-115595001D01*
G36*
X163000000Y-115895001D02*
G01*
X162400000Y-115895001D01*
X162700000Y-115595001D01*
X163000000Y-115895001D01*
G37*
X163000000Y-115895001D02*
X162400000Y-115895001D01*
X162700000Y-115595001D01*
X163000000Y-115895001D01*
D13*
X161100000Y-104500000D02*
G75*
G03*
X161100000Y-104500000I-799999J0D01*
G01*
D10*
X161400000Y-104500000D02*
X160800000Y-105100000D01*
D12*
X153150000Y-113850001D02*
X153150000Y-114750001D01*
X153150000Y-114750001D02*
X153250000Y-114300001D01*
X153250000Y-114300001D02*
X153150000Y-113850001D01*
G36*
X153250000Y-114300001D02*
G01*
X153150000Y-114750001D01*
X153150000Y-113850001D01*
X153250000Y-114300001D01*
G37*
X153250000Y-114300001D02*
X153150000Y-114750001D01*
X153150000Y-113850001D01*
X153250000Y-114300001D01*
D10*
X140300001Y-95400001D02*
X140600002Y-95100000D01*
X140600002Y-95100000D02*
X140000000Y-95100000D01*
X140000000Y-95100000D02*
X140300001Y-95400001D01*
G36*
X140300001Y-95400001D02*
G01*
X140000000Y-95100000D01*
X140600002Y-95100000D01*
X140300001Y-95400001D01*
G37*
X140300001Y-95400001D02*
X140000000Y-95100000D01*
X140600002Y-95100000D01*
X140300001Y-95400001D01*
X141399999Y-116700000D02*
X141099999Y-116400000D01*
X141099999Y-116400000D02*
X141099999Y-117000000D01*
X141099999Y-117000000D02*
X141399999Y-116700000D01*
G36*
X141399999Y-116700000D02*
G01*
X141099999Y-117000000D01*
X141099999Y-116400000D01*
X141399999Y-116700000D01*
G37*
X141399999Y-116700000D02*
X141099999Y-117000000D01*
X141099999Y-116400000D01*
X141399999Y-116700000D01*
X152550000Y-113725000D02*
X152550000Y-114775000D01*
X139850000Y-116100000D02*
X140750000Y-116100000D01*
X140750000Y-116100000D02*
X140300000Y-115950000D01*
X140300000Y-115950000D02*
X139850000Y-116100000D01*
G36*
X140750000Y-116100000D02*
G01*
X139850000Y-116100000D01*
X140300000Y-115950000D01*
X140750000Y-116100000D01*
G37*
X140750000Y-116100000D02*
X139850000Y-116100000D01*
X140300000Y-115950000D01*
X140750000Y-116100000D01*
X140900002Y-94800000D02*
X140300001Y-95400001D01*
D12*
X152025000Y-114800000D02*
X152500000Y-115200000D01*
X152500000Y-115200000D02*
X153000000Y-114800000D01*
X153000000Y-114800000D02*
X152025000Y-114800000D01*
G36*
X152500000Y-115200000D02*
G01*
X152025000Y-114800000D01*
X153000000Y-114800000D01*
X152500000Y-115200000D01*
G37*
X152500000Y-115200000D02*
X152025000Y-114800000D01*
X153000000Y-114800000D01*
X152500000Y-115200000D01*
D13*
X141099999Y-116700000D02*
G75*
G03*
X141099999Y-116700000I-799999J0D01*
G01*
D10*
X161400000Y-104500000D02*
X161050000Y-104200000D01*
X161050000Y-104200000D02*
X161050000Y-104800000D01*
X161050000Y-104800000D02*
X161400000Y-104500000D01*
G36*
X161400000Y-104500000D02*
G01*
X161050000Y-104800000D01*
X161050000Y-104200000D01*
X161400000Y-104500000D01*
G37*
X161400000Y-104500000D02*
X161050000Y-104800000D01*
X161050000Y-104200000D01*
X161400000Y-104500000D01*
X144934761Y-105326666D02*
X144982380Y-105469523D01*
X144982380Y-105707619D01*
X144934761Y-105802857D01*
X144887142Y-105850476D01*
X144791904Y-105898095D01*
X144696666Y-105898095D01*
X144601428Y-105850476D01*
X144553809Y-105802857D01*
X144506190Y-105707619D01*
X144458571Y-105517142D01*
X144410952Y-105421904D01*
X144363333Y-105374285D01*
X144268095Y-105326666D01*
X144172857Y-105326666D01*
X144077619Y-105374285D01*
X144030000Y-105421904D01*
X143982380Y-105517142D01*
X143982380Y-105755238D01*
X144030000Y-105898095D01*
X143982380Y-106231428D02*
X144982380Y-106469523D01*
X144268095Y-106660000D01*
X144982380Y-106850476D01*
X143982380Y-107088571D01*
X144982380Y-107993333D02*
X144982380Y-107421904D01*
X144982380Y-107707619D02*
X143982380Y-107707619D01*
X144125238Y-107612380D01*
X144220476Y-107517142D01*
X144268095Y-107421904D01*
G36*
X160264860Y-105008767D02*
G01*
X159627744Y-105008767D01*
X159600000Y-104900000D01*
X159550000Y-104751747D01*
X159550000Y-104635573D01*
X159627744Y-104635573D01*
X159636634Y-104708668D01*
X159663304Y-104774602D01*
X159707754Y-104833375D01*
X159765415Y-104879368D01*
X159831720Y-104906964D01*
X159906668Y-104916163D01*
X159973343Y-104910360D01*
X160035573Y-104892950D01*
X160093358Y-104863934D01*
X160121139Y-104842821D01*
X160130029Y-104835042D01*
X160172256Y-104768367D01*
X160131140Y-104696136D01*
X160066688Y-104659464D01*
X159992234Y-104695024D01*
X159922781Y-104718361D01*
X159849438Y-104697247D01*
X159825546Y-104638906D01*
X159851661Y-104580010D01*
X159911113Y-104558341D01*
X159964452Y-104578343D01*
X160025016Y-104603902D01*
X160095024Y-104582788D01*
X160146698Y-104548895D01*
X160158921Y-104521669D01*
X160153365Y-104469718D01*
X160136696Y-104342758D01*
X160119750Y-104217742D01*
X160113360Y-104171626D01*
X160105581Y-104148289D01*
X160089468Y-104118286D01*
X160060576Y-104094394D01*
X160015570Y-104083837D01*
X159846660Y-104084948D01*
X159742202Y-104084948D01*
X159703309Y-104086615D01*
X159674416Y-104097172D01*
X159651913Y-104127176D01*
X159644412Y-104186072D01*
X159651358Y-104239690D01*
X159672194Y-104267193D01*
X159699419Y-104277750D01*
X159735535Y-104279417D01*
X159930004Y-104279417D01*
X159941116Y-104363872D01*
X159902223Y-104361649D01*
X159834189Y-104370478D01*
X159770848Y-104396962D01*
X159712199Y-104441104D01*
X159665279Y-104498024D01*
X159637128Y-104562847D01*
X159627744Y-104635573D01*
X159550000Y-104635573D01*
X159550000Y-104475000D01*
X159600000Y-104100000D01*
X159627744Y-103991233D01*
X160264860Y-103991233D01*
X160264860Y-105008767D01*
G37*
G36*
X153150000Y-113875000D02*
G01*
X153188184Y-114776544D01*
X152611816Y-114776544D01*
X152611816Y-114586150D01*
X152704420Y-114586150D01*
X152706087Y-114624488D01*
X152716644Y-114653936D01*
X152746092Y-114676439D01*
X152803321Y-114683940D01*
X152859162Y-114676717D01*
X152888887Y-114655048D01*
X152899444Y-114624488D01*
X152901111Y-114583928D01*
X152901111Y-114187211D01*
X152915558Y-114200546D01*
X152993345Y-114234995D01*
X153060576Y-114196101D01*
X153095580Y-114127204D01*
X153055575Y-114061640D01*
X152873330Y-113897175D01*
X152869996Y-113894952D01*
X152807211Y-113866060D01*
X152754426Y-113871616D01*
X152725534Y-113884396D01*
X152709976Y-113908287D01*
X152704420Y-113967184D01*
X152704420Y-114586150D01*
X152611816Y-114586150D01*
X152611816Y-113773456D01*
X153095580Y-113773456D01*
X153150000Y-113875000D01*
G37*
G36*
X150739395Y-97917968D02*
G01*
X150717805Y-97977975D01*
X150653035Y-97997978D01*
X150604775Y-97990993D01*
X150579375Y-97967498D01*
X150569215Y-97896378D01*
X150551435Y-97827798D01*
X150478410Y-97804938D01*
X150405385Y-97828433D01*
X150387605Y-97906538D01*
X150360935Y-97967498D01*
X150315215Y-97971308D01*
X150270765Y-97950353D01*
X150258065Y-97887488D01*
X150258065Y-97709688D01*
X150739395Y-97709688D01*
X150739395Y-97917968D01*
G37*
G36*
X150739395Y-98974608D02*
G01*
X150722409Y-99061603D01*
X150671450Y-99139708D01*
X150594774Y-99194953D01*
X150500635Y-99213368D01*
X150406179Y-99195429D01*
X150328550Y-99141613D01*
X150276639Y-99063666D01*
X150259335Y-98973338D01*
X150259335Y-98851418D01*
X150739395Y-98851418D01*
X150739395Y-98974608D01*
G37*
G36*
X151241690Y-100286331D02*
G01*
X151230958Y-100358677D01*
X151213187Y-100429624D01*
X151188547Y-100498487D01*
X151157277Y-100564603D01*
X151119676Y-100627335D01*
X151076108Y-100686080D01*
X151026991Y-100740272D01*
X150972800Y-100789389D01*
X150914054Y-100832957D01*
X150851322Y-100870558D01*
X150785206Y-100901828D01*
X150716343Y-100926468D01*
X150645397Y-100944239D01*
X150573050Y-100954970D01*
X150500000Y-100958559D01*
X150426950Y-100954970D01*
X150354603Y-100944239D01*
X150283657Y-100926468D01*
X150214794Y-100901828D01*
X150148678Y-100870558D01*
X150085946Y-100832957D01*
X150027200Y-100789389D01*
X149973009Y-100740272D01*
X149923892Y-100686080D01*
X149880324Y-100627335D01*
X149842723Y-100564603D01*
X149811453Y-100498487D01*
X149786813Y-100429624D01*
X149769042Y-100358677D01*
X149758310Y-100286331D01*
X149754722Y-100213281D01*
X149754722Y-99805188D01*
X150315215Y-99805188D01*
X150322200Y-99862973D01*
X150345695Y-99894088D01*
X150415545Y-99905518D01*
X150517145Y-99905518D01*
X150517145Y-100008388D01*
X150527940Y-100073158D01*
X150560325Y-100100463D01*
X150618110Y-100107448D01*
X150675895Y-100101098D01*
X150706375Y-100079508D01*
X150717805Y-100014738D01*
X150717805Y-99905518D01*
X150820675Y-99905518D01*
X150885445Y-99894723D01*
X150912750Y-99862338D01*
X150919735Y-99804553D01*
X150912750Y-99746768D01*
X150889255Y-99716288D01*
X150819405Y-99704858D01*
X150717805Y-99704858D01*
X150717805Y-99594368D01*
X150707645Y-99533408D01*
X150675260Y-99508008D01*
X150617475Y-99501658D01*
X150559690Y-99508643D01*
X150528575Y-99533408D01*
X150517145Y-99603258D01*
X150517145Y-99704858D01*
X150414275Y-99704858D01*
X150349505Y-99715018D01*
X150322200Y-99747403D01*
X150315215Y-99805188D01*
X149754722Y-99805188D01*
X149754722Y-98739658D01*
X150033275Y-98739658D01*
X150034545Y-98974608D01*
X150042840Y-99063904D01*
X150067724Y-99147645D01*
X150109197Y-99225829D01*
X150167260Y-99298458D01*
X150237427Y-99359576D01*
X150315215Y-99403233D01*
X150400622Y-99429426D01*
X150493650Y-99438158D01*
X150587035Y-99429625D01*
X150673514Y-99404026D01*
X150753087Y-99361362D01*
X150825755Y-99301633D01*
X150886318Y-99229758D01*
X150929578Y-99150661D01*
X150955533Y-99064341D01*
X150964185Y-98970798D01*
X150964185Y-98738388D01*
X150956248Y-98675523D01*
X150932435Y-98641868D01*
X150851155Y-98626628D01*
X150145035Y-98626628D01*
X150100585Y-98628533D01*
X150067565Y-98640598D01*
X150041847Y-98674253D01*
X150033275Y-98739658D01*
X149754722Y-98739658D01*
X149754722Y-97917968D01*
X150033275Y-97917968D01*
X150042306Y-97991628D01*
X150069399Y-98056821D01*
X150114555Y-98113548D01*
X150173257Y-98159409D01*
X150239297Y-98186925D01*
X150312675Y-98196098D01*
X150393002Y-98184033D01*
X150466345Y-98147838D01*
X150528011Y-98189465D01*
X150594474Y-98214442D01*
X150665735Y-98222768D01*
X150745816Y-98211973D01*
X150816724Y-98182974D01*
X150878460Y-98135773D01*
X150926085Y-98075448D01*
X150954660Y-98007079D01*
X150964185Y-97930668D01*
X150964185Y-97596658D01*
X150952120Y-97526173D01*
X150915925Y-97492518D01*
X150849885Y-97484898D01*
X150145035Y-97484898D01*
X150100585Y-97486803D01*
X150067565Y-97498868D01*
X150041847Y-97532523D01*
X150033275Y-97597928D01*
X150033275Y-97917968D01*
X149754722Y-97917968D01*
X149754722Y-97051828D01*
X150019305Y-97051828D01*
X150024226Y-97124694D01*
X150038990Y-97190893D01*
X150078995Y-97277888D01*
X150103125Y-97309638D01*
X150165355Y-97349008D01*
X150235205Y-97318528D01*
X150282830Y-97274713D01*
X150298705Y-97229628D01*
X150273305Y-97163588D01*
X150260605Y-97148983D01*
X150244095Y-97129298D01*
X150227585Y-97061353D01*
X150247270Y-96992773D01*
X150301880Y-96965468D01*
X150358395Y-96997853D01*
X150387605Y-97078498D01*
X150397289Y-97128980D01*
X150411100Y-97183908D01*
X150428721Y-97238835D01*
X150449835Y-97289318D01*
X150481109Y-97333609D01*
X150529210Y-97369963D01*
X150592234Y-97394251D01*
X150668275Y-97402348D01*
X150745904Y-97394093D01*
X150813690Y-97369328D01*
X150869411Y-97331228D01*
X150910845Y-97282968D01*
X150948239Y-97212835D01*
X150970676Y-97139599D01*
X150978155Y-97063258D01*
X150974504Y-97005155D01*
X150963550Y-96950228D01*
X150927355Y-96863868D01*
X150887350Y-96806718D01*
X150848615Y-96769888D01*
X150834645Y-96758458D01*
X150761620Y-96725438D01*
X150723996Y-96739090D01*
X150675895Y-96780048D01*
X150645415Y-96847358D01*
X150661290Y-96889903D01*
X150708915Y-96946418D01*
X150750190Y-96997218D01*
X150769875Y-97058178D01*
X150759151Y-97123794D01*
X150726977Y-97163164D01*
X150673355Y-97176288D01*
X150624460Y-97143903D01*
X150595885Y-97063258D01*
X150584296Y-97013093D01*
X150567310Y-96959118D01*
X150545879Y-96905143D01*
X150520955Y-96854978D01*
X150486506Y-96810686D01*
X150436500Y-96774333D01*
X150372841Y-96750044D01*
X150297435Y-96741948D01*
X150226103Y-96751190D01*
X150161122Y-96778919D01*
X150102490Y-96825133D01*
X150056276Y-96887292D01*
X150028548Y-96962857D01*
X150019305Y-97051828D01*
X149754722Y-97051828D01*
X149754722Y-95935498D01*
X150033275Y-95935498D01*
X150040895Y-96000268D01*
X150067565Y-96033288D01*
X150147575Y-96048528D01*
X150528575Y-96048528D01*
X150604140Y-96058053D01*
X150675895Y-96086628D01*
X150733045Y-96143778D01*
X150754635Y-96233948D01*
X150737490Y-96314910D01*
X150686055Y-96372378D01*
X150612078Y-96406668D01*
X150527305Y-96418098D01*
X150138685Y-96418098D01*
X150068835Y-96430798D01*
X150040895Y-96467628D01*
X150033275Y-96527953D01*
X150039625Y-96585738D01*
X150054865Y-96618758D01*
X150081535Y-96635268D01*
X150147575Y-96642888D01*
X150531115Y-96642888D01*
X150613030Y-96636379D01*
X150691135Y-96616853D01*
X150765430Y-96584309D01*
X150835915Y-96538748D01*
X150894494Y-96480645D01*
X150940690Y-96407938D01*
X150970694Y-96323641D01*
X150980695Y-96230773D01*
X150970535Y-96138063D01*
X150940055Y-96054243D01*
X150893065Y-95982329D01*
X150833375Y-95925338D01*
X150763843Y-95880332D01*
X150689865Y-95848185D01*
X150611443Y-95828897D01*
X150528575Y-95822468D01*
X150146305Y-95822468D01*
X150101220Y-95824373D01*
X150067565Y-95836438D01*
X150040895Y-95870728D01*
X150033275Y-95935498D01*
X149754722Y-95935498D01*
X149754722Y-94499551D01*
X151245278Y-94499551D01*
X151245278Y-100213281D01*
X151241690Y-100286331D01*
G37*
D14*
X144230000Y-104910000D02*
X144830000Y-104910000D01*
X143530000Y-102810000D02*
X143530000Y-104210000D01*
X145530000Y-104210000D02*
X145530000Y-102810000D01*
X144830000Y-102110000D02*
X144230000Y-102110000D01*
X144830000Y-104910000D02*
G75*
G03*
X145530000Y-104210000I1J699999D01*
G01*
X145530000Y-102810000D02*
G75*
G03*
X144830000Y-102110000I-699999J1D01*
G01*
X144230000Y-102110000D02*
G75*
G03*
X143530000Y-102810000I-1J-699999D01*
G01*
X143530000Y-104210000D02*
G75*
G03*
X144230000Y-104910000I699999J-1D01*
G01*
G36*
X163450000Y-94000000D02*
G01*
X163450000Y-94375000D01*
X163400000Y-94800000D01*
X163250000Y-94857100D01*
X162641245Y-94857100D01*
X162641245Y-94666151D01*
X162733849Y-94666151D01*
X162741072Y-94722269D01*
X162764964Y-94751161D01*
X162833862Y-94764496D01*
X163268361Y-94764496D01*
X163337258Y-94734493D01*
X163366151Y-94664484D01*
X163355733Y-94606838D01*
X163324479Y-94553914D01*
X163278501Y-94506964D01*
X163223911Y-94467237D01*
X163165014Y-94431399D01*
X163106118Y-94396117D01*
X163051528Y-94358751D01*
X163005550Y-94316662D01*
X162974296Y-94270823D01*
X162963878Y-94222206D01*
X162971657Y-94193869D01*
X162988881Y-94163866D01*
X163018329Y-94142196D01*
X163073892Y-94132195D01*
X163135566Y-94158309D01*
X163165014Y-94209982D01*
X163169459Y-94235541D01*
X163169459Y-94242209D01*
X163171126Y-94278880D01*
X163181683Y-94306661D01*
X163211687Y-94326664D01*
X163268361Y-94333331D01*
X163330313Y-94322774D01*
X163360594Y-94291104D01*
X163366151Y-94234430D01*
X163356952Y-94160038D01*
X163329356Y-94090955D01*
X163283363Y-94027182D01*
X163222491Y-93976250D01*
X163150259Y-93945690D01*
X163066669Y-93935504D01*
X162983016Y-93945814D01*
X162910600Y-93976743D01*
X162849419Y-94028293D01*
X162803117Y-94093054D01*
X162775336Y-94163619D01*
X162766076Y-94239986D01*
X162773021Y-94301661D01*
X162793857Y-94360001D01*
X162824416Y-94411119D01*
X162860532Y-94451124D01*
X162938319Y-94512520D01*
X163007217Y-94550025D01*
X163034998Y-94561138D01*
X163034998Y-94566694D01*
X162831639Y-94566694D01*
X162766631Y-94577251D01*
X162740517Y-94609477D01*
X162733849Y-94666151D01*
X162641245Y-94666151D01*
X162641245Y-93842900D01*
X163366151Y-93842900D01*
X163450000Y-94000000D01*
G37*
D15*
X162240000Y-116905000D02*
X162200000Y-116895000D01*
X162200000Y-116895000D02*
X162170000Y-116865000D01*
X162170000Y-116865000D02*
X162150000Y-116815000D01*
X162150000Y-116815000D02*
X162130000Y-116745000D01*
X162130000Y-116745000D02*
X162130000Y-116655000D01*
X162130000Y-116655000D02*
X162140000Y-116575000D01*
X162140000Y-116575000D02*
X162160000Y-116515000D01*
X162160000Y-116515000D02*
X162180000Y-116475000D01*
X162180000Y-116475000D02*
X162220000Y-116445000D01*
X162220000Y-116445000D02*
X162260000Y-116445000D01*
X162260000Y-116445000D02*
X162300000Y-116465000D01*
X162300000Y-116465000D02*
X162330000Y-116505000D01*
X162330000Y-116505000D02*
X162350000Y-116555000D01*
X162350000Y-116555000D02*
X162360000Y-116635000D01*
X162360000Y-116635000D02*
X162360000Y-116725000D01*
X162360000Y-116725000D02*
X162350000Y-116805000D01*
X162350000Y-116805000D02*
X162330000Y-116855000D01*
X162330000Y-116855000D02*
X162300000Y-116895000D01*
X162300000Y-116895000D02*
X162260000Y-116905000D01*
X162260000Y-116905000D02*
X162240000Y-116905000D01*
X162240000Y-116905000D02*
X162240000Y-116905000D01*
G36*
X162300000Y-116465000D02*
G01*
X162330000Y-116505000D01*
X162350000Y-116555000D01*
X162360000Y-116635000D01*
X162360000Y-116725000D01*
X162350000Y-116805000D01*
X162330000Y-116855000D01*
X162300000Y-116895000D01*
X162260000Y-116905000D01*
X162240000Y-116905000D01*
X162200000Y-116895000D01*
X162170000Y-116865000D01*
X162150000Y-116815000D01*
X162130000Y-116745000D01*
X162130000Y-116655000D01*
X162140000Y-116575000D01*
X162160000Y-116515000D01*
X162180000Y-116475000D01*
X162220000Y-116445000D01*
X162260000Y-116445000D01*
X162300000Y-116465000D01*
G37*
X162300000Y-116465000D02*
X162330000Y-116505000D01*
X162350000Y-116555000D01*
X162360000Y-116635000D01*
X162360000Y-116725000D01*
X162350000Y-116805000D01*
X162330000Y-116855000D01*
X162300000Y-116895000D01*
X162260000Y-116905000D01*
X162240000Y-116905000D01*
X162200000Y-116895000D01*
X162170000Y-116865000D01*
X162150000Y-116815000D01*
X162130000Y-116745000D01*
X162130000Y-116655000D01*
X162140000Y-116575000D01*
X162160000Y-116515000D01*
X162180000Y-116475000D01*
X162220000Y-116445000D01*
X162260000Y-116445000D01*
X162300000Y-116465000D01*
X163250000Y-116105000D02*
X163400000Y-116295000D01*
X163400000Y-116295000D02*
X163500000Y-116895000D01*
X163500000Y-116895000D02*
X163350000Y-117195000D01*
X163350000Y-117195000D02*
X162150000Y-117195000D01*
X162150000Y-117195000D02*
X161900000Y-116945000D01*
X161900000Y-116945000D02*
X161900000Y-116395000D01*
X161900000Y-116395000D02*
X162200000Y-116105000D01*
X162200000Y-116105000D02*
X163250000Y-116105000D01*
X163250000Y-116105000D02*
X163270000Y-116325000D01*
X163270000Y-116325000D02*
X163220000Y-116295000D01*
X163220000Y-116295000D02*
X163170000Y-116275000D01*
X163170000Y-116275000D02*
X163100000Y-116265000D01*
X163100000Y-116265000D02*
X163040000Y-116265000D01*
X163040000Y-116265000D02*
X162980000Y-116275000D01*
X162980000Y-116275000D02*
X162930000Y-116305000D01*
X162930000Y-116305000D02*
X162880000Y-116335000D01*
X162880000Y-116335000D02*
X162840000Y-116375000D01*
X162840000Y-116375000D02*
X162810000Y-116425000D01*
X162810000Y-116425000D02*
X162790000Y-116485000D01*
X162790000Y-116485000D02*
X162780000Y-116545000D01*
X162780000Y-116545000D02*
X162780000Y-116605000D01*
X162780000Y-116605000D02*
X162560000Y-116625000D01*
X162560000Y-116625000D02*
X162560000Y-116565000D01*
X162560000Y-116565000D02*
X162550000Y-116515000D01*
X162550000Y-116515000D02*
X162530000Y-116455000D01*
X162530000Y-116455000D02*
X162500000Y-116395000D01*
X162500000Y-116395000D02*
X162480000Y-116355000D01*
X162480000Y-116355000D02*
X162450000Y-116305000D01*
X162450000Y-116305000D02*
X162390000Y-116285000D01*
X162390000Y-116285000D02*
X162340000Y-116255000D01*
X162340000Y-116255000D02*
X162280000Y-116245000D01*
X162280000Y-116245000D02*
X162220000Y-116245000D01*
X162220000Y-116245000D02*
X162160000Y-116255000D01*
X162160000Y-116255000D02*
X162110000Y-116275000D01*
X162110000Y-116275000D02*
X162060000Y-116315000D01*
X162060000Y-116315000D02*
X162020000Y-116355000D01*
X162020000Y-116355000D02*
X161990000Y-116405000D01*
X161990000Y-116405000D02*
X161970000Y-116455000D01*
X161970000Y-116455000D02*
X161950000Y-116515000D01*
X161950000Y-116515000D02*
X161940000Y-116575000D01*
X161940000Y-116575000D02*
X161930000Y-116635000D01*
X161930000Y-116635000D02*
X161930000Y-116695000D01*
X161930000Y-116695000D02*
X161930000Y-116765000D01*
X161930000Y-116765000D02*
X161940000Y-116825000D01*
X161940000Y-116825000D02*
X161960000Y-116885000D01*
X161960000Y-116885000D02*
X161980000Y-116935000D01*
X161980000Y-116935000D02*
X162000000Y-116975000D01*
X162000000Y-116975000D02*
X162040000Y-117025000D01*
X162040000Y-117025000D02*
X162080000Y-117065000D01*
X162080000Y-117065000D02*
X162130000Y-117085000D01*
X162130000Y-117085000D02*
X162190000Y-117105000D01*
X162190000Y-117105000D02*
X162250000Y-117105000D01*
X162250000Y-117105000D02*
X162310000Y-117105000D01*
X162310000Y-117105000D02*
X162370000Y-117085000D01*
X162370000Y-117085000D02*
X162420000Y-117055000D01*
X162420000Y-117055000D02*
X162470000Y-117025000D01*
X162470000Y-117025000D02*
X162500000Y-116975000D01*
X162500000Y-116975000D02*
X162520000Y-116925000D01*
X162520000Y-116925000D02*
X162540000Y-116865000D01*
X162540000Y-116865000D02*
X162550000Y-116815000D01*
X162550000Y-116815000D02*
X162560000Y-116755000D01*
X162560000Y-116755000D02*
X162560000Y-116695000D01*
X162560000Y-116695000D02*
X162560000Y-116625000D01*
X162560000Y-116625000D02*
X162780000Y-116605000D01*
X162780000Y-116605000D02*
X162790000Y-116655000D01*
X162790000Y-116655000D02*
X162810000Y-116715000D01*
X162810000Y-116715000D02*
X162850000Y-116765000D01*
X162850000Y-116765000D02*
X162890000Y-116805000D01*
X162890000Y-116805000D02*
X162940000Y-116845000D01*
X162940000Y-116845000D02*
X162990000Y-116875000D01*
X162990000Y-116875000D02*
X163040000Y-116895000D01*
X163040000Y-116895000D02*
X163010000Y-116905000D01*
X163010000Y-116905000D02*
X162890000Y-116905000D01*
X162890000Y-116905000D02*
X162800000Y-116915000D01*
X162800000Y-116915000D02*
X162750000Y-116945000D01*
X162750000Y-116945000D02*
X162740000Y-116995000D01*
X162740000Y-116995000D02*
X162750000Y-117065000D01*
X162750000Y-117065000D02*
X162780000Y-117105000D01*
X162780000Y-117105000D02*
X162840000Y-117105000D01*
X162840000Y-117105000D02*
X163250000Y-117105000D01*
X163250000Y-117105000D02*
X163310000Y-117105000D01*
X163310000Y-117105000D02*
X163360000Y-117075000D01*
X163360000Y-117075000D02*
X163390000Y-117025000D01*
X163390000Y-117025000D02*
X163380000Y-116965000D01*
X163380000Y-116965000D02*
X163360000Y-116915000D01*
X163360000Y-116915000D02*
X163320000Y-116865000D01*
X163320000Y-116865000D02*
X163270000Y-116825000D01*
X163270000Y-116825000D02*
X163120000Y-116735000D01*
X163120000Y-116735000D02*
X163070000Y-116705000D01*
X163070000Y-116705000D02*
X163030000Y-116665000D01*
X163030000Y-116665000D02*
X162990000Y-116615000D01*
X162990000Y-116615000D02*
X162980000Y-116555000D01*
X162980000Y-116555000D02*
X163000000Y-116505000D01*
X163000000Y-116505000D02*
X163050000Y-116475000D01*
X163050000Y-116475000D02*
X163110000Y-116465000D01*
X163110000Y-116465000D02*
X163160000Y-116495000D01*
X163160000Y-116495000D02*
X163180000Y-116545000D01*
X163180000Y-116545000D02*
X163190000Y-116605000D01*
X163190000Y-116605000D02*
X163210000Y-116655000D01*
X163210000Y-116655000D02*
X163260000Y-116675000D01*
X163260000Y-116675000D02*
X163340000Y-116665000D01*
X163340000Y-116665000D02*
X163380000Y-116635000D01*
X163380000Y-116635000D02*
X163390000Y-116585000D01*
X163390000Y-116585000D02*
X163380000Y-116525000D01*
X163380000Y-116525000D02*
X163370000Y-116465000D01*
X163370000Y-116465000D02*
X163350000Y-116415000D01*
X163350000Y-116415000D02*
X163310000Y-116365000D01*
X163310000Y-116365000D02*
X163270000Y-116325000D01*
X163270000Y-116325000D02*
X163200000Y-116105000D01*
X163200000Y-116105000D02*
X163250000Y-116105000D01*
X163250000Y-116105000D02*
X163250000Y-116105000D01*
G36*
X163400000Y-116295000D02*
G01*
X163500000Y-116895000D01*
X163350000Y-117195000D01*
X162150000Y-117195000D01*
X161900000Y-116945000D01*
X161900000Y-116765000D01*
X161930000Y-116765000D01*
X161940000Y-116825000D01*
X161960000Y-116885000D01*
X161980000Y-116935000D01*
X162000000Y-116975000D01*
X162040000Y-117025000D01*
X162080000Y-117065000D01*
X162130000Y-117085000D01*
X162190000Y-117105000D01*
X162310000Y-117105000D01*
X162370000Y-117085000D01*
X162470000Y-117025000D01*
X162488000Y-116995000D01*
X162740000Y-116995000D01*
X162750000Y-117065000D01*
X162780000Y-117105000D01*
X163310000Y-117105000D01*
X163360000Y-117075000D01*
X163390000Y-117025000D01*
X163380000Y-116965000D01*
X163360000Y-116915000D01*
X163320000Y-116865000D01*
X163270000Y-116825000D01*
X163070000Y-116705000D01*
X163030000Y-116665000D01*
X162990000Y-116615000D01*
X162980000Y-116555000D01*
X163000000Y-116505000D01*
X163050000Y-116475000D01*
X163110000Y-116465000D01*
X163160000Y-116495000D01*
X163180000Y-116545000D01*
X163190000Y-116605000D01*
X163210000Y-116655000D01*
X163260000Y-116675000D01*
X163340000Y-116665000D01*
X163380000Y-116635000D01*
X163390000Y-116585000D01*
X163370000Y-116465000D01*
X163350000Y-116415000D01*
X163310000Y-116365000D01*
X163270000Y-116325000D01*
X163220000Y-116295000D01*
X163170000Y-116275000D01*
X163100000Y-116265000D01*
X163040000Y-116265000D01*
X162980000Y-116275000D01*
X162880000Y-116335000D01*
X162840000Y-116375000D01*
X162810000Y-116425000D01*
X162790000Y-116485000D01*
X162780000Y-116545000D01*
X162780000Y-116605000D01*
X162790000Y-116655000D01*
X162810000Y-116715000D01*
X162850000Y-116765000D01*
X162890000Y-116805000D01*
X162940000Y-116845000D01*
X162990000Y-116875000D01*
X163040000Y-116895000D01*
X163010000Y-116905000D01*
X162890000Y-116905000D01*
X162800000Y-116915000D01*
X162750000Y-116945000D01*
X162740000Y-116995000D01*
X162488000Y-116995000D01*
X162500000Y-116975000D01*
X162520000Y-116925000D01*
X162540000Y-116865000D01*
X162550000Y-116815000D01*
X162560000Y-116755000D01*
X162560000Y-116565000D01*
X162550000Y-116515000D01*
X162530000Y-116455000D01*
X162480000Y-116355000D01*
X162450000Y-116305000D01*
X162390000Y-116285000D01*
X162340000Y-116255000D01*
X162280000Y-116245000D01*
X162220000Y-116245000D01*
X162160000Y-116255000D01*
X162110000Y-116275000D01*
X162060000Y-116315000D01*
X162020000Y-116355000D01*
X161990000Y-116405000D01*
X161970000Y-116455000D01*
X161950000Y-116515000D01*
X161930000Y-116635000D01*
X161930000Y-116765000D01*
X161900000Y-116765000D01*
X161900000Y-116395000D01*
X162200000Y-116105000D01*
X163250000Y-116105000D01*
X163400000Y-116295000D01*
G37*
X163400000Y-116295000D02*
X163500000Y-116895000D01*
X163350000Y-117195000D01*
X162150000Y-117195000D01*
X161900000Y-116945000D01*
X161900000Y-116765000D01*
X161930000Y-116765000D01*
X161940000Y-116825000D01*
X161960000Y-116885000D01*
X161980000Y-116935000D01*
X162000000Y-116975000D01*
X162040000Y-117025000D01*
X162080000Y-117065000D01*
X162130000Y-117085000D01*
X162190000Y-117105000D01*
X162310000Y-117105000D01*
X162370000Y-117085000D01*
X162470000Y-117025000D01*
X162488000Y-116995000D01*
X162740000Y-116995000D01*
X162750000Y-117065000D01*
X162780000Y-117105000D01*
X163310000Y-117105000D01*
X163360000Y-117075000D01*
X163390000Y-117025000D01*
X163380000Y-116965000D01*
X163360000Y-116915000D01*
X163320000Y-116865000D01*
X163270000Y-116825000D01*
X163070000Y-116705000D01*
X163030000Y-116665000D01*
X162990000Y-116615000D01*
X162980000Y-116555000D01*
X163000000Y-116505000D01*
X163050000Y-116475000D01*
X163110000Y-116465000D01*
X163160000Y-116495000D01*
X163180000Y-116545000D01*
X163190000Y-116605000D01*
X163210000Y-116655000D01*
X163260000Y-116675000D01*
X163340000Y-116665000D01*
X163380000Y-116635000D01*
X163390000Y-116585000D01*
X163370000Y-116465000D01*
X163350000Y-116415000D01*
X163310000Y-116365000D01*
X163270000Y-116325000D01*
X163220000Y-116295000D01*
X163170000Y-116275000D01*
X163100000Y-116265000D01*
X163040000Y-116265000D01*
X162980000Y-116275000D01*
X162880000Y-116335000D01*
X162840000Y-116375000D01*
X162810000Y-116425000D01*
X162790000Y-116485000D01*
X162780000Y-116545000D01*
X162780000Y-116605000D01*
X162790000Y-116655000D01*
X162810000Y-116715000D01*
X162850000Y-116765000D01*
X162890000Y-116805000D01*
X162940000Y-116845000D01*
X162990000Y-116875000D01*
X163040000Y-116895000D01*
X163010000Y-116905000D01*
X162890000Y-116905000D01*
X162800000Y-116915000D01*
X162750000Y-116945000D01*
X162740000Y-116995000D01*
X162488000Y-116995000D01*
X162500000Y-116975000D01*
X162520000Y-116925000D01*
X162540000Y-116865000D01*
X162550000Y-116815000D01*
X162560000Y-116755000D01*
X162560000Y-116565000D01*
X162550000Y-116515000D01*
X162530000Y-116455000D01*
X162480000Y-116355000D01*
X162450000Y-116305000D01*
X162390000Y-116285000D01*
X162340000Y-116255000D01*
X162280000Y-116245000D01*
X162220000Y-116245000D01*
X162160000Y-116255000D01*
X162110000Y-116275000D01*
X162060000Y-116315000D01*
X162020000Y-116355000D01*
X161990000Y-116405000D01*
X161970000Y-116455000D01*
X161950000Y-116515000D01*
X161930000Y-116635000D01*
X161930000Y-116765000D01*
X161900000Y-116765000D01*
X161900000Y-116395000D01*
X162200000Y-116105000D01*
X163250000Y-116105000D01*
X163400000Y-116295000D01*
G36*
X149241690Y-100151711D02*
G01*
X149230958Y-100224057D01*
X149213187Y-100295004D01*
X149188547Y-100363867D01*
X149157277Y-100429983D01*
X149119676Y-100492715D01*
X149076108Y-100551460D01*
X149026991Y-100605652D01*
X148972800Y-100654769D01*
X148914054Y-100698337D01*
X148851322Y-100735938D01*
X148785206Y-100767208D01*
X148716343Y-100791848D01*
X148645397Y-100809619D01*
X148573050Y-100820350D01*
X148500000Y-100823939D01*
X148426950Y-100820350D01*
X148354603Y-100809619D01*
X148283657Y-100791848D01*
X148214794Y-100767208D01*
X148148678Y-100735938D01*
X148085946Y-100698337D01*
X148027200Y-100654769D01*
X147973009Y-100605652D01*
X147923892Y-100551460D01*
X147880324Y-100492715D01*
X147842723Y-100429983D01*
X147811453Y-100363867D01*
X147786813Y-100295004D01*
X147769042Y-100224057D01*
X147758310Y-100151711D01*
X147754722Y-100078661D01*
X147754722Y-99508008D01*
X148023115Y-99508008D01*
X148031608Y-99598892D01*
X148057087Y-99683585D01*
X148099553Y-99762087D01*
X148159005Y-99834398D01*
X148231038Y-99894961D01*
X148311246Y-99938220D01*
X148399630Y-99964176D01*
X148496190Y-99972828D01*
X148593107Y-99964573D01*
X148682563Y-99939808D01*
X148764557Y-99898533D01*
X148839090Y-99840748D01*
X148901042Y-99770898D01*
X148945294Y-99693428D01*
X148971845Y-99608338D01*
X148980695Y-99515628D01*
X148971964Y-99422719D01*
X148945770Y-99337034D01*
X148902114Y-99258572D01*
X148840995Y-99187333D01*
X148767811Y-99128158D01*
X148687960Y-99085891D01*
X148601441Y-99060531D01*
X148508255Y-99052078D01*
X148406179Y-99061603D01*
X148310770Y-99090178D01*
X148226156Y-99134628D01*
X148156465Y-99191778D01*
X148100902Y-99260040D01*
X148058675Y-99337828D01*
X148032005Y-99421648D01*
X148023115Y-99508008D01*
X147754722Y-99508008D01*
X147754722Y-98857768D01*
X148034545Y-98857768D01*
X148046292Y-98928570D01*
X148081535Y-98963178D01*
X148147575Y-98969528D01*
X148853695Y-98969528D01*
X148898145Y-98967623D01*
X148931165Y-98955558D01*
X148956883Y-98921903D01*
X148965455Y-98856498D01*
X148953390Y-98786013D01*
X148917195Y-98752358D01*
X148852425Y-98744738D01*
X148146305Y-98744738D01*
X148102490Y-98746643D01*
X148068835Y-98758708D01*
X148043117Y-98792363D01*
X148034545Y-98857768D01*
X147754722Y-98857768D01*
X147754722Y-97963688D01*
X148033275Y-97963688D01*
X148034545Y-98198638D01*
X148042840Y-98287934D01*
X148067724Y-98371675D01*
X148109197Y-98449859D01*
X148167260Y-98522488D01*
X148237427Y-98583606D01*
X148315215Y-98627263D01*
X148400622Y-98653456D01*
X148493650Y-98662187D01*
X148587035Y-98653655D01*
X148673514Y-98628056D01*
X148753087Y-98585392D01*
X148825755Y-98525663D01*
X148886318Y-98453788D01*
X148929578Y-98374691D01*
X148955533Y-98288371D01*
X148964185Y-98194828D01*
X148964185Y-97962418D01*
X148956248Y-97899553D01*
X148932435Y-97865898D01*
X148851155Y-97850658D01*
X148145035Y-97850658D01*
X148100585Y-97852563D01*
X148067565Y-97864628D01*
X148041847Y-97898283D01*
X148033275Y-97963688D01*
X147754722Y-97963688D01*
X147754722Y-97636027D01*
X148026925Y-97636027D01*
X148039625Y-97695718D01*
X148075185Y-97759535D01*
X148120905Y-97780808D01*
X148183135Y-97765568D01*
X148887985Y-97521727D01*
X148909575Y-97512837D01*
X148943230Y-97479182D01*
X148964185Y-97414412D01*
X148943230Y-97349642D01*
X148901955Y-97313447D01*
X148463805Y-97164857D01*
X148614071Y-97114007D01*
X148731623Y-97074230D01*
X148816459Y-97045528D01*
X148868579Y-97027901D01*
X148887985Y-97021347D01*
X148909575Y-97009917D01*
X148934975Y-96989597D01*
X148964185Y-96919747D01*
X148945135Y-96853072D01*
X148907035Y-96818147D01*
X148887985Y-96809257D01*
X148183135Y-96564147D01*
X148120905Y-96550177D01*
X148075502Y-96571450D01*
X148040895Y-96635268D01*
X148028195Y-96701942D01*
X148048515Y-96747662D01*
X148110745Y-96776237D01*
X148534925Y-96915937D01*
X148117095Y-97054367D01*
X148072010Y-97079450D01*
X148043435Y-97119137D01*
X148034545Y-97171842D01*
X148055500Y-97232167D01*
X148096775Y-97267727D01*
X148537465Y-97413777D01*
X148110745Y-97553477D01*
X148067565Y-97569987D01*
X148040260Y-97593482D01*
X148026925Y-97636027D01*
X147754722Y-97636027D01*
X147754722Y-96148857D01*
X148019305Y-96148857D01*
X148024226Y-96221724D01*
X148038990Y-96287922D01*
X148078995Y-96374917D01*
X148103125Y-96406667D01*
X148165355Y-96446037D01*
X148235205Y-96415557D01*
X148282830Y-96371742D01*
X148298705Y-96326657D01*
X148273305Y-96260617D01*
X148260605Y-96246012D01*
X148244095Y-96226327D01*
X148227585Y-96158382D01*
X148247270Y-96089802D01*
X148301880Y-96062497D01*
X148358395Y-96094882D01*
X148387605Y-96175527D01*
X148397289Y-96226010D01*
X148411100Y-96280937D01*
X148428721Y-96335865D01*
X148449835Y-96386347D01*
X148481109Y-96430639D01*
X148529210Y-96466992D01*
X148592234Y-96491281D01*
X148668275Y-96499377D01*
X148745904Y-96491122D01*
X148813690Y-96466357D01*
X148869411Y-96428257D01*
X148910845Y-96379997D01*
X148948239Y-96309865D01*
X148970676Y-96236629D01*
X148978155Y-96160287D01*
X148974504Y-96102185D01*
X148963550Y-96047257D01*
X148927355Y-95960897D01*
X148887350Y-95903747D01*
X148848615Y-95866917D01*
X148834645Y-95855487D01*
X148761620Y-95822467D01*
X148723996Y-95836120D01*
X148675895Y-95877077D01*
X148645415Y-95944387D01*
X148661290Y-95986932D01*
X148708915Y-96043447D01*
X148750190Y-96094247D01*
X148769875Y-96155207D01*
X148759151Y-96220824D01*
X148726977Y-96260194D01*
X148673355Y-96273317D01*
X148624460Y-96240932D01*
X148595885Y-96160287D01*
X148584296Y-96110122D01*
X148567310Y-96056147D01*
X148545879Y-96002172D01*
X148520955Y-95952007D01*
X148486506Y-95907716D01*
X148436500Y-95871362D01*
X148372841Y-95847074D01*
X148297435Y-95838977D01*
X148226103Y-95848220D01*
X148161122Y-95875949D01*
X148102490Y-95922162D01*
X148056276Y-95984322D01*
X148028548Y-96059887D01*
X148019305Y-96148857D01*
X147754722Y-96148857D01*
X147754722Y-94499551D01*
X149245278Y-94499551D01*
X149245278Y-100078661D01*
X149241690Y-100151711D01*
G37*
G36*
X148572531Y-99284981D02*
G01*
X148633703Y-99309323D01*
X148685420Y-99349893D01*
X148738284Y-99427204D01*
X148755905Y-99513088D01*
X148738760Y-99598813D01*
X148687325Y-99675648D01*
X148636384Y-99715864D01*
X148575001Y-99739994D01*
X148503175Y-99748037D01*
X148431208Y-99739924D01*
X148369402Y-99715582D01*
X148317755Y-99675013D01*
X148265367Y-99597701D01*
X148247905Y-99511818D01*
X148265526Y-99426093D01*
X148318390Y-99349258D01*
X148370107Y-99309041D01*
X148431279Y-99284911D01*
X148501905Y-99276868D01*
X148572531Y-99284981D01*
G37*
G36*
X148739395Y-98198638D02*
G01*
X148722409Y-98285633D01*
X148671450Y-98363738D01*
X148594774Y-98418983D01*
X148500635Y-98437398D01*
X148406179Y-98419459D01*
X148328550Y-98365643D01*
X148276639Y-98287696D01*
X148259335Y-98197368D01*
X148259335Y-98075448D01*
X148739395Y-98075448D01*
X148739395Y-98198638D01*
G37*
G36*
X153241690Y-100166951D02*
G01*
X153230958Y-100239297D01*
X153213187Y-100310244D01*
X153188547Y-100379107D01*
X153157277Y-100445223D01*
X153119676Y-100507955D01*
X153076108Y-100566700D01*
X153026991Y-100620892D01*
X152972800Y-100670009D01*
X152914054Y-100713577D01*
X152851322Y-100751178D01*
X152785206Y-100782448D01*
X152716343Y-100807088D01*
X152645397Y-100824859D01*
X152573050Y-100835590D01*
X152500000Y-100839179D01*
X152426950Y-100835590D01*
X152354603Y-100824859D01*
X152283657Y-100807088D01*
X152214794Y-100782448D01*
X152148678Y-100751178D01*
X152085946Y-100713577D01*
X152027200Y-100670009D01*
X151973009Y-100620892D01*
X151923892Y-100566700D01*
X151880324Y-100507955D01*
X151842723Y-100445223D01*
X151811453Y-100379107D01*
X151786813Y-100310244D01*
X151769042Y-100239297D01*
X151758310Y-100166951D01*
X151754722Y-100093901D01*
X151754722Y-99896628D01*
X152588265Y-99896628D01*
X152598743Y-99953143D01*
X152630175Y-99980448D01*
X152688595Y-99988068D01*
X152746380Y-99981083D01*
X152777495Y-99958858D01*
X152788925Y-99895358D01*
X152788925Y-99593098D01*
X152778130Y-99536265D01*
X152745745Y-99508008D01*
X152687325Y-99501658D01*
X152630175Y-99509278D01*
X152599695Y-99533408D01*
X152588265Y-99594368D01*
X152588265Y-99896628D01*
X151754722Y-99896628D01*
X151754722Y-98739658D01*
X152033275Y-98739658D01*
X152034545Y-98974608D01*
X152042840Y-99063904D01*
X152067724Y-99147645D01*
X152109197Y-99225829D01*
X152167260Y-99298458D01*
X152237427Y-99359576D01*
X152315215Y-99403233D01*
X152400622Y-99429426D01*
X152493650Y-99438158D01*
X152587035Y-99429625D01*
X152673514Y-99404026D01*
X152753087Y-99361362D01*
X152825755Y-99301633D01*
X152886318Y-99229758D01*
X152929578Y-99150661D01*
X152955533Y-99064341D01*
X152964185Y-98970798D01*
X152964185Y-98738388D01*
X152956248Y-98675523D01*
X152932435Y-98641868D01*
X152851155Y-98626628D01*
X152145035Y-98626628D01*
X152100585Y-98628533D01*
X152067565Y-98640598D01*
X152041847Y-98674253D01*
X152033275Y-98739658D01*
X151754722Y-98739658D01*
X151754722Y-97917968D01*
X152033275Y-97917968D01*
X152042306Y-97991628D01*
X152069399Y-98056821D01*
X152114555Y-98113548D01*
X152173257Y-98159409D01*
X152239297Y-98186925D01*
X152312675Y-98196098D01*
X152393002Y-98184033D01*
X152466345Y-98147838D01*
X152528011Y-98189465D01*
X152594474Y-98214442D01*
X152665735Y-98222768D01*
X152745816Y-98211973D01*
X152816724Y-98182974D01*
X152878460Y-98135773D01*
X152926085Y-98075448D01*
X152954660Y-98007079D01*
X152964185Y-97930668D01*
X152964185Y-97596658D01*
X152952120Y-97526173D01*
X152915925Y-97492518D01*
X152849885Y-97484898D01*
X152145035Y-97484898D01*
X152100585Y-97486803D01*
X152067565Y-97498868D01*
X152041847Y-97532523D01*
X152033275Y-97597928D01*
X152033275Y-97917968D01*
X151754722Y-97917968D01*
X151754722Y-97051828D01*
X152019305Y-97051828D01*
X152024226Y-97124694D01*
X152038990Y-97190893D01*
X152078995Y-97277888D01*
X152103125Y-97309638D01*
X152165355Y-97349008D01*
X152235205Y-97318528D01*
X152282830Y-97274713D01*
X152298705Y-97229628D01*
X152273305Y-97163588D01*
X152260605Y-97148983D01*
X152244095Y-97129298D01*
X152227585Y-97061353D01*
X152247270Y-96992773D01*
X152301880Y-96965468D01*
X152358395Y-96997853D01*
X152387605Y-97078498D01*
X152397289Y-97128980D01*
X152411100Y-97183908D01*
X152428721Y-97238835D01*
X152449835Y-97289318D01*
X152481109Y-97333609D01*
X152529210Y-97369963D01*
X152592234Y-97394251D01*
X152668275Y-97402348D01*
X152745904Y-97394093D01*
X152813690Y-97369328D01*
X152869411Y-97331228D01*
X152910845Y-97282968D01*
X152948239Y-97212835D01*
X152970676Y-97139599D01*
X152978155Y-97063258D01*
X152974504Y-97005155D01*
X152963550Y-96950228D01*
X152927355Y-96863868D01*
X152887350Y-96806718D01*
X152848615Y-96769888D01*
X152834645Y-96758458D01*
X152761620Y-96725438D01*
X152723996Y-96739090D01*
X152675895Y-96780048D01*
X152645415Y-96847358D01*
X152661290Y-96889903D01*
X152708915Y-96946418D01*
X152750190Y-96997218D01*
X152769875Y-97058178D01*
X152759151Y-97123794D01*
X152726977Y-97163164D01*
X152673355Y-97176288D01*
X152624460Y-97143903D01*
X152595885Y-97063258D01*
X152584296Y-97013093D01*
X152567310Y-96959118D01*
X152545879Y-96905143D01*
X152520955Y-96854978D01*
X152486506Y-96810686D01*
X152436500Y-96774333D01*
X152372841Y-96750044D01*
X152297435Y-96741948D01*
X152226103Y-96751190D01*
X152161122Y-96778919D01*
X152102490Y-96825133D01*
X152056276Y-96887292D01*
X152028548Y-96962857D01*
X152019305Y-97051828D01*
X151754722Y-97051828D01*
X151754722Y-95935498D01*
X152033275Y-95935498D01*
X152040895Y-96000268D01*
X152067565Y-96033288D01*
X152147575Y-96048528D01*
X152528575Y-96048528D01*
X152604140Y-96058053D01*
X152675895Y-96086628D01*
X152733045Y-96143778D01*
X152754635Y-96233948D01*
X152737490Y-96314910D01*
X152686055Y-96372378D01*
X152612078Y-96406668D01*
X152527305Y-96418098D01*
X152138685Y-96418098D01*
X152068835Y-96430798D01*
X152040895Y-96467628D01*
X152033275Y-96527953D01*
X152039625Y-96585738D01*
X152054865Y-96618758D01*
X152081535Y-96635268D01*
X152147575Y-96642888D01*
X152531115Y-96642888D01*
X152613030Y-96636379D01*
X152691135Y-96616853D01*
X152765430Y-96584309D01*
X152835915Y-96538748D01*
X152894494Y-96480645D01*
X152940690Y-96407938D01*
X152970694Y-96323641D01*
X152980695Y-96230773D01*
X152970535Y-96138063D01*
X152940055Y-96054243D01*
X152893065Y-95982329D01*
X152833375Y-95925338D01*
X152763843Y-95880332D01*
X152689865Y-95848185D01*
X152611443Y-95828897D01*
X152528575Y-95822468D01*
X152146305Y-95822468D01*
X152101220Y-95824373D01*
X152067565Y-95836438D01*
X152040895Y-95870728D01*
X152033275Y-95935498D01*
X151754722Y-95935498D01*
X151754722Y-94499551D01*
X153245278Y-94499551D01*
X153245278Y-100093901D01*
X153241690Y-100166951D01*
G37*
G36*
X152739395Y-98974608D02*
G01*
X152722409Y-99061603D01*
X152671450Y-99139708D01*
X152594774Y-99194953D01*
X152500635Y-99213368D01*
X152406179Y-99195429D01*
X152328550Y-99141613D01*
X152276639Y-99063666D01*
X152259335Y-98973338D01*
X152259335Y-98851418D01*
X152739395Y-98851418D01*
X152739395Y-98974608D01*
G37*
G36*
X152739395Y-97917968D02*
G01*
X152717805Y-97977975D01*
X152653035Y-97997978D01*
X152604775Y-97990993D01*
X152579375Y-97967498D01*
X152569215Y-97896378D01*
X152551435Y-97827798D01*
X152478410Y-97804938D01*
X152405385Y-97828433D01*
X152387605Y-97906538D01*
X152360935Y-97967498D01*
X152315215Y-97971308D01*
X152270765Y-97950353D01*
X152258065Y-97887488D01*
X152258065Y-97709688D01*
X152739395Y-97709688D01*
X152739395Y-97917968D01*
G37*
G36*
X160741300Y-98010678D02*
G01*
X160724314Y-98097673D01*
X160673355Y-98175778D01*
X160596679Y-98231023D01*
X160502540Y-98249438D01*
X160408084Y-98231499D01*
X160330455Y-98177683D01*
X160278544Y-98099737D01*
X160261240Y-98009408D01*
X160261240Y-97887488D01*
X160741300Y-97887488D01*
X160741300Y-98010678D01*
G37*
G36*
X161244643Y-94499551D02*
G01*
X161244643Y-98580061D01*
X161241058Y-98653049D01*
X161230335Y-98725334D01*
X161212579Y-98796220D01*
X161187961Y-98865024D01*
X161156717Y-98931084D01*
X161119148Y-98993763D01*
X161075617Y-99052458D01*
X161026542Y-99106604D01*
X160972397Y-99155678D01*
X160913702Y-99199210D01*
X160851022Y-99236778D01*
X160784963Y-99268022D01*
X160716159Y-99292641D01*
X160645273Y-99310397D01*
X160572988Y-99321119D01*
X160500000Y-99324705D01*
X160427012Y-99321119D01*
X160354727Y-99310397D01*
X160283841Y-99292641D01*
X160215037Y-99268022D01*
X160148978Y-99236778D01*
X160086298Y-99199210D01*
X160027603Y-99155678D01*
X159973458Y-99106604D01*
X159924383Y-99052458D01*
X159880852Y-98993763D01*
X159843283Y-98931084D01*
X159812039Y-98865024D01*
X159787421Y-98796220D01*
X159769665Y-98725334D01*
X159758942Y-98653049D01*
X159755357Y-98580061D01*
X159755357Y-97775728D01*
X160035180Y-97775728D01*
X160036450Y-98010678D01*
X160044745Y-98099975D01*
X160069629Y-98183716D01*
X160111102Y-98261900D01*
X160169165Y-98334528D01*
X160239332Y-98395647D01*
X160317120Y-98439303D01*
X160402527Y-98465497D01*
X160495555Y-98474228D01*
X160588940Y-98465695D01*
X160675419Y-98440097D01*
X160754992Y-98397433D01*
X160827660Y-98337703D01*
X160888223Y-98265829D01*
X160931483Y-98186732D01*
X160957438Y-98100411D01*
X160966090Y-98006868D01*
X160966090Y-97774458D01*
X160958153Y-97711593D01*
X160934340Y-97677938D01*
X160853060Y-97662698D01*
X160146940Y-97662698D01*
X160102490Y-97664603D01*
X160069470Y-97676668D01*
X160043752Y-97710323D01*
X160035180Y-97775728D01*
X159755357Y-97775728D01*
X159755357Y-97446163D01*
X160037720Y-97446163D01*
X160044070Y-97504583D01*
X160059310Y-97537603D01*
X160085980Y-97553478D01*
X160150750Y-97561098D01*
X160855600Y-97561098D01*
X160900050Y-97559193D01*
X160933070Y-97547128D01*
X160958788Y-97513473D01*
X160967360Y-97448068D01*
X160959740Y-97379488D01*
X160935610Y-97347738D01*
X160815948Y-97257921D01*
X160710961Y-97178969D01*
X160620650Y-97110883D01*
X160545014Y-97053662D01*
X160484054Y-97007307D01*
X160437770Y-96971818D01*
X160855600Y-96971818D01*
X160900050Y-96969913D01*
X160933070Y-96957848D01*
X160958788Y-96924193D01*
X160967360Y-96858788D01*
X160958788Y-96795288D01*
X160933070Y-96762268D01*
X160898780Y-96750203D01*
X160854330Y-96748298D01*
X160145670Y-96748298D01*
X160075185Y-96760363D01*
X160045340Y-96796558D01*
X160037720Y-96858788D01*
X160044705Y-96919113D01*
X160060580Y-96950228D01*
X160093600Y-96979438D01*
X160208217Y-97063822D01*
X160309077Y-97138329D01*
X160396177Y-97202958D01*
X160469520Y-97257709D01*
X160529104Y-97302582D01*
X160574930Y-97337578D01*
X160145670Y-97337578D01*
X160075185Y-97349643D01*
X160045340Y-97385838D01*
X160037720Y-97446163D01*
X159755357Y-97446163D01*
X159755357Y-96299988D01*
X160019940Y-96299988D01*
X160030947Y-96398060D01*
X160063967Y-96492464D01*
X160119000Y-96583198D01*
X160175515Y-96617488D01*
X160247270Y-96588278D01*
X160297752Y-96540970D01*
X160314580Y-96498108D01*
X160279655Y-96420638D01*
X160253461Y-96362218D01*
X160244730Y-96293638D01*
X160261716Y-96202515D01*
X160312675Y-96122188D01*
X160391097Y-96065990D01*
X160490475Y-96047258D01*
X160560043Y-96055725D01*
X160622273Y-96081125D01*
X160677165Y-96123458D01*
X160734791Y-96204738D01*
X160754000Y-96296178D01*
X160748285Y-96362535D01*
X160731140Y-96421908D01*
X160592710Y-96421908D01*
X160592710Y-96321578D01*
X160582550Y-96265698D01*
X160552705Y-96244108D01*
X160499365Y-96239028D01*
X160445390Y-96244743D01*
X160417450Y-96265698D01*
X160406020Y-96326658D01*
X160406020Y-96550178D01*
X160441580Y-96633998D01*
X160512700Y-96646698D01*
X160792100Y-96646698D01*
X160869570Y-96611138D01*
X160917909Y-96551130D01*
X160952438Y-96477788D01*
X160973154Y-96391110D01*
X160980060Y-96291098D01*
X160971130Y-96199579D01*
X160944341Y-96114250D01*
X160899693Y-96035114D01*
X160837185Y-95962168D01*
X160762057Y-95901049D01*
X160679546Y-95857393D01*
X160589654Y-95831199D01*
X160492380Y-95822468D01*
X160395582Y-95831358D01*
X160307119Y-95858028D01*
X160226990Y-95902478D01*
X160155195Y-95964708D01*
X160096021Y-96039003D01*
X160053754Y-96119648D01*
X160028393Y-96206643D01*
X160019940Y-96299988D01*
X159755357Y-96299988D01*
X159755357Y-94499551D01*
X161244643Y-94499551D01*
G37*
G36*
X142739395Y-96255537D02*
G01*
X142717805Y-96315545D01*
X142653035Y-96335547D01*
X142604775Y-96328562D01*
X142579375Y-96305067D01*
X142569215Y-96233947D01*
X142551435Y-96165367D01*
X142478410Y-96142507D01*
X142405385Y-96166002D01*
X142387605Y-96244107D01*
X142360935Y-96305067D01*
X142315215Y-96308877D01*
X142270765Y-96287922D01*
X142258065Y-96225057D01*
X142258065Y-96047257D01*
X142739395Y-96047257D01*
X142739395Y-96255537D01*
G37*
G36*
X143245278Y-94499551D02*
G01*
X143245278Y-101859201D01*
X143241690Y-101932251D01*
X143230958Y-102004597D01*
X143213187Y-102075544D01*
X143188547Y-102144407D01*
X143157277Y-102210523D01*
X143119676Y-102273255D01*
X143076108Y-102332000D01*
X143026991Y-102386192D01*
X142972800Y-102435309D01*
X142914054Y-102478877D01*
X142851322Y-102516478D01*
X142785206Y-102547748D01*
X142716343Y-102572388D01*
X142645397Y-102590159D01*
X142573050Y-102600890D01*
X142500000Y-102604479D01*
X142426950Y-102600890D01*
X142354603Y-102590159D01*
X142283657Y-102572388D01*
X142214794Y-102547748D01*
X142148678Y-102516478D01*
X142085946Y-102478877D01*
X142027200Y-102435309D01*
X141973009Y-102386192D01*
X141923892Y-102332000D01*
X141880324Y-102273255D01*
X141842723Y-102210523D01*
X141811453Y-102144407D01*
X141786813Y-102075544D01*
X141769042Y-102004597D01*
X141758310Y-101932251D01*
X141754722Y-101859201D01*
X141754722Y-101203458D01*
X142034545Y-101203458D01*
X142046292Y-101274260D01*
X142081535Y-101308868D01*
X142147575Y-101315218D01*
X142777495Y-101315218D01*
X142777495Y-101660658D01*
X142787020Y-101721618D01*
X142816865Y-101747018D01*
X142870840Y-101753368D01*
X142924815Y-101747018D01*
X142952755Y-101725428D01*
X142965455Y-101659388D01*
X142965455Y-101202188D01*
X142953390Y-101131703D01*
X142917195Y-101098048D01*
X142852425Y-101090428D01*
X142146305Y-101090428D01*
X142102490Y-101092333D01*
X142068835Y-101104398D01*
X142043117Y-101138053D01*
X142034545Y-101203458D01*
X141754722Y-101203458D01*
X141754722Y-100896118D01*
X142034545Y-100896118D01*
X142036450Y-100939933D01*
X142048515Y-100973588D01*
X142082170Y-100999305D01*
X142147575Y-101007878D01*
X142218060Y-100996130D01*
X142251715Y-100960888D01*
X142259335Y-100894848D01*
X142259335Y-100504958D01*
X142387605Y-100504958D01*
X142387605Y-100756418D01*
X142389510Y-100800233D01*
X142401575Y-100833888D01*
X142435230Y-100859605D01*
X142500635Y-100868178D01*
X142571120Y-100856113D01*
X142604775Y-100819918D01*
X142612395Y-100753878D01*
X142612395Y-100504958D01*
X142740665Y-100504958D01*
X142740665Y-100896118D01*
X142742570Y-100939933D01*
X142754635Y-100973588D01*
X142788290Y-100999305D01*
X142853695Y-101007878D01*
X142924180Y-100996130D01*
X142957835Y-100960888D01*
X142965455Y-100894848D01*
X142965455Y-100391928D01*
X142953390Y-100321443D01*
X142917195Y-100287788D01*
X142852425Y-100280168D01*
X142146305Y-100280168D01*
X142058040Y-100304298D01*
X142034545Y-100395738D01*
X142034545Y-100896118D01*
X141754722Y-100896118D01*
X141754722Y-99847098D01*
X142019305Y-99847098D01*
X142024226Y-99919964D01*
X142038990Y-99986163D01*
X142078995Y-100073158D01*
X142103125Y-100104908D01*
X142165355Y-100144278D01*
X142235205Y-100113798D01*
X142282830Y-100069983D01*
X142298705Y-100024898D01*
X142273305Y-99958858D01*
X142260605Y-99944253D01*
X142244095Y-99924568D01*
X142227585Y-99856623D01*
X142247270Y-99788043D01*
X142301880Y-99760738D01*
X142358395Y-99793123D01*
X142387605Y-99873768D01*
X142397289Y-99924250D01*
X142411100Y-99979178D01*
X142428721Y-100034105D01*
X142449835Y-100084588D01*
X142481109Y-100128879D01*
X142529210Y-100165233D01*
X142592234Y-100189521D01*
X142668275Y-100197618D01*
X142745904Y-100189363D01*
X142813690Y-100164598D01*
X142869411Y-100126498D01*
X142910845Y-100078238D01*
X142948239Y-100008105D01*
X142970676Y-99934869D01*
X142978155Y-99858528D01*
X142974504Y-99800425D01*
X142963550Y-99745498D01*
X142927355Y-99659138D01*
X142887350Y-99601988D01*
X142848615Y-99565158D01*
X142834645Y-99553728D01*
X142761620Y-99520708D01*
X142723996Y-99534360D01*
X142675895Y-99575318D01*
X142645415Y-99642628D01*
X142661290Y-99685173D01*
X142708915Y-99741688D01*
X142750190Y-99792488D01*
X142769875Y-99853448D01*
X142759151Y-99919064D01*
X142726977Y-99958434D01*
X142673355Y-99971558D01*
X142624460Y-99939173D01*
X142595885Y-99858528D01*
X142584296Y-99808363D01*
X142567310Y-99754388D01*
X142545879Y-99700413D01*
X142520955Y-99650248D01*
X142486506Y-99605956D01*
X142436500Y-99569603D01*
X142372841Y-99545314D01*
X142297435Y-99537218D01*
X142226103Y-99546460D01*
X142161122Y-99574189D01*
X142102490Y-99620403D01*
X142056276Y-99682562D01*
X142028548Y-99758127D01*
X142019305Y-99847098D01*
X141754722Y-99847098D01*
X141754722Y-99378468D01*
X142033275Y-99378468D01*
X142042800Y-99438158D01*
X142072645Y-99463558D01*
X142125985Y-99469908D01*
X142178690Y-99463558D01*
X142205995Y-99441968D01*
X142217425Y-99377198D01*
X142217425Y-99134628D01*
X142856235Y-99134628D01*
X142899415Y-99132723D01*
X142931800Y-99121293D01*
X142957835Y-99087638D01*
X142965455Y-99024138D01*
X142957835Y-98961273D01*
X142931800Y-98928253D01*
X142898780Y-98916823D01*
X142854965Y-98914918D01*
X142217425Y-98914918D01*
X142217425Y-98671078D01*
X142207900Y-98611388D01*
X142178055Y-98585988D01*
X142124715Y-98579638D01*
X142072010Y-98585988D01*
X142044705Y-98607578D01*
X142033275Y-98672348D01*
X142033275Y-99378468D01*
X141754722Y-99378468D01*
X141754722Y-98064017D01*
X142023115Y-98064017D01*
X142031608Y-98154902D01*
X142057087Y-98239595D01*
X142099553Y-98318097D01*
X142159005Y-98390407D01*
X142231038Y-98450971D01*
X142311246Y-98494230D01*
X142399630Y-98520186D01*
X142496190Y-98528837D01*
X142593107Y-98520582D01*
X142682563Y-98495817D01*
X142764557Y-98454542D01*
X142839090Y-98396757D01*
X142901042Y-98326907D01*
X142945294Y-98249437D01*
X142971845Y-98164347D01*
X142980695Y-98071637D01*
X142971964Y-97978729D01*
X142945770Y-97893044D01*
X142902114Y-97814582D01*
X142840995Y-97743342D01*
X142767811Y-97684168D01*
X142687960Y-97641901D01*
X142601441Y-97616541D01*
X142508255Y-97608087D01*
X142406179Y-97617612D01*
X142310770Y-97646187D01*
X142226156Y-97690637D01*
X142156465Y-97747787D01*
X142100902Y-97816050D01*
X142058675Y-97893837D01*
X142032005Y-97977657D01*
X142023115Y-98064017D01*
X141754722Y-98064017D01*
X141754722Y-97079767D01*
X142023115Y-97079767D01*
X142031608Y-97170652D01*
X142057087Y-97255345D01*
X142099553Y-97333847D01*
X142159005Y-97406157D01*
X142231038Y-97466721D01*
X142311246Y-97509980D01*
X142399630Y-97535936D01*
X142496190Y-97544588D01*
X142593107Y-97536332D01*
X142682563Y-97511567D01*
X142764557Y-97470292D01*
X142839090Y-97412507D01*
X142901042Y-97342657D01*
X142945294Y-97265187D01*
X142971845Y-97180097D01*
X142980695Y-97087387D01*
X142971964Y-96994479D01*
X142945770Y-96908794D01*
X142902114Y-96830332D01*
X142840995Y-96759092D01*
X142767811Y-96699918D01*
X142687960Y-96657651D01*
X142601441Y-96632291D01*
X142508255Y-96623837D01*
X142406179Y-96633362D01*
X142310770Y-96661937D01*
X142226156Y-96706387D01*
X142156465Y-96763537D01*
X142100902Y-96831800D01*
X142058675Y-96909587D01*
X142032005Y-96993407D01*
X142023115Y-97079767D01*
X141754722Y-97079767D01*
X141754722Y-96255537D01*
X142033275Y-96255537D01*
X142042306Y-96329197D01*
X142069399Y-96394391D01*
X142114555Y-96451117D01*
X142173257Y-96496979D01*
X142239297Y-96524495D01*
X142312675Y-96533667D01*
X142393002Y-96521602D01*
X142466345Y-96485407D01*
X142528011Y-96527035D01*
X142594474Y-96552012D01*
X142665735Y-96560337D01*
X142745816Y-96549542D01*
X142816724Y-96520544D01*
X142878460Y-96473342D01*
X142926085Y-96413017D01*
X142954660Y-96344649D01*
X142964185Y-96268237D01*
X142964185Y-95934227D01*
X142952120Y-95863742D01*
X142915925Y-95830087D01*
X142849885Y-95822467D01*
X142145035Y-95822467D01*
X142100585Y-95824372D01*
X142067565Y-95836437D01*
X142041847Y-95870092D01*
X142033275Y-95935497D01*
X142033275Y-96255537D01*
X141754722Y-96255537D01*
X141754722Y-94499551D01*
X143245278Y-94499551D01*
G37*
G36*
X142572531Y-96856741D02*
G01*
X142633703Y-96881083D01*
X142685420Y-96921652D01*
X142738284Y-96998964D01*
X142755905Y-97084847D01*
X142738760Y-97170572D01*
X142687325Y-97247407D01*
X142636384Y-97287624D01*
X142575001Y-97311754D01*
X142503175Y-97319797D01*
X142431208Y-97311684D01*
X142369402Y-97287342D01*
X142317755Y-97246772D01*
X142265367Y-97169461D01*
X142247905Y-97083577D01*
X142265526Y-96997852D01*
X142318390Y-96921017D01*
X142370107Y-96880801D01*
X142431279Y-96856671D01*
X142501905Y-96848627D01*
X142572531Y-96856741D01*
G37*
G36*
X142572531Y-97840991D02*
G01*
X142633703Y-97865333D01*
X142685420Y-97905902D01*
X142738284Y-97983214D01*
X142755905Y-98069097D01*
X142738760Y-98154822D01*
X142687325Y-98231657D01*
X142636384Y-98271874D01*
X142575001Y-98296004D01*
X142503175Y-98304047D01*
X142431208Y-98295934D01*
X142369402Y-98271592D01*
X142317755Y-98231022D01*
X142265367Y-98153711D01*
X142247905Y-98067827D01*
X142265526Y-97982102D01*
X142318390Y-97905267D01*
X142370107Y-97865051D01*
X142431279Y-97840921D01*
X142501905Y-97832877D01*
X142572531Y-97840991D01*
G37*
X140300001Y-94480000D02*
X140260001Y-94470000D01*
X140260001Y-94470000D02*
X140240001Y-94450000D01*
X140240001Y-94450000D02*
X140220001Y-94410000D01*
X140220001Y-94410000D02*
X140200001Y-94350000D01*
X140200001Y-94350000D02*
X140200001Y-94270000D01*
X140200001Y-94270000D02*
X140210001Y-94200000D01*
X140210001Y-94200000D02*
X140220001Y-94150000D01*
X140220001Y-94150000D02*
X140240001Y-94110000D01*
X140240001Y-94110000D02*
X140270001Y-94090000D01*
X140270001Y-94090000D02*
X140310001Y-94090000D01*
X140310001Y-94090000D02*
X140350001Y-94100000D01*
X140350001Y-94100000D02*
X140370001Y-94130000D01*
X140370001Y-94130000D02*
X140390001Y-94180000D01*
X140390001Y-94180000D02*
X140400001Y-94240000D01*
X140400001Y-94240000D02*
X140400001Y-94320000D01*
X140400001Y-94320000D02*
X140390001Y-94380000D01*
X140390001Y-94380000D02*
X140380001Y-94430000D01*
X140380001Y-94430000D02*
X140350001Y-94470000D01*
X140350001Y-94470000D02*
X140320001Y-94480000D01*
X140320001Y-94480000D02*
X140300001Y-94480000D01*
X140300001Y-94480000D02*
X140300001Y-94480000D01*
G36*
X140350001Y-94100000D02*
G01*
X140370001Y-94130000D01*
X140390001Y-94180000D01*
X140400001Y-94240000D01*
X140400001Y-94320000D01*
X140390001Y-94380000D01*
X140380001Y-94430000D01*
X140350001Y-94470000D01*
X140320001Y-94480000D01*
X140300001Y-94480000D01*
X140260001Y-94470000D01*
X140240001Y-94450000D01*
X140220001Y-94410000D01*
X140200001Y-94350000D01*
X140200001Y-94270000D01*
X140210001Y-94200000D01*
X140220001Y-94150000D01*
X140240001Y-94110000D01*
X140270001Y-94090000D01*
X140310001Y-94090000D01*
X140350001Y-94100000D01*
G37*
X140350001Y-94100000D02*
X140370001Y-94130000D01*
X140390001Y-94180000D01*
X140400001Y-94240000D01*
X140400001Y-94320000D01*
X140390001Y-94380000D01*
X140380001Y-94430000D01*
X140350001Y-94470000D01*
X140320001Y-94480000D01*
X140300001Y-94480000D01*
X140260001Y-94470000D01*
X140240001Y-94450000D01*
X140220001Y-94410000D01*
X140200001Y-94350000D01*
X140200001Y-94270000D01*
X140210001Y-94200000D01*
X140220001Y-94150000D01*
X140240001Y-94110000D01*
X140270001Y-94090000D01*
X140310001Y-94090000D01*
X140350001Y-94100000D01*
X140630001Y-93790000D02*
X140830001Y-93790000D01*
X140830001Y-93790000D02*
X140850001Y-93820000D01*
X140850001Y-93820000D02*
X140850001Y-94780000D01*
X140850001Y-94780000D02*
X140830001Y-94810000D01*
X140830001Y-94810000D02*
X139660001Y-94810000D01*
X139660001Y-94810000D02*
X139650001Y-94770000D01*
X139650001Y-94770000D02*
X139650001Y-93810000D01*
X139650001Y-93810000D02*
X139690001Y-93790000D01*
X139690001Y-93790000D02*
X140600001Y-93790000D01*
X140600001Y-93790000D02*
X140470001Y-93970000D01*
X140470001Y-93970000D02*
X140430001Y-93950000D01*
X140430001Y-93950000D02*
X140380001Y-93930000D01*
X140380001Y-93930000D02*
X140330001Y-93920000D01*
X140330001Y-93920000D02*
X140280001Y-93910000D01*
X140280001Y-93910000D02*
X140230001Y-93920000D01*
X140230001Y-93920000D02*
X140180001Y-93940000D01*
X140180001Y-93940000D02*
X140140001Y-93970000D01*
X140140001Y-93970000D02*
X140110001Y-94010000D01*
X140110001Y-94010000D02*
X140080001Y-94050000D01*
X140080001Y-94050000D02*
X140060001Y-94100000D01*
X140060001Y-94100000D02*
X140050001Y-94150000D01*
X140050001Y-94150000D02*
X140040001Y-94190000D01*
X140040001Y-94190000D02*
X140030001Y-94250000D01*
X140030001Y-94250000D02*
X140030001Y-94300000D01*
X140030001Y-94300000D02*
X140030001Y-94360000D01*
X140030001Y-94360000D02*
X140040001Y-94410000D01*
X140040001Y-94410000D02*
X140050001Y-94460000D01*
X140050001Y-94460000D02*
X140070001Y-94500000D01*
X140070001Y-94500000D02*
X140090001Y-94540000D01*
X140090001Y-94540000D02*
X140120001Y-94580000D01*
X140120001Y-94580000D02*
X140160001Y-94610000D01*
X140160001Y-94610000D02*
X140200001Y-94640000D01*
X140200001Y-94640000D02*
X140250001Y-94650000D01*
X140250001Y-94650000D02*
X140300001Y-94660000D01*
X140300001Y-94660000D02*
X140350001Y-94650000D01*
X140350001Y-94650000D02*
X140400001Y-94640000D01*
X140400001Y-94640000D02*
X140450001Y-94610000D01*
X140450001Y-94610000D02*
X140490001Y-94580000D01*
X140490001Y-94580000D02*
X140510001Y-94550000D01*
X140510001Y-94550000D02*
X140540001Y-94500000D01*
X140540001Y-94500000D02*
X140550001Y-94450000D01*
X140550001Y-94450000D02*
X140560001Y-94410000D01*
X140560001Y-94410000D02*
X140570001Y-94360000D01*
X140570001Y-94360000D02*
X140570001Y-94300000D01*
X140570001Y-94300000D02*
X140570001Y-94250000D01*
X140570001Y-94250000D02*
X140570001Y-94190000D01*
X140570001Y-94190000D02*
X140560001Y-94150000D01*
X140560001Y-94150000D02*
X140540001Y-94100000D01*
X140540001Y-94100000D02*
X140520001Y-94050000D01*
X140520001Y-94050000D02*
X140500001Y-94010000D01*
X140500001Y-94010000D02*
X140470001Y-93970000D01*
X140470001Y-93970000D02*
X140600001Y-93790000D01*
X140600001Y-93790000D02*
X140630001Y-93790000D01*
X140630001Y-93790000D02*
X140630001Y-93790000D01*
G36*
X140850001Y-93820000D02*
G01*
X140850001Y-94780000D01*
X140830001Y-94810000D01*
X139660001Y-94810000D01*
X139650001Y-94770000D01*
X139650001Y-94360000D01*
X140030001Y-94360000D01*
X140050001Y-94460000D01*
X140090001Y-94540000D01*
X140120001Y-94580000D01*
X140200001Y-94640000D01*
X140300001Y-94660000D01*
X140400001Y-94640000D01*
X140450001Y-94610000D01*
X140490001Y-94580000D01*
X140510001Y-94550000D01*
X140540001Y-94500000D01*
X140550001Y-94450000D01*
X140560001Y-94410000D01*
X140570001Y-94360000D01*
X140570001Y-94190000D01*
X140560001Y-94150000D01*
X140520001Y-94050000D01*
X140500001Y-94010000D01*
X140470001Y-93970000D01*
X140430001Y-93950000D01*
X140380001Y-93930000D01*
X140280001Y-93910000D01*
X140230001Y-93920000D01*
X140180001Y-93940000D01*
X140140001Y-93970000D01*
X140080001Y-94050000D01*
X140060001Y-94100000D01*
X140050001Y-94150000D01*
X140040001Y-94190000D01*
X140030001Y-94250000D01*
X140030001Y-94360000D01*
X139650001Y-94360000D01*
X139650001Y-93810000D01*
X139690001Y-93790000D01*
X140830001Y-93790000D01*
X140850001Y-93820000D01*
G37*
X140850001Y-93820000D02*
X140850001Y-94780000D01*
X140830001Y-94810000D01*
X139660001Y-94810000D01*
X139650001Y-94770000D01*
X139650001Y-94360000D01*
X140030001Y-94360000D01*
X140050001Y-94460000D01*
X140090001Y-94540000D01*
X140120001Y-94580000D01*
X140200001Y-94640000D01*
X140300001Y-94660000D01*
X140400001Y-94640000D01*
X140450001Y-94610000D01*
X140490001Y-94580000D01*
X140510001Y-94550000D01*
X140540001Y-94500000D01*
X140550001Y-94450000D01*
X140560001Y-94410000D01*
X140570001Y-94360000D01*
X140570001Y-94190000D01*
X140560001Y-94150000D01*
X140520001Y-94050000D01*
X140500001Y-94010000D01*
X140470001Y-93970000D01*
X140430001Y-93950000D01*
X140380001Y-93930000D01*
X140280001Y-93910000D01*
X140230001Y-93920000D01*
X140180001Y-93940000D01*
X140140001Y-93970000D01*
X140080001Y-94050000D01*
X140060001Y-94100000D01*
X140050001Y-94150000D01*
X140040001Y-94190000D01*
X140030001Y-94250000D01*
X140030001Y-94360000D01*
X139650001Y-94360000D01*
X139650001Y-93810000D01*
X139690001Y-93790000D01*
X140830001Y-93790000D01*
X140850001Y-93820000D01*
G36*
X152564860Y-114783767D02*
G01*
X151927744Y-114783767D01*
X151900000Y-114725000D01*
X151900000Y-114410573D01*
X151927744Y-114410573D01*
X151936634Y-114483668D01*
X151963304Y-114549602D01*
X152007754Y-114608375D01*
X152065415Y-114654368D01*
X152131720Y-114681964D01*
X152206668Y-114691163D01*
X152273343Y-114685360D01*
X152335573Y-114667950D01*
X152393358Y-114638934D01*
X152421139Y-114617821D01*
X152430029Y-114610042D01*
X152472256Y-114543367D01*
X152431140Y-114471136D01*
X152366688Y-114434464D01*
X152292234Y-114470024D01*
X152222781Y-114493361D01*
X152149438Y-114472247D01*
X152125546Y-114413906D01*
X152151661Y-114355010D01*
X152211113Y-114333341D01*
X152264452Y-114353343D01*
X152325016Y-114378902D01*
X152395024Y-114357788D01*
X152446698Y-114323895D01*
X152458921Y-114296669D01*
X152453365Y-114244718D01*
X152436696Y-114117758D01*
X152419750Y-113992742D01*
X152413360Y-113946626D01*
X152405581Y-113923289D01*
X152389468Y-113893286D01*
X152360576Y-113869394D01*
X152315570Y-113858837D01*
X152146660Y-113859948D01*
X152042202Y-113859948D01*
X152003309Y-113861615D01*
X151974416Y-113872172D01*
X151951913Y-113902176D01*
X151944412Y-113961072D01*
X151951358Y-114014690D01*
X151972194Y-114042193D01*
X151999419Y-114052750D01*
X152035535Y-114054417D01*
X152230004Y-114054417D01*
X152241116Y-114138872D01*
X152202223Y-114136649D01*
X152134189Y-114145478D01*
X152070848Y-114171962D01*
X152012199Y-114216104D01*
X151965279Y-114273024D01*
X151937128Y-114337847D01*
X151927744Y-114410573D01*
X151900000Y-114410573D01*
X151900000Y-113875000D01*
X151927744Y-113766233D01*
X152564860Y-113766233D01*
X152564860Y-114783767D01*
G37*
G36*
X162650000Y-94850000D02*
G01*
X162533369Y-94857100D01*
X162150000Y-94857100D01*
X161950000Y-94650000D01*
X161950000Y-94267767D01*
X161966631Y-94267767D01*
X161971432Y-94349867D01*
X161985834Y-94426365D01*
X162009837Y-94497263D01*
X162043441Y-94562560D01*
X162086646Y-94622256D01*
X162138164Y-94673463D01*
X162196704Y-94713290D01*
X162262268Y-94741738D01*
X162334855Y-94758807D01*
X162414465Y-94764496D01*
X162421133Y-94764496D01*
X162481140Y-94753384D01*
X162504476Y-94721991D01*
X162512255Y-94665595D01*
X162501698Y-94603921D01*
X162470028Y-94574473D01*
X162405575Y-94567805D01*
X162317231Y-94552248D01*
X162251111Y-94514465D01*
X162211940Y-94471126D01*
X162189992Y-94432233D01*
X162184436Y-94416675D01*
X162267780Y-94435566D01*
X162336986Y-94427479D01*
X162399401Y-94403217D01*
X162455026Y-94362779D01*
X162498550Y-94312217D01*
X162524664Y-94257581D01*
X162533369Y-94198870D01*
X162524479Y-94128120D01*
X162497809Y-94065520D01*
X162453359Y-94011069D01*
X162396191Y-93969088D01*
X162331368Y-93943900D01*
X162258890Y-93935504D01*
X162169867Y-93945814D01*
X162096894Y-93976743D01*
X162039974Y-94028293D01*
X161999228Y-94096141D01*
X161974780Y-94175966D01*
X161966631Y-94267767D01*
X161950000Y-94267767D01*
X161950000Y-93950000D01*
X162050000Y-93850000D01*
X162533369Y-93842900D01*
X162650000Y-93842900D01*
X162650000Y-94850000D01*
G37*
G36*
X162318620Y-94136362D02*
G01*
X162340011Y-94192202D01*
X162320564Y-94239986D01*
X162257779Y-94262211D01*
X162191659Y-94241653D01*
X162168879Y-94200537D01*
X162171657Y-94168311D01*
X162183325Y-94143307D01*
X162254445Y-94117749D01*
X162318620Y-94136362D01*
G37*
G36*
X155245278Y-94499551D02*
G01*
X155245278Y-98717221D01*
X155241690Y-98790271D01*
X155230958Y-98862617D01*
X155213187Y-98933564D01*
X155188547Y-99002427D01*
X155157277Y-99068543D01*
X155119676Y-99131275D01*
X155076108Y-99190020D01*
X155026991Y-99244212D01*
X154972800Y-99293329D01*
X154914054Y-99336897D01*
X154851322Y-99374498D01*
X154785206Y-99405768D01*
X154716343Y-99430408D01*
X154645397Y-99448179D01*
X154573050Y-99458910D01*
X154500000Y-99462499D01*
X154426950Y-99458910D01*
X154354603Y-99448179D01*
X154283657Y-99430408D01*
X154214794Y-99405768D01*
X154148678Y-99374498D01*
X154085946Y-99336897D01*
X154027200Y-99293329D01*
X153973009Y-99244212D01*
X153923892Y-99190020D01*
X153880324Y-99131275D01*
X153842723Y-99068543D01*
X153811453Y-99002427D01*
X153786813Y-98933564D01*
X153769042Y-98862617D01*
X153758310Y-98790271D01*
X153754722Y-98717221D01*
X153754722Y-98461528D01*
X154025655Y-98461528D01*
X154047245Y-98536458D01*
X154085980Y-98592655D01*
X154128525Y-98611388D01*
X154189485Y-98592338D01*
X154900685Y-98241818D01*
X154945770Y-98199273D01*
X154962915Y-98140218D01*
X154962915Y-98127518D01*
X154945770Y-98067193D01*
X154900685Y-98024648D01*
X154189485Y-97674128D01*
X154128525Y-97655078D01*
X154085980Y-97673810D01*
X154047245Y-97730008D01*
X154025655Y-97794143D01*
X154030735Y-97827798D01*
X154048515Y-97849388D01*
X154082170Y-97870343D01*
X154117730Y-97887329D01*
X154187580Y-97919238D01*
X154277274Y-97960036D01*
X154372365Y-98003693D01*
X154467456Y-98047508D01*
X154557150Y-98088783D01*
X154624936Y-98120056D01*
X154654305Y-98133868D01*
X154098045Y-98387868D01*
X154059945Y-98405648D01*
X154025655Y-98461528D01*
X153754722Y-98461528D01*
X153754722Y-97247408D01*
X154019305Y-97247408D01*
X154029183Y-97344210D01*
X154058816Y-97426336D01*
X154108205Y-97493788D01*
X154169941Y-97543882D01*
X154236616Y-97573939D01*
X154308230Y-97583958D01*
X154375469Y-97572951D01*
X154429021Y-97539931D01*
X154468885Y-97484898D01*
X154477775Y-97484898D01*
X154505080Y-97522363D01*
X154546355Y-97562368D01*
X154603505Y-97593800D01*
X154668275Y-97604278D01*
X154753577Y-97592989D01*
X154828295Y-97559122D01*
X154892430Y-97502678D01*
X154941466Y-97429159D01*
X154970888Y-97344069D01*
X154980695Y-97247408D01*
X154970817Y-97151452D01*
X154941184Y-97066785D01*
X154891795Y-96993408D01*
X154852108Y-96957530D01*
X154801625Y-96926098D01*
X154768605Y-96912128D01*
X154755905Y-96909588D01*
X154687325Y-96895618D01*
X154632080Y-96926733D01*
X154613665Y-97020078D01*
X154626365Y-97087388D01*
X154692405Y-97125488D01*
X154753365Y-97195338D01*
X154760985Y-97248678D01*
X154754159Y-97307098D01*
X154733680Y-97347738D01*
X154672085Y-97379488D01*
X154611760Y-97348373D01*
X154585725Y-97274713D01*
X154583185Y-97216928D01*
X154570485Y-97183908D01*
X154537783Y-97158190D01*
X154472695Y-97149618D01*
X154401892Y-97161365D01*
X154367285Y-97196608D01*
X154360935Y-97262648D01*
X154348552Y-97335038D01*
X154311405Y-97359168D01*
X154260605Y-97333768D01*
X154236475Y-97263283D01*
X154251715Y-97191528D01*
X154282195Y-97158508D01*
X154297435Y-97150888D01*
X154345060Y-97115328D01*
X154360935Y-97067068D01*
X154338075Y-96997218D01*
X154298387Y-96949593D01*
X154252985Y-96933718D01*
X154166625Y-96962928D01*
X154126620Y-96990868D01*
X154076455Y-97043573D01*
X154037085Y-97127393D01*
X154023750Y-97184384D01*
X154019305Y-97247408D01*
X153754722Y-97247408D01*
X153754722Y-96704483D01*
X154727965Y-96704483D01*
X154734633Y-96769411D01*
X154754635Y-96810528D01*
X154843535Y-96832118D01*
X154848615Y-96832118D01*
X154893700Y-96830213D01*
X154928625Y-96816878D01*
X154956248Y-96783381D01*
X154965455Y-96720993D01*
X154959423Y-96657175D01*
X154941325Y-96619393D01*
X154849885Y-96594628D01*
X154844805Y-96594628D01*
X154800355Y-96596533D01*
X154766065Y-96608598D01*
X154737490Y-96642094D01*
X154727965Y-96704483D01*
X153754722Y-96704483D01*
X153754722Y-96174258D01*
X154019305Y-96174258D01*
X154029183Y-96271060D01*
X154058816Y-96353186D01*
X154108205Y-96420638D01*
X154169941Y-96470732D01*
X154236616Y-96500789D01*
X154308230Y-96510808D01*
X154375469Y-96499801D01*
X154429021Y-96466781D01*
X154468885Y-96411748D01*
X154477775Y-96411748D01*
X154505080Y-96449213D01*
X154546355Y-96489218D01*
X154603505Y-96520650D01*
X154668275Y-96531128D01*
X154753577Y-96519839D01*
X154828295Y-96485972D01*
X154892430Y-96429528D01*
X154941466Y-96356009D01*
X154970888Y-96270919D01*
X154980695Y-96174258D01*
X154970817Y-96078302D01*
X154941184Y-95993635D01*
X154891795Y-95920258D01*
X154852108Y-95884380D01*
X154801625Y-95852948D01*
X154768605Y-95838978D01*
X154755905Y-95836438D01*
X154687325Y-95822468D01*
X154632080Y-95853583D01*
X154613665Y-95946928D01*
X154626365Y-96014238D01*
X154692405Y-96052338D01*
X154753365Y-96122188D01*
X154760985Y-96175528D01*
X154754159Y-96233948D01*
X154733680Y-96274588D01*
X154672085Y-96306338D01*
X154611760Y-96275223D01*
X154585725Y-96201563D01*
X154583185Y-96143778D01*
X154570485Y-96110758D01*
X154537783Y-96085040D01*
X154472695Y-96076468D01*
X154401892Y-96088215D01*
X154367285Y-96123458D01*
X154360935Y-96189498D01*
X154348552Y-96261888D01*
X154311405Y-96286018D01*
X154260605Y-96260618D01*
X154236475Y-96190133D01*
X154251715Y-96118378D01*
X154282195Y-96085358D01*
X154297435Y-96077738D01*
X154345060Y-96042178D01*
X154360935Y-95993918D01*
X154338075Y-95924068D01*
X154298387Y-95876443D01*
X154252985Y-95860568D01*
X154166625Y-95889778D01*
X154126620Y-95917718D01*
X154076455Y-95970423D01*
X154037085Y-96054243D01*
X154023750Y-96111234D01*
X154019305Y-96174258D01*
X153754722Y-96174258D01*
X153754722Y-94499551D01*
X155245278Y-94499551D01*
G37*
G36*
X147240426Y-100353516D02*
G01*
X147229712Y-100425740D01*
X147211972Y-100496565D01*
X147187374Y-100565310D01*
X147156157Y-100631314D01*
X147118620Y-100693940D01*
X147075126Y-100752585D01*
X147026093Y-100806684D01*
X146971994Y-100855717D01*
X146913349Y-100899211D01*
X146850723Y-100936748D01*
X146784720Y-100967965D01*
X146715974Y-100992562D01*
X146645149Y-101010303D01*
X146572926Y-101021017D01*
X146500000Y-101024599D01*
X146427074Y-101021017D01*
X146354851Y-101010303D01*
X146284026Y-100992562D01*
X146215280Y-100967965D01*
X146149277Y-100936748D01*
X146086651Y-100899211D01*
X146028006Y-100855717D01*
X145973907Y-100806684D01*
X145924874Y-100752585D01*
X145881380Y-100693940D01*
X145843843Y-100631314D01*
X145812626Y-100565310D01*
X145788028Y-100496565D01*
X145770288Y-100425740D01*
X145759574Y-100353516D01*
X145755992Y-100280591D01*
X145755992Y-100040138D01*
X146020575Y-100040138D01*
X146064390Y-100123958D01*
X146140590Y-100174758D01*
X146217425Y-100136658D01*
X146263939Y-100094748D01*
X146318390Y-100042678D01*
X146380779Y-99980448D01*
X146451105Y-99908058D01*
X146499365Y-99857258D01*
X146586916Y-99947348D01*
X146662878Y-100023310D01*
X146727251Y-100085143D01*
X146780035Y-100132848D01*
X146859410Y-100174758D01*
X146935610Y-100123958D01*
X146979425Y-100040773D01*
X146926085Y-99962668D01*
X146607315Y-99683268D01*
X146854965Y-99683268D01*
X146899415Y-99681363D01*
X146932435Y-99669298D01*
X146958153Y-99635643D01*
X146966725Y-99570238D01*
X146954660Y-99499753D01*
X146918465Y-99466098D01*
X146853695Y-99458478D01*
X146147575Y-99458478D01*
X146103760Y-99460383D01*
X146070105Y-99472448D01*
X146044387Y-99506103D01*
X146035815Y-99571508D01*
X146047562Y-99642310D01*
X146082805Y-99676918D01*
X146148845Y-99683268D01*
X146391415Y-99683268D01*
X146316485Y-99749714D01*
X146247143Y-99810877D01*
X146183389Y-99866757D01*
X146125223Y-99917354D01*
X146072645Y-99962668D01*
X146020575Y-100040138D01*
X145755992Y-100040138D01*
X145755992Y-98826018D01*
X146035815Y-98826018D01*
X146047562Y-98896820D01*
X146082805Y-98931428D01*
X146148845Y-98937778D01*
X146778765Y-98937778D01*
X146778765Y-99283218D01*
X146788290Y-99344178D01*
X146818135Y-99369578D01*
X146872110Y-99375928D01*
X146926085Y-99369578D01*
X146954025Y-99347988D01*
X146966725Y-99281948D01*
X146966725Y-98824748D01*
X146954660Y-98754263D01*
X146918465Y-98720608D01*
X146853695Y-98712988D01*
X146147575Y-98712988D01*
X146103760Y-98714893D01*
X146070105Y-98726958D01*
X146044387Y-98760613D01*
X146035815Y-98826018D01*
X145755992Y-98826018D01*
X145755992Y-98316748D01*
X146026925Y-98316748D01*
X146031529Y-98376914D01*
X146045340Y-98438033D01*
X146082805Y-98531378D01*
X146100585Y-98561858D01*
X146123445Y-98597418D01*
X146183770Y-98630438D01*
X146254255Y-98603768D01*
X146305690Y-98556778D01*
X146322835Y-98514868D01*
X146294895Y-98450098D01*
X146262510Y-98387868D01*
X146251715Y-98307858D01*
X146266002Y-98225943D01*
X146308865Y-98145298D01*
X146387605Y-98081798D01*
X146441739Y-98062748D01*
X146502540Y-98056398D01*
X146563341Y-98062748D01*
X146617475Y-98081798D01*
X146697485Y-98146568D01*
X146739395Y-98225625D01*
X146753365Y-98307858D01*
X146743205Y-98382153D01*
X146722885Y-98432318D01*
X146706375Y-98455178D01*
X146680975Y-98516138D01*
X146698755Y-98557095D01*
X146752095Y-98601228D01*
X146823215Y-98629168D01*
X146867665Y-98612023D01*
X146899415Y-98572018D01*
X146926085Y-98528203D01*
X146959105Y-98442478D01*
X146974345Y-98378819D01*
X146979425Y-98317383D01*
X146975456Y-98256740D01*
X146963550Y-98195463D01*
X146942278Y-98132915D01*
X146910210Y-98068463D01*
X146868618Y-98006391D01*
X146818770Y-97950988D01*
X146757175Y-97903521D01*
X146680340Y-97865263D01*
X146592234Y-97840021D01*
X146496825Y-97831608D01*
X146402369Y-97839863D01*
X146317120Y-97864628D01*
X146243460Y-97902251D01*
X146183770Y-97949083D01*
X146135351Y-98004169D01*
X146095505Y-98066558D01*
X146057405Y-98149672D01*
X146034545Y-98233069D01*
X146026925Y-98316748D01*
X145755992Y-98316748D01*
X145755992Y-97636027D01*
X146028195Y-97636027D01*
X146040895Y-97695717D01*
X146076455Y-97759535D01*
X146122175Y-97780808D01*
X146184405Y-97765568D01*
X146889255Y-97521727D01*
X146910845Y-97512837D01*
X146944500Y-97479182D01*
X146965455Y-97414412D01*
X146944500Y-97349642D01*
X146903225Y-97313447D01*
X146465075Y-97164857D01*
X146615341Y-97114007D01*
X146732893Y-97074230D01*
X146817729Y-97045528D01*
X146869849Y-97027901D01*
X146889255Y-97021347D01*
X146910845Y-97009917D01*
X146936245Y-96989597D01*
X146965455Y-96919747D01*
X146946405Y-96853072D01*
X146908305Y-96818147D01*
X146889255Y-96809257D01*
X146184405Y-96564147D01*
X146122175Y-96550177D01*
X146076772Y-96571450D01*
X146042165Y-96635267D01*
X146029465Y-96701942D01*
X146049785Y-96747663D01*
X146112015Y-96776237D01*
X146536195Y-96915937D01*
X146118365Y-97054367D01*
X146073280Y-97079450D01*
X146044705Y-97119137D01*
X146035815Y-97171842D01*
X146056770Y-97232167D01*
X146098045Y-97267727D01*
X146538735Y-97413777D01*
X146112015Y-97553477D01*
X146068835Y-97569987D01*
X146041530Y-97593482D01*
X146028195Y-97636027D01*
X145755992Y-97636027D01*
X145755992Y-96148857D01*
X146020575Y-96148857D01*
X146025496Y-96221724D01*
X146040260Y-96287922D01*
X146080265Y-96374917D01*
X146104395Y-96406667D01*
X146166625Y-96446037D01*
X146236475Y-96415557D01*
X146284100Y-96371742D01*
X146299975Y-96326657D01*
X146274575Y-96260617D01*
X146261875Y-96246012D01*
X146245365Y-96226327D01*
X146228855Y-96158382D01*
X146248540Y-96089802D01*
X146303150Y-96062497D01*
X146359665Y-96094882D01*
X146388875Y-96175527D01*
X146398559Y-96226010D01*
X146412370Y-96280937D01*
X146429991Y-96335865D01*
X146451105Y-96386347D01*
X146482379Y-96430639D01*
X146530480Y-96466992D01*
X146593504Y-96491281D01*
X146669545Y-96499377D01*
X146747174Y-96491122D01*
X146814960Y-96466357D01*
X146870681Y-96428257D01*
X146912115Y-96379997D01*
X146949509Y-96309865D01*
X146971946Y-96236629D01*
X146979425Y-96160287D01*
X146975774Y-96102185D01*
X146964820Y-96047257D01*
X146928625Y-95960897D01*
X146888620Y-95903747D01*
X146849885Y-95866917D01*
X146835915Y-95855487D01*
X146762890Y-95822467D01*
X146725266Y-95836120D01*
X146677165Y-95877077D01*
X146646685Y-95944387D01*
X146662560Y-95986932D01*
X146710185Y-96043447D01*
X146751460Y-96094247D01*
X146771145Y-96155207D01*
X146760421Y-96220824D01*
X146728247Y-96260194D01*
X146674625Y-96273317D01*
X146625730Y-96240932D01*
X146597155Y-96160287D01*
X146585566Y-96110122D01*
X146568580Y-96056147D01*
X146547149Y-96002172D01*
X146522225Y-95952007D01*
X146487776Y-95907716D01*
X146437770Y-95871362D01*
X146374111Y-95847074D01*
X146298705Y-95838977D01*
X146227373Y-95848220D01*
X146162392Y-95875949D01*
X146103760Y-95922162D01*
X146057546Y-95984322D01*
X146029818Y-96059887D01*
X146020575Y-96148857D01*
X145755992Y-96148857D01*
X145755992Y-94499551D01*
X147244008Y-94499551D01*
X147244008Y-100280591D01*
X147240426Y-100353516D01*
G37*
X141000000Y-117000000D02*
X140900000Y-117150000D01*
X140900000Y-117150000D02*
X139900000Y-117290000D01*
X139900000Y-117290000D02*
X139700000Y-117050000D01*
X139700000Y-117050000D02*
X139700000Y-116350000D01*
X139700000Y-116350000D02*
X139850000Y-116110000D01*
X139850000Y-116110000D02*
X140800000Y-116110000D01*
X140800000Y-116110000D02*
X141000000Y-116300000D01*
X141000000Y-116300000D02*
X140750000Y-116310000D01*
X140750000Y-116310000D02*
X140710000Y-116290000D01*
X140710000Y-116290000D02*
X140650000Y-116280000D01*
X140650000Y-116280000D02*
X140600000Y-116300000D01*
X140600000Y-116300000D02*
X140580000Y-116340000D01*
X140580000Y-116340000D02*
X140350000Y-116460000D01*
X140350000Y-116460000D02*
X140330000Y-116400000D01*
X140330000Y-116400000D02*
X140300000Y-116360000D01*
X140300000Y-116360000D02*
X140270000Y-116310000D01*
X140270000Y-116310000D02*
X140220000Y-116290000D01*
X140220000Y-116290000D02*
X140170000Y-116260000D01*
X140170000Y-116260000D02*
X140110000Y-116250000D01*
X140110000Y-116250000D02*
X140040000Y-116250000D01*
X140040000Y-116250000D02*
X139990000Y-116260000D01*
X139990000Y-116260000D02*
X139930000Y-116280000D01*
X139930000Y-116280000D02*
X139880000Y-116320000D01*
X139880000Y-116320000D02*
X139840000Y-116360000D01*
X139840000Y-116360000D02*
X139810000Y-116410000D01*
X139810000Y-116410000D02*
X139790000Y-116460000D01*
X139790000Y-116460000D02*
X139770000Y-116520000D01*
X139770000Y-116520000D02*
X139760000Y-116580000D01*
X139760000Y-116580000D02*
X139760000Y-116640000D01*
X139760000Y-116640000D02*
X139750000Y-116700000D01*
X139750000Y-116700000D02*
X139760000Y-116770000D01*
X139760000Y-116770000D02*
X139770000Y-116830000D01*
X139770000Y-116830000D02*
X139780000Y-116890000D01*
X139780000Y-116890000D02*
X139800000Y-116940000D01*
X139800000Y-116940000D02*
X139830000Y-116980000D01*
X139830000Y-116980000D02*
X139860000Y-117030000D01*
X139860000Y-117030000D02*
X139900000Y-117070000D01*
X139900000Y-117070000D02*
X139950000Y-117090000D01*
X139950000Y-117090000D02*
X140010000Y-117110000D01*
X140010000Y-117110000D02*
X140070000Y-117110000D01*
X140070000Y-117110000D02*
X140130000Y-117110000D01*
X140130000Y-117110000D02*
X140190000Y-117090000D01*
X140190000Y-117090000D02*
X140240000Y-117070000D01*
X140240000Y-117070000D02*
X140290000Y-117030000D01*
X140290000Y-117030000D02*
X140320000Y-116990000D01*
X140320000Y-116990000D02*
X140350000Y-116930000D01*
X140350000Y-116930000D02*
X140370000Y-116880000D01*
X140370000Y-116880000D02*
X140380000Y-116820000D01*
X140380000Y-116820000D02*
X140390000Y-116760000D01*
X140390000Y-116760000D02*
X140390000Y-116700000D01*
X140390000Y-116700000D02*
X140390000Y-116630000D01*
X140390000Y-116630000D02*
X140380000Y-116570000D01*
X140380000Y-116570000D02*
X140370000Y-116520000D01*
X140370000Y-116520000D02*
X140350000Y-116460000D01*
X140350000Y-116460000D02*
X140580000Y-116340000D01*
X140580000Y-116340000D02*
X140580000Y-117060000D01*
X140580000Y-117060000D02*
X140600000Y-117100000D01*
X140600000Y-117100000D02*
X140660000Y-117110000D01*
X140660000Y-117110000D02*
X140740000Y-117110000D01*
X140740000Y-117110000D02*
X140770000Y-117070000D01*
X140770000Y-117070000D02*
X140780000Y-117020000D01*
X140780000Y-117020000D02*
X140780000Y-116660000D01*
X140780000Y-116660000D02*
X140790000Y-116620000D01*
X140790000Y-116620000D02*
X140840000Y-116650000D01*
X140840000Y-116650000D02*
X140890000Y-116660000D01*
X140890000Y-116660000D02*
X140940000Y-116620000D01*
X140940000Y-116620000D02*
X140970000Y-116560000D01*
X140970000Y-116560000D02*
X140970000Y-116520000D01*
X140970000Y-116520000D02*
X140920000Y-116470000D01*
X140920000Y-116470000D02*
X140750000Y-116310000D01*
X140750000Y-116310000D02*
X141000000Y-116300000D01*
X141000000Y-116300000D02*
X141000000Y-117000000D01*
G36*
X141000000Y-116300000D02*
G01*
X141000000Y-117000000D01*
X140900000Y-117150000D01*
X139900000Y-117290000D01*
X139700000Y-117050000D01*
X139700000Y-116700000D01*
X139750000Y-116700000D01*
X139760000Y-116770000D01*
X139780000Y-116890000D01*
X139800000Y-116940000D01*
X139830000Y-116980000D01*
X139860000Y-117030000D01*
X139900000Y-117070000D01*
X139950000Y-117090000D01*
X140010000Y-117110000D01*
X140130000Y-117110000D01*
X140190000Y-117090000D01*
X140240000Y-117070000D01*
X140252500Y-117060000D01*
X140580000Y-117060000D01*
X140600000Y-117100000D01*
X140660000Y-117110000D01*
X140740000Y-117110000D01*
X140770000Y-117070000D01*
X140780000Y-117020000D01*
X140780000Y-116660000D01*
X140790000Y-116620000D01*
X140840000Y-116650000D01*
X140890000Y-116660000D01*
X140940000Y-116620000D01*
X140970000Y-116560000D01*
X140970000Y-116520000D01*
X140920000Y-116470000D01*
X140750000Y-116310000D01*
X140710000Y-116290000D01*
X140650000Y-116280000D01*
X140600000Y-116300000D01*
X140580000Y-116340000D01*
X140580000Y-117060000D01*
X140252500Y-117060000D01*
X140290000Y-117030000D01*
X140320000Y-116990000D01*
X140350000Y-116930000D01*
X140370000Y-116880000D01*
X140390000Y-116760000D01*
X140390000Y-116630000D01*
X140380000Y-116570000D01*
X140370000Y-116520000D01*
X140330000Y-116400000D01*
X140300000Y-116360000D01*
X140270000Y-116310000D01*
X140220000Y-116290000D01*
X140170000Y-116260000D01*
X140110000Y-116250000D01*
X140040000Y-116250000D01*
X139990000Y-116260000D01*
X139930000Y-116280000D01*
X139880000Y-116320000D01*
X139840000Y-116360000D01*
X139810000Y-116410000D01*
X139790000Y-116460000D01*
X139770000Y-116520000D01*
X139760000Y-116580000D01*
X139760000Y-116640000D01*
X139750000Y-116700000D01*
X139700000Y-116700000D01*
X139700000Y-116350000D01*
X139850000Y-116110000D01*
X140800000Y-116110000D01*
X141000000Y-116300000D01*
G37*
X141000000Y-116300000D02*
X141000000Y-117000000D01*
X140900000Y-117150000D01*
X139900000Y-117290000D01*
X139700000Y-117050000D01*
X139700000Y-116700000D01*
X139750000Y-116700000D01*
X139760000Y-116770000D01*
X139780000Y-116890000D01*
X139800000Y-116940000D01*
X139830000Y-116980000D01*
X139860000Y-117030000D01*
X139900000Y-117070000D01*
X139950000Y-117090000D01*
X140010000Y-117110000D01*
X140130000Y-117110000D01*
X140190000Y-117090000D01*
X140240000Y-117070000D01*
X140252500Y-117060000D01*
X140580000Y-117060000D01*
X140600000Y-117100000D01*
X140660000Y-117110000D01*
X140740000Y-117110000D01*
X140770000Y-117070000D01*
X140780000Y-117020000D01*
X140780000Y-116660000D01*
X140790000Y-116620000D01*
X140840000Y-116650000D01*
X140890000Y-116660000D01*
X140940000Y-116620000D01*
X140970000Y-116560000D01*
X140970000Y-116520000D01*
X140920000Y-116470000D01*
X140750000Y-116310000D01*
X140710000Y-116290000D01*
X140650000Y-116280000D01*
X140600000Y-116300000D01*
X140580000Y-116340000D01*
X140580000Y-117060000D01*
X140252500Y-117060000D01*
X140290000Y-117030000D01*
X140320000Y-116990000D01*
X140350000Y-116930000D01*
X140370000Y-116880000D01*
X140390000Y-116760000D01*
X140390000Y-116630000D01*
X140380000Y-116570000D01*
X140370000Y-116520000D01*
X140330000Y-116400000D01*
X140300000Y-116360000D01*
X140270000Y-116310000D01*
X140220000Y-116290000D01*
X140170000Y-116260000D01*
X140110000Y-116250000D01*
X140040000Y-116250000D01*
X139990000Y-116260000D01*
X139930000Y-116280000D01*
X139880000Y-116320000D01*
X139840000Y-116360000D01*
X139810000Y-116410000D01*
X139790000Y-116460000D01*
X139770000Y-116520000D01*
X139760000Y-116580000D01*
X139760000Y-116640000D01*
X139750000Y-116700000D01*
X139700000Y-116700000D01*
X139700000Y-116350000D01*
X139850000Y-116110000D01*
X140800000Y-116110000D01*
X141000000Y-116300000D01*
X140070000Y-116910000D02*
X140030000Y-116900000D01*
X140030000Y-116900000D02*
X139990000Y-116870000D01*
X139990000Y-116870000D02*
X139970000Y-116820000D01*
X139970000Y-116820000D02*
X139960000Y-116750000D01*
X139960000Y-116750000D02*
X139960000Y-116670000D01*
X139960000Y-116670000D02*
X139960000Y-116580000D01*
X139960000Y-116580000D02*
X139980000Y-116520000D01*
X139980000Y-116520000D02*
X140010000Y-116480000D01*
X140010000Y-116480000D02*
X140040000Y-116460000D01*
X140040000Y-116460000D02*
X140090000Y-116450000D01*
X140090000Y-116450000D02*
X140130000Y-116470000D01*
X140130000Y-116470000D02*
X140160000Y-116500000D01*
X140160000Y-116500000D02*
X140180000Y-116560000D01*
X140180000Y-116560000D02*
X140190000Y-116630000D01*
X140190000Y-116630000D02*
X140190000Y-116720000D01*
X140190000Y-116720000D02*
X140180000Y-116800000D01*
X140180000Y-116800000D02*
X140160000Y-116860000D01*
X140160000Y-116860000D02*
X140130000Y-116890000D01*
X140130000Y-116890000D02*
X140090000Y-116910000D01*
X140090000Y-116910000D02*
X140070000Y-116910000D01*
X140070000Y-116910000D02*
X140070000Y-116910000D01*
G36*
X140130000Y-116470000D02*
G01*
X140160000Y-116500000D01*
X140180000Y-116560000D01*
X140190000Y-116630000D01*
X140190000Y-116720000D01*
X140180000Y-116800000D01*
X140160000Y-116860000D01*
X140130000Y-116890000D01*
X140090000Y-116910000D01*
X140070000Y-116910000D01*
X140030000Y-116900000D01*
X139990000Y-116870000D01*
X139970000Y-116820000D01*
X139960000Y-116750000D01*
X139960000Y-116580000D01*
X139980000Y-116520000D01*
X140010000Y-116480000D01*
X140040000Y-116460000D01*
X140090000Y-116450000D01*
X140130000Y-116470000D01*
G37*
X140130000Y-116470000D02*
X140160000Y-116500000D01*
X140180000Y-116560000D01*
X140190000Y-116630000D01*
X140190000Y-116720000D01*
X140180000Y-116800000D01*
X140160000Y-116860000D01*
X140130000Y-116890000D01*
X140090000Y-116910000D01*
X140070000Y-116910000D01*
X140030000Y-116900000D01*
X139990000Y-116870000D01*
X139970000Y-116820000D01*
X139960000Y-116750000D01*
X139960000Y-116580000D01*
X139980000Y-116520000D01*
X140010000Y-116480000D01*
X140040000Y-116460000D01*
X140090000Y-116450000D01*
X140130000Y-116470000D01*
G36*
X161050000Y-104150000D02*
G01*
X161050000Y-104525000D01*
X161000000Y-104950000D01*
X160850000Y-105007100D01*
X160241245Y-105007100D01*
X160241245Y-104816151D01*
X160333849Y-104816151D01*
X160341072Y-104872269D01*
X160364964Y-104901161D01*
X160433862Y-104914496D01*
X160868361Y-104914496D01*
X160937258Y-104884493D01*
X160966151Y-104814484D01*
X160955733Y-104756838D01*
X160924479Y-104703914D01*
X160878501Y-104656964D01*
X160823911Y-104617237D01*
X160765014Y-104581399D01*
X160706118Y-104546117D01*
X160651528Y-104508751D01*
X160605550Y-104466662D01*
X160574296Y-104420823D01*
X160563878Y-104372206D01*
X160571657Y-104343869D01*
X160588881Y-104313866D01*
X160618329Y-104292196D01*
X160673892Y-104282195D01*
X160735566Y-104308309D01*
X160765014Y-104359982D01*
X160769459Y-104385541D01*
X160769459Y-104392209D01*
X160771126Y-104428880D01*
X160781683Y-104456661D01*
X160811687Y-104476664D01*
X160868361Y-104483331D01*
X160930313Y-104472774D01*
X160960594Y-104441104D01*
X160966151Y-104384430D01*
X160956952Y-104310038D01*
X160929356Y-104240955D01*
X160883363Y-104177182D01*
X160822491Y-104126250D01*
X160750259Y-104095690D01*
X160666669Y-104085504D01*
X160583016Y-104095814D01*
X160510600Y-104126743D01*
X160449419Y-104178293D01*
X160403117Y-104243054D01*
X160375336Y-104313619D01*
X160366076Y-104389986D01*
X160373021Y-104451661D01*
X160393857Y-104510001D01*
X160424416Y-104561119D01*
X160460532Y-104601124D01*
X160538319Y-104662520D01*
X160607217Y-104700025D01*
X160634998Y-104711138D01*
X160634998Y-104716694D01*
X160431639Y-104716694D01*
X160366631Y-104727251D01*
X160340517Y-104759477D01*
X160333849Y-104816151D01*
X160241245Y-104816151D01*
X160241245Y-103992900D01*
X160966151Y-103992900D01*
X161050000Y-104150000D01*
G37*
G36*
X144485395Y-96209817D02*
G01*
X144457455Y-96283477D01*
X144373635Y-96320307D01*
X144289180Y-96283477D01*
X144260605Y-96207277D01*
X144260605Y-96047257D01*
X144485395Y-96047257D01*
X144485395Y-96209817D01*
G37*
G36*
X145240426Y-100022046D02*
G01*
X145229712Y-100094270D01*
X145211972Y-100165095D01*
X145187374Y-100233840D01*
X145156157Y-100299844D01*
X145118620Y-100362470D01*
X145075126Y-100421115D01*
X145026093Y-100475214D01*
X144971994Y-100524247D01*
X144913349Y-100567741D01*
X144850723Y-100605278D01*
X144784720Y-100636495D01*
X144715974Y-100661092D01*
X144645149Y-100678833D01*
X144572926Y-100689547D01*
X144500000Y-100693129D01*
X144427074Y-100689547D01*
X144354851Y-100678833D01*
X144284026Y-100661092D01*
X144215280Y-100636495D01*
X144149277Y-100605278D01*
X144086651Y-100567741D01*
X144028006Y-100524247D01*
X143973907Y-100475214D01*
X143924874Y-100421115D01*
X143881380Y-100362470D01*
X143843843Y-100299844D01*
X143812626Y-100233840D01*
X143788028Y-100165095D01*
X143770288Y-100094270D01*
X143759574Y-100022046D01*
X143755992Y-99949121D01*
X143755992Y-99751848D01*
X144034545Y-99751848D01*
X144044070Y-99811538D01*
X144073915Y-99836938D01*
X144127255Y-99843288D01*
X144179960Y-99836938D01*
X144207265Y-99815348D01*
X144218695Y-99750578D01*
X144218695Y-99508008D01*
X144857505Y-99508008D01*
X144900685Y-99506103D01*
X144933070Y-99494673D01*
X144959105Y-99461018D01*
X144966725Y-99397518D01*
X144959105Y-99334653D01*
X144933070Y-99301633D01*
X144900050Y-99290203D01*
X144856235Y-99288298D01*
X144218695Y-99288298D01*
X144218695Y-99044458D01*
X144209170Y-98984768D01*
X144179325Y-98959368D01*
X144125985Y-98953018D01*
X144073280Y-98959368D01*
X144045975Y-98980958D01*
X144034545Y-99045728D01*
X144034545Y-99751848D01*
X143755992Y-99751848D01*
X143755992Y-98790458D01*
X144035815Y-98790458D01*
X144037720Y-98834273D01*
X144049785Y-98867928D01*
X144083440Y-98893645D01*
X144148845Y-98902218D01*
X144219330Y-98890470D01*
X144252985Y-98855228D01*
X144260605Y-98789188D01*
X144260605Y-98399298D01*
X144388875Y-98399298D01*
X144388875Y-98650758D01*
X144390780Y-98694573D01*
X144402845Y-98728228D01*
X144436500Y-98753945D01*
X144501905Y-98762518D01*
X144572390Y-98750453D01*
X144606045Y-98714258D01*
X144613665Y-98648218D01*
X144613665Y-98399298D01*
X144741935Y-98399298D01*
X144741935Y-98790458D01*
X144743840Y-98834273D01*
X144755905Y-98867928D01*
X144789560Y-98893645D01*
X144854965Y-98902218D01*
X144925450Y-98890470D01*
X144959105Y-98855228D01*
X144966725Y-98789188D01*
X144966725Y-98286268D01*
X144954660Y-98215783D01*
X144918465Y-98182128D01*
X144853695Y-98174508D01*
X144147575Y-98174508D01*
X144059310Y-98198638D01*
X144035815Y-98290078D01*
X144035815Y-98790458D01*
X143755992Y-98790458D01*
X143755992Y-97741438D01*
X144020575Y-97741438D01*
X144025496Y-97814304D01*
X144040260Y-97880503D01*
X144080265Y-97967498D01*
X144104395Y-97999248D01*
X144166625Y-98038618D01*
X144236475Y-98008138D01*
X144284100Y-97964323D01*
X144299975Y-97919238D01*
X144274575Y-97853198D01*
X144261875Y-97838593D01*
X144245365Y-97818908D01*
X144228855Y-97750963D01*
X144248540Y-97682383D01*
X144303150Y-97655078D01*
X144359665Y-97687463D01*
X144388875Y-97768108D01*
X144398559Y-97818590D01*
X144412370Y-97873518D01*
X144429991Y-97928445D01*
X144451105Y-97978928D01*
X144482379Y-98023219D01*
X144530480Y-98059573D01*
X144593504Y-98083861D01*
X144669545Y-98091958D01*
X144747174Y-98083703D01*
X144814960Y-98058938D01*
X144870681Y-98020838D01*
X144912115Y-97972578D01*
X144949509Y-97902445D01*
X144971946Y-97829209D01*
X144979425Y-97752868D01*
X144975774Y-97694765D01*
X144964820Y-97639838D01*
X144928625Y-97553477D01*
X144888620Y-97496327D01*
X144849885Y-97459497D01*
X144835915Y-97448067D01*
X144762890Y-97415047D01*
X144725266Y-97428700D01*
X144677165Y-97469657D01*
X144646685Y-97536967D01*
X144662560Y-97579512D01*
X144710185Y-97636028D01*
X144751460Y-97686828D01*
X144771145Y-97747788D01*
X144760421Y-97813404D01*
X144728247Y-97852774D01*
X144674625Y-97865898D01*
X144625730Y-97833513D01*
X144597155Y-97752868D01*
X144585566Y-97702703D01*
X144568580Y-97648728D01*
X144547149Y-97594752D01*
X144522225Y-97544587D01*
X144487776Y-97500296D01*
X144437770Y-97463942D01*
X144374111Y-97439654D01*
X144298705Y-97431557D01*
X144227373Y-97440800D01*
X144162392Y-97468529D01*
X144103760Y-97514742D01*
X144057546Y-97576902D01*
X144029818Y-97652467D01*
X144020575Y-97741438D01*
X143755992Y-97741438D01*
X143755992Y-97239787D01*
X144035815Y-97239787D01*
X144037720Y-97283602D01*
X144049785Y-97317257D01*
X144083440Y-97342975D01*
X144148845Y-97351547D01*
X144219330Y-97339800D01*
X144252985Y-97304557D01*
X144260605Y-97238517D01*
X144260605Y-96848627D01*
X144388875Y-96848627D01*
X144388875Y-97100087D01*
X144390780Y-97143902D01*
X144402845Y-97177557D01*
X144436500Y-97203275D01*
X144501905Y-97211847D01*
X144572390Y-97199782D01*
X144606045Y-97163587D01*
X144613665Y-97097547D01*
X144613665Y-96848627D01*
X144741935Y-96848627D01*
X144741935Y-97239787D01*
X144743840Y-97283602D01*
X144755905Y-97317257D01*
X144789560Y-97342975D01*
X144854965Y-97351547D01*
X144925450Y-97339800D01*
X144959105Y-97304557D01*
X144966725Y-97238517D01*
X144966725Y-96735597D01*
X144954660Y-96665112D01*
X144918465Y-96631457D01*
X144853695Y-96623837D01*
X144147575Y-96623837D01*
X144059310Y-96647967D01*
X144035815Y-96739407D01*
X144035815Y-97239787D01*
X143755992Y-97239787D01*
X143755992Y-95935497D01*
X144035815Y-95935497D01*
X144035815Y-96209817D01*
X144044846Y-96283619D01*
X144071939Y-96356009D01*
X144117095Y-96426987D01*
X144163450Y-96473342D01*
X144223775Y-96510807D01*
X144294895Y-96535572D01*
X144373635Y-96543827D01*
X144463664Y-96533244D01*
X144542404Y-96501494D01*
X144609855Y-96448577D01*
X144661925Y-96470591D01*
X144728388Y-96499377D01*
X144809245Y-96534937D01*
X144875285Y-96553987D01*
X144919735Y-96534302D01*
X144956565Y-96475247D01*
X144974345Y-96409842D01*
X144962280Y-96369202D01*
X144937515Y-96345707D01*
X144901249Y-96329056D01*
X144824626Y-96296036D01*
X144707645Y-96246647D01*
X144710185Y-96207277D01*
X144710185Y-96047257D01*
X144853695Y-96047257D01*
X144897510Y-96045352D01*
X144931165Y-96033287D01*
X144956883Y-95999632D01*
X144965455Y-95934227D01*
X144953708Y-95863742D01*
X144918465Y-95830087D01*
X144852425Y-95822467D01*
X144147575Y-95822467D01*
X144103760Y-95824372D01*
X144070105Y-95836437D01*
X144044387Y-95870092D01*
X144035815Y-95935497D01*
X143755992Y-95935497D01*
X143755992Y-94499551D01*
X145244008Y-94499551D01*
X145244008Y-99949121D01*
X145240426Y-100022046D01*
G37*
M02*
