G04 #@! TF.GenerationSoftware,KiCad,Pcbnew,(6.0.0-0)*
G04 #@! TF.CreationDate,2022-05-15T17:03:53+02:00*
G04 #@! TF.ProjectId,rp2040_stamp,72703230-3430-45f7-9374-616d702e6b69,rev?*
G04 #@! TF.SameCoordinates,Original*
G04 #@! TF.FileFunction,Copper,L2,Bot*
G04 #@! TF.FilePolarity,Positive*
%FSLAX46Y46*%
G04 Gerber Fmt 4.6, Leading zero omitted, Abs format (unit mm)*
G04 Created by KiCad (PCBNEW (6.0.0-0)) date 2022-05-15 17:03:53*
%MOMM*%
%LPD*%
G01*
G04 APERTURE LIST*
G04 #@! TA.AperFunction,SMDPad,CuDef*
%ADD10R,1.500000X3.000000*%
G04 #@! TD*
G04 #@! TA.AperFunction,ComponentPad*
%ADD11C,1.350000*%
G04 #@! TD*
G04 #@! TA.AperFunction,ComponentPad*
%ADD12O,1.350000X1.350000*%
G04 #@! TD*
G04 #@! TA.AperFunction,SMDPad,CuDef*
%ADD13R,3.000000X1.500000*%
G04 #@! TD*
G04 #@! TA.AperFunction,ViaPad*
%ADD14C,0.600000*%
G04 #@! TD*
G04 #@! TA.AperFunction,Conductor*
%ADD15C,0.400000*%
G04 #@! TD*
G04 #@! TA.AperFunction,Conductor*
%ADD16C,0.150000*%
G04 #@! TD*
G04 #@! TA.AperFunction,Conductor*
%ADD17C,0.250000*%
G04 #@! TD*
G04 APERTURE END LIST*
D10*
X142500000Y-93750000D03*
D11*
X142500000Y-94500000D03*
X142500000Y-93000000D03*
D10*
X144500000Y-93750000D03*
D12*
X144500000Y-94500000D03*
X144500000Y-93000000D03*
D10*
X146500000Y-93750000D03*
D12*
X146500000Y-94500000D03*
X146500000Y-93000000D03*
D10*
X148500000Y-93750000D03*
D12*
X148500000Y-93000000D03*
X148500000Y-94500000D03*
X150500000Y-93000000D03*
D10*
X150500000Y-93750000D03*
D12*
X150500000Y-94500000D03*
X152500000Y-94500000D03*
D10*
X152500000Y-93750000D03*
D12*
X152500000Y-93000000D03*
X154500000Y-94500000D03*
D10*
X154500000Y-93750000D03*
D12*
X154500000Y-93000000D03*
D10*
X156500000Y-93750000D03*
D12*
X156500000Y-94500000D03*
X156500000Y-93000000D03*
X158500000Y-94500000D03*
X158500000Y-93000000D03*
D10*
X158500000Y-93750000D03*
X160500000Y-93750000D03*
D12*
X160500000Y-93000000D03*
X160500000Y-94500000D03*
D11*
X142500000Y-116500000D03*
D10*
X142500000Y-117250000D03*
D11*
X142500000Y-118000000D03*
D10*
X144500000Y-117250000D03*
D12*
X144500000Y-116500000D03*
X144500000Y-118000000D03*
X146500000Y-116500000D03*
X146500000Y-118000000D03*
D10*
X146500000Y-117250000D03*
D12*
X148500000Y-116500000D03*
D10*
X148500000Y-117250000D03*
D12*
X148500000Y-118000000D03*
X150500000Y-116500000D03*
X150500000Y-118000000D03*
D10*
X150500000Y-117250000D03*
X152500000Y-117250000D03*
D12*
X152500000Y-118000000D03*
X152500000Y-116500000D03*
X154500000Y-118000000D03*
D10*
X154500000Y-117250000D03*
D12*
X154500000Y-116500000D03*
X156500000Y-116500000D03*
X156500000Y-118000000D03*
D10*
X156500000Y-117250000D03*
D12*
X158500000Y-118000000D03*
X158500000Y-116500000D03*
D10*
X158500000Y-117250000D03*
X160500000Y-117250000D03*
D12*
X160500000Y-116500000D03*
X160500000Y-118000000D03*
D11*
X140500000Y-96500000D03*
D13*
X139750000Y-96500000D03*
D11*
X139000000Y-96500000D03*
D12*
X139000000Y-98500000D03*
D13*
X139750000Y-98500000D03*
D12*
X140500000Y-98500000D03*
X139000000Y-100500000D03*
X140500000Y-100500000D03*
D13*
X139750000Y-100500000D03*
X139750000Y-102500000D03*
D12*
X140500000Y-102500000D03*
X139000000Y-102500000D03*
X139000000Y-104500000D03*
X140500000Y-104500000D03*
D13*
X139750000Y-104500000D03*
D12*
X140500000Y-106500000D03*
D13*
X139750000Y-106500000D03*
D12*
X139000000Y-106500000D03*
X139000000Y-108500000D03*
D13*
X139750000Y-108500000D03*
D12*
X140500000Y-108500000D03*
X140500000Y-110500000D03*
X139000000Y-110500000D03*
D13*
X139750000Y-110500000D03*
X139750000Y-112500000D03*
D12*
X140500000Y-112500000D03*
X139000000Y-112500000D03*
X140500000Y-114500000D03*
X139000000Y-114500000D03*
D13*
X139750000Y-114500000D03*
D11*
X162500000Y-96500000D03*
D13*
X163250000Y-96500000D03*
D11*
X164000000Y-96500000D03*
D12*
X162500000Y-98500000D03*
X164000000Y-98500000D03*
D13*
X163250000Y-98500000D03*
D12*
X164000000Y-100500000D03*
D13*
X163250000Y-100500000D03*
D12*
X162500000Y-100500000D03*
D13*
X163250000Y-102500000D03*
D12*
X162500000Y-102500000D03*
X164000000Y-102500000D03*
D13*
X163250000Y-104500000D03*
D12*
X162500000Y-104500000D03*
X164000000Y-104500000D03*
X162500000Y-106500000D03*
D13*
X163250000Y-106500000D03*
D12*
X164000000Y-106500000D03*
X162500000Y-108500000D03*
D13*
X163250000Y-108500000D03*
D12*
X164000000Y-108500000D03*
X164000000Y-110500000D03*
X162500000Y-110500000D03*
D13*
X163250000Y-110500000D03*
X163250000Y-112500000D03*
D12*
X164000000Y-112500000D03*
X162500000Y-112500000D03*
X164000000Y-114500000D03*
X162500000Y-114500000D03*
D13*
X163250000Y-114500000D03*
G04 #@! TA.AperFunction,SMDPad,CuDef*
G36*
X145280000Y-103660000D02*
G01*
X145280000Y-104160000D01*
X145275033Y-104160000D01*
X145273568Y-104239941D01*
X145231293Y-104375256D01*
X145152738Y-104493266D01*
X145044219Y-104584486D01*
X144914460Y-104641581D01*
X144780000Y-104659164D01*
X144780000Y-104660000D01*
X144280000Y-104660000D01*
X144280000Y-104659164D01*
X144273891Y-104659963D01*
X144133814Y-104638152D01*
X144005489Y-104577904D01*
X143899231Y-104484060D01*
X143823583Y-104364165D01*
X143784626Y-104227858D01*
X143785041Y-104160000D01*
X143780000Y-104160000D01*
X143780000Y-103660000D01*
X145280000Y-103660000D01*
G37*
G04 #@! TD.AperFunction*
G04 #@! TA.AperFunction,SMDPad,CuDef*
G36*
X143785041Y-102860000D02*
G01*
X143785492Y-102786095D01*
X143826111Y-102650274D01*
X143903218Y-102531312D01*
X144010615Y-102438774D01*
X144139667Y-102380097D01*
X144280000Y-102360000D01*
X144780000Y-102360000D01*
X144792216Y-102360149D01*
X144932017Y-102383669D01*
X145059596Y-102445481D01*
X145164700Y-102540616D01*
X145238877Y-102661426D01*
X145276166Y-102798199D01*
X145275033Y-102860000D01*
X145280000Y-102860000D01*
X145280000Y-103360000D01*
X143780000Y-103360000D01*
X143780000Y-102860000D01*
X143785041Y-102860000D01*
G37*
G04 #@! TD.AperFunction*
D14*
X160875000Y-111050000D03*
X145475000Y-111275000D03*
X159275000Y-103375000D03*
X151670000Y-97550000D03*
X152900000Y-109650000D03*
X154900000Y-109650000D03*
X152900000Y-107650000D03*
X144916292Y-106841634D03*
X150835271Y-114360270D03*
X160500000Y-97650000D03*
X154900000Y-107650000D03*
X148775000Y-104099020D03*
X142897563Y-101099294D03*
X143951622Y-106823378D03*
X155110000Y-97550000D03*
X156523531Y-98640498D03*
X156445171Y-110520170D03*
X158700000Y-97325000D03*
X157825000Y-97325000D03*
X155797982Y-110898190D03*
X155053517Y-110984939D03*
X151375000Y-111175000D03*
X152900000Y-102400000D03*
X154300000Y-110900000D03*
X154275000Y-104125000D03*
X155175000Y-106175000D03*
X153425840Y-102934084D03*
X151359949Y-110418193D03*
D15*
X143951622Y-106823378D02*
X142897563Y-105769319D01*
X142897563Y-105769319D02*
X142897563Y-101099294D01*
D16*
X148601903Y-97025489D02*
X154585489Y-97025489D01*
X145150000Y-96100000D02*
X145625000Y-95625000D01*
X145150000Y-102150000D02*
X145150000Y-96100000D01*
X156445171Y-110520170D02*
X156445171Y-98718858D01*
X144475000Y-102825000D02*
X145150000Y-102150000D01*
X145625000Y-95625000D02*
X147201414Y-95625000D01*
X154585489Y-97025489D02*
X155110000Y-97550000D01*
X145625000Y-95625000D02*
X144500000Y-94500000D01*
X147201414Y-95625000D02*
X148601903Y-97025489D01*
X156445171Y-98718858D02*
X156523531Y-98640498D01*
D17*
X157052410Y-95677410D02*
X158700000Y-97325000D01*
X153677410Y-95677410D02*
X157052410Y-95677410D01*
X153677410Y-95677410D02*
X152500000Y-94500000D01*
X152076930Y-96076930D02*
X150500000Y-94500000D01*
X157825000Y-97325000D02*
X156544654Y-97325000D01*
X155296584Y-96076930D02*
X152076930Y-96076930D01*
X156544654Y-97325000D02*
X155296584Y-96076930D01*
D16*
X155151807Y-96426449D02*
X155999031Y-97273673D01*
X148850035Y-96426449D02*
X155151807Y-96426449D01*
X155999031Y-97273673D02*
X155999031Y-110224554D01*
X148346793Y-95923207D02*
X148850035Y-96426449D01*
X155999031Y-110224554D02*
X155797982Y-110425603D01*
X148346793Y-94653207D02*
X148346793Y-95923207D01*
X155797982Y-110425603D02*
X155797982Y-110898190D01*
X148725969Y-96725969D02*
X155027741Y-96725969D01*
X155699511Y-97397739D02*
X155699511Y-110100489D01*
X155273471Y-110764985D02*
X155053517Y-110984939D01*
X155273471Y-110526528D02*
X155273471Y-110764985D01*
X146500000Y-94500000D02*
X148725969Y-96725969D01*
X155027741Y-96725969D02*
X155699511Y-97397739D01*
X155699511Y-110100489D02*
X155273471Y-110526528D01*
X150824511Y-104475489D02*
X152900000Y-102400000D01*
X151375000Y-111175000D02*
X150824511Y-110624511D01*
X150824511Y-110624511D02*
X150824511Y-104475489D01*
X154300000Y-110900000D02*
X154300000Y-107050000D01*
X154275000Y-105275000D02*
X155175000Y-106175000D01*
X154300000Y-107050000D02*
X155175000Y-106175000D01*
X154275000Y-104125000D02*
X154275000Y-105275000D01*
X153165916Y-102934084D02*
X151359949Y-104740051D01*
X151359949Y-104740051D02*
X151359949Y-110418193D01*
X153425840Y-102934084D02*
X153165916Y-102934084D01*
G04 #@! TA.AperFunction,Conductor*
G36*
X161192121Y-93220002D02*
G01*
X161238614Y-93273658D01*
X161250000Y-93326000D01*
X161250000Y-96000000D01*
X159250000Y-96000000D01*
X159750000Y-95500000D01*
X159750000Y-93326000D01*
X159770002Y-93257879D01*
X159823658Y-93211386D01*
X159876000Y-93200000D01*
X161124000Y-93200000D01*
X161192121Y-93220002D01*
G37*
G04 #@! TD.AperFunction*
G04 #@! TA.AperFunction,Conductor*
G36*
X144884914Y-95770002D02*
G01*
X144931407Y-95823658D01*
X144941511Y-95893932D01*
X144921557Y-95946003D01*
X144890485Y-95992505D01*
X144888065Y-96004672D01*
X144888064Y-96004674D01*
X144883416Y-96028042D01*
X144882887Y-96030702D01*
X144869103Y-96100000D01*
X144871524Y-96112171D01*
X144872079Y-96114961D01*
X144874500Y-96139543D01*
X144874500Y-101983694D01*
X144854498Y-102051815D01*
X144837595Y-102072789D01*
X144791717Y-102118667D01*
X144729405Y-102152693D01*
X144702622Y-102155572D01*
X144349611Y-102155572D01*
X144331086Y-102154025D01*
X144331073Y-102154129D01*
X144328741Y-102153829D01*
X144328708Y-102153826D01*
X144328690Y-102153823D01*
X144326258Y-102153414D01*
X144294843Y-102150596D01*
X144292419Y-102150566D01*
X144292412Y-102150566D01*
X144289327Y-102150529D01*
X144282501Y-102150445D01*
X144251019Y-102152495D01*
X144248603Y-102152841D01*
X144113687Y-102172162D01*
X144113681Y-102172163D01*
X144109242Y-102172799D01*
X144104936Y-102174058D01*
X144104932Y-102174059D01*
X144057912Y-102187809D01*
X144053610Y-102189067D01*
X144049535Y-102190920D01*
X143927310Y-102246492D01*
X143927306Y-102246494D01*
X143923231Y-102248347D01*
X143874402Y-102279574D01*
X143871010Y-102282497D01*
X143871007Y-102282499D01*
X143797745Y-102345626D01*
X143765901Y-102373064D01*
X143762962Y-102376433D01*
X143762958Y-102376437D01*
X143755532Y-102384950D01*
X143727798Y-102416742D01*
X143649898Y-102536927D01*
X143625586Y-102589545D01*
X143624301Y-102593843D01*
X143624298Y-102593850D01*
X143601576Y-102669830D01*
X143584550Y-102726763D01*
X143575983Y-102784086D01*
X143575553Y-102854530D01*
X143575292Y-102897258D01*
X143575108Y-102927307D01*
X143575447Y-102929780D01*
X143575572Y-102933635D01*
X143575572Y-103360000D01*
X143591133Y-103438231D01*
X143635448Y-103504552D01*
X143701769Y-103548867D01*
X143713938Y-103551288D01*
X143713939Y-103551288D01*
X143771979Y-103562833D01*
X143780000Y-103564428D01*
X144215480Y-103564428D01*
X144234863Y-103565928D01*
X144236367Y-103566162D01*
X144242379Y-103567098D01*
X144246845Y-103567153D01*
X144246850Y-103567153D01*
X144273958Y-103567484D01*
X144300335Y-103567806D01*
X144304777Y-103567225D01*
X144304780Y-103567225D01*
X144318031Y-103565492D01*
X144334368Y-103564428D01*
X144715480Y-103564428D01*
X144734863Y-103565928D01*
X144736367Y-103566162D01*
X144742379Y-103567098D01*
X144746845Y-103567153D01*
X144746850Y-103567153D01*
X144773958Y-103567484D01*
X144800335Y-103567806D01*
X144804777Y-103567225D01*
X144804780Y-103567225D01*
X144818031Y-103565492D01*
X144834368Y-103564428D01*
X145280000Y-103564428D01*
X145288021Y-103562833D01*
X145346061Y-103551288D01*
X145346062Y-103551288D01*
X145358231Y-103548867D01*
X145424552Y-103504552D01*
X145468867Y-103438231D01*
X145484428Y-103360000D01*
X145484428Y-102869845D01*
X145484449Y-102867536D01*
X145485581Y-102805784D01*
X145485663Y-102801311D01*
X145478498Y-102743792D01*
X145440825Y-102605612D01*
X145421021Y-102559847D01*
X145419587Y-102556534D01*
X145419585Y-102556531D01*
X145417806Y-102552419D01*
X145361711Y-102461060D01*
X145343114Y-102392544D01*
X145364322Y-102325131D01*
X145402620Y-102267814D01*
X145409515Y-102257495D01*
X145425500Y-102177133D01*
X145425500Y-102177132D01*
X145430897Y-102150000D01*
X145427921Y-102135039D01*
X145425500Y-102110457D01*
X145425500Y-96266306D01*
X145445502Y-96198185D01*
X145462405Y-96177211D01*
X145702211Y-95937405D01*
X145764523Y-95903379D01*
X145791306Y-95900500D01*
X147035108Y-95900500D01*
X147103229Y-95920502D01*
X147124203Y-95937405D01*
X148379132Y-97192334D01*
X148394799Y-97211423D01*
X148403279Y-97224113D01*
X148426280Y-97239482D01*
X148426281Y-97239483D01*
X148494409Y-97285005D01*
X148601903Y-97306386D01*
X148616865Y-97303410D01*
X148641445Y-97300989D01*
X154419183Y-97300989D01*
X154487304Y-97320991D01*
X154508278Y-97337894D01*
X154573936Y-97403552D01*
X154607962Y-97465864D01*
X154609341Y-97512032D01*
X154604391Y-97543823D01*
X154605555Y-97552725D01*
X154605555Y-97552728D01*
X154610717Y-97592203D01*
X154622980Y-97685979D01*
X154680720Y-97817203D01*
X154686497Y-97824076D01*
X154686498Y-97824077D01*
X154686776Y-97824408D01*
X154772970Y-97926948D01*
X154892313Y-98006390D01*
X155029157Y-98049142D01*
X155038129Y-98049306D01*
X155038132Y-98049307D01*
X155103463Y-98050504D01*
X155172499Y-98051770D01*
X155182139Y-98049142D01*
X155264869Y-98026587D01*
X155335852Y-98027967D01*
X155394821Y-98067504D01*
X155423053Y-98132646D01*
X155424011Y-98148150D01*
X155424011Y-105557830D01*
X155404009Y-105625951D01*
X155350353Y-105672444D01*
X155280079Y-105682548D01*
X155261913Y-105678548D01*
X155249739Y-105674907D01*
X155240763Y-105674852D01*
X155240762Y-105674852D01*
X155115122Y-105674084D01*
X155047125Y-105653666D01*
X155026797Y-105637181D01*
X154587405Y-105197789D01*
X154553379Y-105135477D01*
X154550500Y-105108694D01*
X154550500Y-104610976D01*
X154570502Y-104542855D01*
X154593637Y-104516718D01*
X154597991Y-104514045D01*
X154694200Y-104407754D01*
X154756710Y-104278733D01*
X154780496Y-104137354D01*
X154780647Y-104125000D01*
X154760323Y-103983082D01*
X154700984Y-103852572D01*
X154682598Y-103831234D01*
X154613260Y-103750763D01*
X154613257Y-103750760D01*
X154607400Y-103743963D01*
X154487095Y-103665985D01*
X154349739Y-103624907D01*
X154340763Y-103624852D01*
X154340762Y-103624852D01*
X154280555Y-103624484D01*
X154206376Y-103624031D01*
X154068529Y-103663428D01*
X153947280Y-103739930D01*
X153852377Y-103847388D01*
X153791447Y-103977163D01*
X153769391Y-104118823D01*
X153770555Y-104127725D01*
X153770555Y-104127728D01*
X153771814Y-104137354D01*
X153787980Y-104260979D01*
X153791597Y-104269199D01*
X153840762Y-104380934D01*
X153845720Y-104392203D01*
X153851497Y-104399076D01*
X153851498Y-104399077D01*
X153858792Y-104407754D01*
X153937970Y-104501948D01*
X153945447Y-104506925D01*
X153952135Y-104512905D01*
X153950788Y-104514412D01*
X153988944Y-104559912D01*
X153999500Y-104610396D01*
X153999500Y-105235457D01*
X153997079Y-105260039D01*
X153994103Y-105275000D01*
X153999500Y-105302132D01*
X153999500Y-105302133D01*
X154015485Y-105382495D01*
X154076376Y-105473624D01*
X154086692Y-105480517D01*
X154086693Y-105480518D01*
X154089064Y-105482102D01*
X154108156Y-105497772D01*
X154638936Y-106028552D01*
X154672962Y-106090864D01*
X154674341Y-106137032D01*
X154669391Y-106168823D01*
X154675472Y-106215323D01*
X154664470Y-106285462D01*
X154639630Y-106320754D01*
X154133156Y-106827228D01*
X154114064Y-106842898D01*
X154101376Y-106851376D01*
X154040485Y-106942505D01*
X154027563Y-107007468D01*
X154019103Y-107050000D01*
X154021524Y-107062171D01*
X154022079Y-107064961D01*
X154024500Y-107089543D01*
X154024500Y-110413938D01*
X154004498Y-110482059D01*
X153980164Y-110509891D01*
X153979870Y-110510141D01*
X153972280Y-110514930D01*
X153877377Y-110622388D01*
X153816447Y-110752163D01*
X153815066Y-110761035D01*
X153804324Y-110830029D01*
X153794391Y-110893823D01*
X153795555Y-110902725D01*
X153795555Y-110902728D01*
X153803685Y-110964901D01*
X153812980Y-111035979D01*
X153870720Y-111167203D01*
X153876497Y-111174076D01*
X153876498Y-111174077D01*
X153887863Y-111187597D01*
X153962970Y-111276948D01*
X154000716Y-111302074D01*
X154072119Y-111349604D01*
X154082313Y-111356390D01*
X154219157Y-111399142D01*
X154228129Y-111399306D01*
X154228132Y-111399307D01*
X154293463Y-111400504D01*
X154362499Y-111401770D01*
X154371533Y-111399307D01*
X154492158Y-111366421D01*
X154492160Y-111366420D01*
X154500817Y-111364060D01*
X154508464Y-111359365D01*
X154508468Y-111359363D01*
X154551753Y-111332786D01*
X154620270Y-111314188D01*
X154687965Y-111335585D01*
X154703539Y-111349570D01*
X154704020Y-111349032D01*
X154710707Y-111355011D01*
X154716487Y-111361887D01*
X154835830Y-111441329D01*
X154972674Y-111484081D01*
X154981646Y-111484245D01*
X154981649Y-111484246D01*
X155046980Y-111485443D01*
X155116016Y-111486709D01*
X155125050Y-111484246D01*
X155245675Y-111451360D01*
X155245677Y-111451359D01*
X155254334Y-111448999D01*
X155376508Y-111373984D01*
X155382530Y-111367330D01*
X155382537Y-111367325D01*
X155391234Y-111357717D01*
X155451778Y-111320637D01*
X155522758Y-111322176D01*
X155554465Y-111337386D01*
X155572819Y-111349604D01*
X155572821Y-111349605D01*
X155580295Y-111354580D01*
X155717139Y-111397332D01*
X155726111Y-111397496D01*
X155726114Y-111397497D01*
X155791445Y-111398694D01*
X155860481Y-111399960D01*
X155869515Y-111397497D01*
X155990140Y-111364611D01*
X155990142Y-111364610D01*
X155998799Y-111362250D01*
X156120973Y-111287235D01*
X156217182Y-111180944D01*
X156260965Y-111090576D01*
X156308665Y-111037996D01*
X156376664Y-111019538D01*
X156507670Y-111021940D01*
X156516334Y-111019578D01*
X156637329Y-110986591D01*
X156637331Y-110986590D01*
X156645988Y-110984230D01*
X156768162Y-110909215D01*
X156790126Y-110884950D01*
X156858349Y-110809577D01*
X156864371Y-110802924D01*
X156926881Y-110673903D01*
X156950667Y-110532524D01*
X156950818Y-110520170D01*
X156935574Y-110413726D01*
X156931767Y-110387138D01*
X156931766Y-110387135D01*
X156930494Y-110378252D01*
X156871155Y-110247742D01*
X156790329Y-110153939D01*
X156783430Y-110145932D01*
X156783428Y-110145930D01*
X156777571Y-110139133D01*
X156770040Y-110134252D01*
X156763842Y-110128845D01*
X156725657Y-110068992D01*
X156720671Y-110033896D01*
X156720671Y-99177307D01*
X156740673Y-99109186D01*
X156780742Y-99069932D01*
X156846522Y-99029543D01*
X156942731Y-98923252D01*
X157005241Y-98794231D01*
X157029027Y-98652852D01*
X157029178Y-98640498D01*
X157008854Y-98498580D01*
X156949515Y-98368070D01*
X156931129Y-98346732D01*
X156861791Y-98266261D01*
X156861788Y-98266258D01*
X156855931Y-98259461D01*
X156735626Y-98181483D01*
X156598270Y-98140405D01*
X156589294Y-98140350D01*
X156589293Y-98140350D01*
X156529086Y-98139982D01*
X156454907Y-98139529D01*
X156435156Y-98145174D01*
X156364162Y-98144662D01*
X156304714Y-98105848D01*
X156275687Y-98041057D01*
X156274531Y-98024025D01*
X156274531Y-97756326D01*
X156294533Y-97688205D01*
X156348189Y-97641712D01*
X156418463Y-97631608D01*
X156429527Y-97634386D01*
X156431609Y-97635588D01*
X156440698Y-97637191D01*
X156440715Y-97637195D01*
X156468719Y-97642133D01*
X156479446Y-97644511D01*
X156505202Y-97651412D01*
X156505205Y-97651412D01*
X156515848Y-97654264D01*
X156526823Y-97653304D01*
X156526825Y-97653304D01*
X156553398Y-97650979D01*
X156564379Y-97650500D01*
X157386036Y-97650500D01*
X157454157Y-97670502D01*
X157475409Y-97689198D01*
X157475503Y-97689093D01*
X157482190Y-97695072D01*
X157487970Y-97701948D01*
X157607313Y-97781390D01*
X157744157Y-97824142D01*
X157753129Y-97824306D01*
X157753132Y-97824307D01*
X157818463Y-97825504D01*
X157887499Y-97826770D01*
X157896533Y-97824307D01*
X158017158Y-97791421D01*
X158017160Y-97791420D01*
X158025817Y-97789060D01*
X158147991Y-97714045D01*
X158167800Y-97692160D01*
X158228343Y-97655079D01*
X158299323Y-97656616D01*
X158349523Y-97690190D01*
X158350503Y-97689093D01*
X158357190Y-97695072D01*
X158362970Y-97701948D01*
X158482313Y-97781390D01*
X158619157Y-97824142D01*
X158628129Y-97824306D01*
X158628132Y-97824307D01*
X158693463Y-97825504D01*
X158762499Y-97826770D01*
X158771533Y-97824307D01*
X158892158Y-97791421D01*
X158892160Y-97791420D01*
X158900817Y-97789060D01*
X159022991Y-97714045D01*
X159119200Y-97607754D01*
X159154473Y-97534951D01*
X159177795Y-97486814D01*
X159177795Y-97486813D01*
X159181710Y-97478733D01*
X159205496Y-97337354D01*
X159205647Y-97325000D01*
X159191199Y-97224113D01*
X159186596Y-97191968D01*
X159186595Y-97191965D01*
X159185323Y-97183082D01*
X159125984Y-97052572D01*
X159076140Y-96994725D01*
X159038260Y-96950763D01*
X159038257Y-96950760D01*
X159032400Y-96943963D01*
X158912095Y-96865985D01*
X158774739Y-96824907D01*
X158765763Y-96824852D01*
X158765762Y-96824852D01*
X158711267Y-96824519D01*
X158643270Y-96804101D01*
X158622942Y-96787616D01*
X157800421Y-95965095D01*
X157766395Y-95902783D01*
X157771460Y-95831968D01*
X157814007Y-95775132D01*
X157880527Y-95750321D01*
X157889516Y-95750000D01*
X159638790Y-95750000D01*
X159647643Y-95752105D01*
X159698514Y-95757631D01*
X159705328Y-95758000D01*
X160227885Y-95758000D01*
X160243124Y-95753525D01*
X160244329Y-95752135D01*
X160244793Y-95750000D01*
X160756971Y-95750000D01*
X160758475Y-95755123D01*
X160759865Y-95756328D01*
X160767548Y-95757999D01*
X161124000Y-95757999D01*
X161192121Y-95778001D01*
X161238614Y-95831657D01*
X161250000Y-95883999D01*
X161250000Y-115124000D01*
X161229998Y-115192121D01*
X161176342Y-115238614D01*
X161124000Y-115250000D01*
X141876000Y-115250000D01*
X141807879Y-115229998D01*
X141761386Y-115176342D01*
X141750000Y-115124000D01*
X141750000Y-110624511D01*
X150543614Y-110624511D01*
X150549011Y-110651643D01*
X150549011Y-110651644D01*
X150564996Y-110732006D01*
X150571891Y-110742325D01*
X150571892Y-110742327D01*
X150578407Y-110752077D01*
X150578465Y-110752163D01*
X150610350Y-110799882D01*
X150625887Y-110823135D01*
X150636203Y-110830028D01*
X150636204Y-110830029D01*
X150638575Y-110831613D01*
X150657667Y-110847283D01*
X150838936Y-111028552D01*
X150872962Y-111090864D01*
X150874341Y-111137032D01*
X150869391Y-111168823D01*
X150870555Y-111177725D01*
X150870555Y-111177728D01*
X150871814Y-111187354D01*
X150887980Y-111310979D01*
X150945720Y-111442203D01*
X150951497Y-111449076D01*
X150951498Y-111449077D01*
X150982992Y-111486544D01*
X151037970Y-111551948D01*
X151157313Y-111631390D01*
X151294157Y-111674142D01*
X151303129Y-111674306D01*
X151303132Y-111674307D01*
X151368463Y-111675504D01*
X151437499Y-111676770D01*
X151446533Y-111674307D01*
X151567158Y-111641421D01*
X151567160Y-111641420D01*
X151575817Y-111639060D01*
X151697991Y-111564045D01*
X151794200Y-111457754D01*
X151842012Y-111359069D01*
X151852795Y-111336814D01*
X151852795Y-111336813D01*
X151856710Y-111328733D01*
X151880496Y-111187354D01*
X151880647Y-111175000D01*
X151868557Y-111090579D01*
X151861596Y-111041968D01*
X151861595Y-111041965D01*
X151860323Y-111033082D01*
X151800984Y-110902572D01*
X151773970Y-110871221D01*
X151744656Y-110806559D01*
X151754955Y-110736313D01*
X151768720Y-110715461D01*
X151768105Y-110715046D01*
X151773127Y-110707600D01*
X151779149Y-110700947D01*
X151841659Y-110571926D01*
X151865445Y-110430547D01*
X151865596Y-110418193D01*
X151845272Y-110276275D01*
X151785933Y-110145765D01*
X151719781Y-110068992D01*
X151698208Y-110043955D01*
X151698206Y-110043953D01*
X151692349Y-110037156D01*
X151684818Y-110032275D01*
X151678620Y-110026868D01*
X151640435Y-109967015D01*
X151635449Y-109931919D01*
X151635449Y-104906357D01*
X151655451Y-104838236D01*
X151672354Y-104817262D01*
X153072334Y-103417282D01*
X153134646Y-103383256D01*
X153204853Y-103388278D01*
X153208153Y-103390474D01*
X153344997Y-103433226D01*
X153353969Y-103433390D01*
X153353972Y-103433391D01*
X153419303Y-103434588D01*
X153488339Y-103435854D01*
X153497373Y-103433391D01*
X153617998Y-103400505D01*
X153618000Y-103400504D01*
X153626657Y-103398144D01*
X153748831Y-103323129D01*
X153845040Y-103216838D01*
X153907550Y-103087817D01*
X153931336Y-102946438D01*
X153931487Y-102934084D01*
X153921957Y-102867536D01*
X153912436Y-102801052D01*
X153912435Y-102801049D01*
X153911163Y-102792166D01*
X153851824Y-102661656D01*
X153799996Y-102601507D01*
X153764100Y-102559847D01*
X153764097Y-102559844D01*
X153758240Y-102553047D01*
X153637935Y-102475069D01*
X153561950Y-102452345D01*
X153509177Y-102436562D01*
X153509175Y-102436562D01*
X153500579Y-102433991D01*
X153498419Y-102433978D01*
X153437115Y-102405566D01*
X153399065Y-102345626D01*
X153395434Y-102328684D01*
X153385323Y-102258082D01*
X153380054Y-102246492D01*
X153346547Y-102172799D01*
X153325984Y-102127572D01*
X153278780Y-102072789D01*
X153238260Y-102025763D01*
X153238257Y-102025760D01*
X153232400Y-102018963D01*
X153112095Y-101940985D01*
X152974739Y-101899907D01*
X152965763Y-101899852D01*
X152965762Y-101899852D01*
X152905555Y-101899484D01*
X152831376Y-101899031D01*
X152693529Y-101938428D01*
X152572280Y-102014930D01*
X152566338Y-102021658D01*
X152566337Y-102021659D01*
X152524829Y-102068659D01*
X152477377Y-102122388D01*
X152416447Y-102252163D01*
X152394391Y-102393823D01*
X152399980Y-102436562D01*
X152400472Y-102440323D01*
X152389470Y-102510462D01*
X152364630Y-102545754D01*
X150657667Y-104252717D01*
X150638575Y-104268387D01*
X150625887Y-104276865D01*
X150564996Y-104367994D01*
X150564996Y-104367995D01*
X150543614Y-104475489D01*
X150546035Y-104487660D01*
X150546590Y-104490450D01*
X150549011Y-104515032D01*
X150549011Y-110584968D01*
X150546590Y-110609550D01*
X150543614Y-110624511D01*
X141750000Y-110624511D01*
X141750000Y-101093117D01*
X142391954Y-101093117D01*
X142393118Y-101102019D01*
X142393118Y-101102022D01*
X142394377Y-101111648D01*
X142410543Y-101235273D01*
X142468283Y-101366497D01*
X142474058Y-101373367D01*
X142478034Y-101379755D01*
X142497063Y-101446337D01*
X142497063Y-105832752D01*
X142500127Y-105842183D01*
X142500128Y-105842187D01*
X142503860Y-105853672D01*
X142508476Y-105872897D01*
X142511917Y-105894623D01*
X142516418Y-105903456D01*
X142516419Y-105903460D01*
X142521904Y-105914225D01*
X142529468Y-105932485D01*
X142536267Y-105953409D01*
X142549202Y-105971212D01*
X142559528Y-105988064D01*
X142569513Y-106007661D01*
X142592076Y-106030224D01*
X142592079Y-106030228D01*
X143425799Y-106863948D01*
X143459825Y-106926260D01*
X143461640Y-106936704D01*
X143464602Y-106959357D01*
X143522342Y-107090581D01*
X143528119Y-107097454D01*
X143528120Y-107097455D01*
X143570763Y-107148185D01*
X143614592Y-107200326D01*
X143733935Y-107279768D01*
X143870779Y-107322520D01*
X143879751Y-107322684D01*
X143879754Y-107322685D01*
X143945085Y-107323882D01*
X144014121Y-107325148D01*
X144023155Y-107322685D01*
X144143780Y-107289799D01*
X144143782Y-107289798D01*
X144152439Y-107287438D01*
X144274613Y-107212423D01*
X144370822Y-107106132D01*
X144433332Y-106977111D01*
X144457118Y-106835732D01*
X144457269Y-106823378D01*
X144441246Y-106711491D01*
X144438218Y-106690346D01*
X144438217Y-106690343D01*
X144436945Y-106681460D01*
X144377606Y-106550950D01*
X144359220Y-106529612D01*
X144289882Y-106449141D01*
X144289879Y-106449138D01*
X144284022Y-106442341D01*
X144163717Y-106364363D01*
X144044810Y-106328802D01*
X143991818Y-106297181D01*
X143334968Y-105640331D01*
X143300942Y-105578019D01*
X143298063Y-105551236D01*
X143298063Y-101446018D01*
X143317509Y-101382410D01*
X143316763Y-101382048D01*
X143319085Y-101377255D01*
X143379273Y-101253027D01*
X143403059Y-101111648D01*
X143403210Y-101099294D01*
X143382886Y-100957376D01*
X143323547Y-100826866D01*
X143305161Y-100805528D01*
X143235823Y-100725057D01*
X143235820Y-100725054D01*
X143229963Y-100718257D01*
X143109658Y-100640279D01*
X142972302Y-100599201D01*
X142963326Y-100599146D01*
X142963325Y-100599146D01*
X142903118Y-100598778D01*
X142828939Y-100598325D01*
X142691092Y-100637722D01*
X142569843Y-100714224D01*
X142474940Y-100821682D01*
X142414010Y-100951457D01*
X142391954Y-101093117D01*
X141750000Y-101093117D01*
X141750000Y-95876000D01*
X141770002Y-95807879D01*
X141823658Y-95761386D01*
X141876000Y-95750000D01*
X144816793Y-95750000D01*
X144884914Y-95770002D01*
G37*
G04 #@! TD.AperFunction*
G04 #@! TA.AperFunction,Conductor*
G36*
X155335852Y-106670688D02*
G01*
X155394821Y-106710225D01*
X155423053Y-106775366D01*
X155424011Y-106790871D01*
X155424011Y-109934182D01*
X155404009Y-110002303D01*
X155387106Y-110023277D01*
X155106624Y-110303759D01*
X155087532Y-110319428D01*
X155074847Y-110327904D01*
X155067956Y-110338217D01*
X155059478Y-110350905D01*
X155059477Y-110350906D01*
X155035268Y-110387138D01*
X155013956Y-110419033D01*
X155012176Y-110427981D01*
X154969056Y-110481488D01*
X154931820Y-110499138D01*
X154847046Y-110523367D01*
X154839457Y-110528155D01*
X154839453Y-110528157D01*
X154802272Y-110551616D01*
X154733987Y-110571050D01*
X154666036Y-110550480D01*
X154639583Y-110527299D01*
X154638260Y-110525763D01*
X154638257Y-110525760D01*
X154632400Y-110518963D01*
X154624869Y-110514081D01*
X154618671Y-110508675D01*
X154580486Y-110448822D01*
X154575500Y-110413726D01*
X154575500Y-107216306D01*
X154595502Y-107148185D01*
X154612405Y-107127211D01*
X155028125Y-106711491D01*
X155090437Y-106677465D01*
X155119528Y-106674607D01*
X155237499Y-106676770D01*
X155264869Y-106669308D01*
X155335852Y-106670688D01*
G37*
G04 #@! TD.AperFunction*
M02*
